G04 Layer_Color=8388736*
%FSLAX25Y25*%
%MOIN*%
G70*
G01*
G75*
%ADD48C,0.05000*%
%ADD123R,0.06506X0.14379*%
%ADD124R,0.04537X0.04340*%
%ADD125R,0.06506X0.05718*%
%ADD126R,0.04340X0.04537*%
%ADD127R,0.05718X0.06506*%
%ADD128R,0.06899X0.06506*%
%ADD129R,0.03002X0.06624*%
%ADD130O,0.02962X0.09655*%
%ADD131R,0.01781X0.04537*%
%ADD132R,0.10600X0.12400*%
%ADD133R,0.15600X0.25600*%
%ADD134R,0.08600X0.04100*%
%ADD135O,0.02962X0.09261*%
%ADD136R,0.02962X0.09261*%
%ADD137O,0.09261X0.02962*%
%ADD138R,0.04537X0.04734*%
%ADD139R,0.06702X0.06899*%
%ADD140R,0.10600X0.06899*%
%ADD141R,0.07883X0.05718*%
%ADD142R,0.02569X0.11324*%
%ADD143R,0.02569X0.11324*%
%ADD144R,0.05521X0.06702*%
%ADD145R,0.17135X0.09261*%
%ADD146R,0.06899X0.21466*%
%ADD147R,0.08474X0.11624*%
%ADD148R,0.11624X0.08474*%
%ADD149R,0.21466X0.06899*%
%ADD150R,0.09261X0.17135*%
%ADD151R,0.06702X0.05521*%
%ADD152R,0.14379X0.06506*%
%ADD153R,0.12400X0.10600*%
%ADD154R,0.25600X0.15600*%
%ADD155R,0.04100X0.08600*%
%ADD156O,0.09655X0.02962*%
%ADD157R,0.05718X0.07883*%
%ADD158R,0.04734X0.04537*%
%ADD159C,0.16742*%
%ADD160C,0.08080*%
%ADD161R,0.08080X0.08080*%
%ADD162C,0.06112*%
%ADD163C,0.16348*%
%ADD164C,0.14379*%
%ADD165C,0.07698*%
%ADD166R,0.07608X0.07608*%
%ADD167C,0.10443*%
%ADD168O,0.06899X0.07687*%
%ADD169R,0.06899X0.08474*%
%ADD170C,0.09600*%
%ADD171C,0.08600*%
%ADD172C,0.06899*%
%ADD173O,0.07687X0.09261*%
%ADD174C,0.12411*%
%ADD175C,0.12411*%
%ADD176R,0.06899X0.07687*%
%ADD177O,0.07687X0.06899*%
%ADD178R,0.07687X0.06899*%
%ADD179C,0.14600*%
%ADD180C,0.18316*%
%ADD181O,0.10443X0.20285*%
%ADD182O,0.20285X0.10443*%
%ADD183C,0.18600*%
%ADD184C,0.10600*%
%ADD185C,0.05907*%
%ADD186C,0.07000*%
%ADD187C,0.08474*%
%ADD188R,0.08080X0.08080*%
%ADD189O,0.18316X0.13198*%
%ADD190O,0.06899X0.08474*%
%ADD191C,0.06600*%
%ADD192C,0.20285*%
%ADD193C,0.03600*%
%ADD194C,0.05600*%
D48*
X-23622Y-20000D02*
X1100000D01*
Y720000D01*
X-23622D02*
X1100000D01*
X-23622Y-20000D02*
Y720000D01*
D123*
X789008Y394000D02*
D03*
X764992D02*
D03*
D124*
X673350Y357000D02*
D03*
X679650D02*
D03*
X296850Y200000D02*
D03*
X303150D02*
D03*
X609350Y345000D02*
D03*
X615650D02*
D03*
X673350Y344201D02*
D03*
X667051D02*
D03*
X673350Y350500D02*
D03*
X679650D02*
D03*
X537350Y280500D02*
D03*
X543650D02*
D03*
X615427Y292415D02*
D03*
X609128D02*
D03*
X659350Y336000D02*
D03*
X665650D02*
D03*
X672350D02*
D03*
X678650D02*
D03*
X594350Y345000D02*
D03*
X600650D02*
D03*
X666150Y350500D02*
D03*
X659850D02*
D03*
X609128Y337415D02*
D03*
X615428D02*
D03*
X609128Y329915D02*
D03*
X615428D02*
D03*
X609128Y299915D02*
D03*
X615428D02*
D03*
X666850Y329000D02*
D03*
X673150D02*
D03*
X675150Y292000D02*
D03*
X668850D02*
D03*
X637150Y286000D02*
D03*
X630850D02*
D03*
D125*
X758500Y425654D02*
D03*
Y432346D02*
D03*
X833000Y300654D02*
D03*
Y307347D02*
D03*
X788600Y432093D02*
D03*
Y425400D02*
D03*
X778700D02*
D03*
Y432093D02*
D03*
X768500Y425700D02*
D03*
Y432393D02*
D03*
X777000Y282846D02*
D03*
Y276153D02*
D03*
X785700Y282846D02*
D03*
Y276153D02*
D03*
X269000Y620346D02*
D03*
Y613654D02*
D03*
X9778Y250761D02*
D03*
Y244069D02*
D03*
X745800Y23307D02*
D03*
Y30000D02*
D03*
X719078Y194346D02*
D03*
Y187654D02*
D03*
X77000Y175847D02*
D03*
Y169153D02*
D03*
X9500Y289154D02*
D03*
Y295847D02*
D03*
X-2722Y250761D02*
D03*
Y244069D02*
D03*
X736500Y23154D02*
D03*
Y29847D02*
D03*
X141500Y311347D02*
D03*
Y304654D02*
D03*
X729500Y194346D02*
D03*
Y187654D02*
D03*
X807000Y328346D02*
D03*
Y321654D02*
D03*
X751500Y146846D02*
D03*
Y140154D02*
D03*
X820500Y141654D02*
D03*
Y148346D02*
D03*
X810500Y181346D02*
D03*
Y174653D02*
D03*
X830000Y148346D02*
D03*
Y141654D02*
D03*
X820500Y157653D02*
D03*
Y164347D02*
D03*
X811500Y149653D02*
D03*
Y156346D02*
D03*
X751500Y155154D02*
D03*
Y161846D02*
D03*
X830000Y164347D02*
D03*
Y157653D02*
D03*
X839000D02*
D03*
Y164347D02*
D03*
Y148346D02*
D03*
Y141654D02*
D03*
X815100Y244892D02*
D03*
Y251585D02*
D03*
X845100Y244892D02*
D03*
Y251585D02*
D03*
X815100Y229085D02*
D03*
Y222392D02*
D03*
X830100D02*
D03*
Y229085D02*
D03*
X847000Y228847D02*
D03*
Y222153D02*
D03*
X856500Y228847D02*
D03*
Y222153D02*
D03*
X415000Y283347D02*
D03*
Y276654D02*
D03*
X424000D02*
D03*
Y283347D02*
D03*
X9500Y305153D02*
D03*
Y311846D02*
D03*
X70000Y346947D02*
D03*
Y340253D02*
D03*
X84500Y346947D02*
D03*
Y340253D02*
D03*
X99000D02*
D03*
Y346947D02*
D03*
X112500Y347346D02*
D03*
Y340653D02*
D03*
X131000Y311347D02*
D03*
Y304654D02*
D03*
X269000Y629654D02*
D03*
Y636346D02*
D03*
Y597653D02*
D03*
Y604347D02*
D03*
X279000Y587847D02*
D03*
Y581153D02*
D03*
X269000Y581153D02*
D03*
Y587847D02*
D03*
X788500Y368347D02*
D03*
Y361653D02*
D03*
X719578Y295153D02*
D03*
Y301847D02*
D03*
X817000Y328447D02*
D03*
Y321754D02*
D03*
X833000Y322654D02*
D03*
Y329346D02*
D03*
X856500Y198846D02*
D03*
Y192154D02*
D03*
X846500Y198846D02*
D03*
Y192154D02*
D03*
X836000Y198846D02*
D03*
Y192154D02*
D03*
D126*
X659500Y363650D02*
D03*
Y357350D02*
D03*
X662500Y314850D02*
D03*
Y321150D02*
D03*
X620000Y361150D02*
D03*
Y354850D02*
D03*
Y368850D02*
D03*
Y375150D02*
D03*
X610978Y354180D02*
D03*
Y360479D02*
D03*
X666000Y363650D02*
D03*
Y357350D02*
D03*
X631000Y319150D02*
D03*
Y312850D02*
D03*
X669000Y300850D02*
D03*
Y307150D02*
D03*
X614778Y313065D02*
D03*
Y306765D02*
D03*
X675500Y321150D02*
D03*
Y314850D02*
D03*
X669000Y314850D02*
D03*
Y321150D02*
D03*
X583000Y348850D02*
D03*
Y355150D02*
D03*
X529500Y286650D02*
D03*
Y280350D02*
D03*
X457000Y187150D02*
D03*
Y180850D02*
D03*
X415500D02*
D03*
Y187150D02*
D03*
X171000Y194150D02*
D03*
Y187850D02*
D03*
X285000Y146850D02*
D03*
Y153150D02*
D03*
D127*
X777153Y267000D02*
D03*
X783847D02*
D03*
X715154Y340000D02*
D03*
X721846D02*
D03*
X799643Y204400D02*
D03*
X792950D02*
D03*
X786846Y128500D02*
D03*
X780154D02*
D03*
X615624Y322415D02*
D03*
X608931D02*
D03*
X142546Y141900D02*
D03*
X135854D02*
D03*
X786846Y104500D02*
D03*
X780154D02*
D03*
X77346Y317000D02*
D03*
X70653D02*
D03*
X763068Y345085D02*
D03*
X756376D02*
D03*
X769846Y104500D02*
D03*
X763154D02*
D03*
X780154Y117000D02*
D03*
X786846D02*
D03*
X792654Y192500D02*
D03*
X799346D02*
D03*
X434654Y276000D02*
D03*
X441347D02*
D03*
X92654Y328000D02*
D03*
X99347D02*
D03*
X111653D02*
D03*
X118347D02*
D03*
X107846Y317000D02*
D03*
X101154D02*
D03*
X118347Y257500D02*
D03*
X111653D02*
D03*
X798654Y361000D02*
D03*
X805346D02*
D03*
X756376Y365085D02*
D03*
X763068D02*
D03*
X763068Y355085D02*
D03*
X756376D02*
D03*
X808068Y345085D02*
D03*
X801376D02*
D03*
X781376D02*
D03*
X788068D02*
D03*
X987846Y273000D02*
D03*
X981153D02*
D03*
X1001653D02*
D03*
X1008346D02*
D03*
X1028846D02*
D03*
X1022153D02*
D03*
D128*
X997500Y331980D02*
D03*
Y317020D02*
D03*
X890500Y292020D02*
D03*
Y306980D02*
D03*
Y334980D02*
D03*
Y320020D02*
D03*
X997500Y288520D02*
D03*
Y303480D02*
D03*
D129*
X473578Y309008D02*
D03*
X478578D02*
D03*
X483578D02*
D03*
X488578D02*
D03*
X493578D02*
D03*
X498578D02*
D03*
X503578D02*
D03*
X508578D02*
D03*
X488578Y330504D02*
D03*
X483578D02*
D03*
X478578D02*
D03*
X473578D02*
D03*
X503578D02*
D03*
X498578D02*
D03*
X493578D02*
D03*
X508578D02*
D03*
D130*
X759500Y296087D02*
D03*
X764500D02*
D03*
X769500D02*
D03*
X774500D02*
D03*
X779500D02*
D03*
X784500D02*
D03*
X789500D02*
D03*
X794500D02*
D03*
X759500Y331913D02*
D03*
X764500D02*
D03*
X769500D02*
D03*
X774500D02*
D03*
X779500D02*
D03*
X784500D02*
D03*
X789500D02*
D03*
X794500D02*
D03*
X78057Y268234D02*
D03*
X83057D02*
D03*
X88057D02*
D03*
X93057D02*
D03*
X98057D02*
D03*
X103057D02*
D03*
X108057D02*
D03*
X113057D02*
D03*
X78057Y304061D02*
D03*
X83057D02*
D03*
X88057D02*
D03*
X93057D02*
D03*
X98057D02*
D03*
X103057D02*
D03*
X108057D02*
D03*
X113057D02*
D03*
D131*
X448559Y179669D02*
D03*
X443441D02*
D03*
X446000D02*
D03*
X448559Y188331D02*
D03*
X443441D02*
D03*
D132*
X152592Y161686D02*
D03*
D133*
X145008Y161700D02*
D03*
D134*
X130008Y152500D02*
D03*
Y161600D02*
D03*
Y170700D02*
D03*
D135*
X332378Y187984D02*
D03*
X327378D02*
D03*
X322378D02*
D03*
X317378D02*
D03*
X312378D02*
D03*
X307378D02*
D03*
X302378D02*
D03*
X297378D02*
D03*
X332378Y146646D02*
D03*
X327378D02*
D03*
X322378D02*
D03*
X317378D02*
D03*
X312378D02*
D03*
X307378D02*
D03*
X302378D02*
D03*
D136*
X297378D02*
D03*
D137*
X631351Y357415D02*
D03*
Y352415D02*
D03*
Y347415D02*
D03*
Y342415D02*
D03*
Y337415D02*
D03*
Y332415D02*
D03*
Y327415D02*
D03*
X650249Y357415D02*
D03*
Y352415D02*
D03*
Y347415D02*
D03*
Y342415D02*
D03*
Y337415D02*
D03*
Y332415D02*
D03*
Y327415D02*
D03*
D138*
X433000Y180496D02*
D03*
Y187504D02*
D03*
X345000Y156504D02*
D03*
Y149496D02*
D03*
D139*
X1050839Y253500D02*
D03*
X1043161D02*
D03*
X43161Y497500D02*
D03*
X50839D02*
D03*
X26339D02*
D03*
X18661D02*
D03*
X1063161Y253500D02*
D03*
X1070839D02*
D03*
D140*
X607000Y680988D02*
D03*
Y692012D02*
D03*
X349778Y385427D02*
D03*
Y374403D02*
D03*
X552278Y385427D02*
D03*
Y374403D02*
D03*
X404500Y680988D02*
D03*
Y692012D02*
D03*
D141*
X95000Y199209D02*
D03*
Y187791D02*
D03*
X141500Y293209D02*
D03*
Y281791D02*
D03*
D142*
X177291Y233614D02*
D03*
Y253000D02*
D03*
X180441Y233614D02*
D03*
Y253000D02*
D03*
X183591Y233614D02*
D03*
Y253000D02*
D03*
X186740Y233614D02*
D03*
Y253000D02*
D03*
X189890Y233614D02*
D03*
Y253000D02*
D03*
X193039Y233614D02*
D03*
Y253000D02*
D03*
X196189Y233614D02*
D03*
Y253000D02*
D03*
X199339Y233614D02*
D03*
Y253000D02*
D03*
X202488Y233614D02*
D03*
Y253000D02*
D03*
X205638Y233614D02*
D03*
Y253000D02*
D03*
X208787D02*
D03*
X211937Y233614D02*
D03*
Y253000D02*
D03*
X215087Y233614D02*
D03*
Y253000D02*
D03*
X218236Y233614D02*
D03*
Y253000D02*
D03*
X221386Y233614D02*
D03*
Y253000D02*
D03*
X224535Y233614D02*
D03*
Y253000D02*
D03*
X227685Y233614D02*
D03*
Y253000D02*
D03*
X230835Y233614D02*
D03*
Y253000D02*
D03*
X233984Y233614D02*
D03*
Y253000D02*
D03*
X237134Y233614D02*
D03*
Y253000D02*
D03*
X240283Y233614D02*
D03*
Y253000D02*
D03*
X243433Y233614D02*
D03*
Y253000D02*
D03*
X246583Y233614D02*
D03*
Y253000D02*
D03*
X249732Y233614D02*
D03*
Y253000D02*
D03*
X252882Y233614D02*
D03*
Y253000D02*
D03*
X256031Y233614D02*
D03*
Y253000D02*
D03*
X259181Y233614D02*
D03*
Y253000D02*
D03*
X262331Y233614D02*
D03*
Y253000D02*
D03*
X265480Y233614D02*
D03*
Y253000D02*
D03*
X268630Y233614D02*
D03*
X268630Y253000D02*
D03*
X351575Y233614D02*
D03*
Y253000D02*
D03*
X354724Y233614D02*
D03*
Y253000D02*
D03*
X357874Y233614D02*
D03*
Y253000D02*
D03*
X361024Y233614D02*
D03*
Y253000D02*
D03*
X364173Y233614D02*
D03*
Y253000D02*
D03*
X367323Y233614D02*
D03*
Y253000D02*
D03*
X370472Y233614D02*
D03*
Y253000D02*
D03*
X373622Y233614D02*
D03*
Y253000D02*
D03*
X376772Y233614D02*
D03*
Y253000D02*
D03*
X379921Y233614D02*
D03*
Y253000D02*
D03*
X383071Y233614D02*
D03*
Y253000D02*
D03*
X386221Y233614D02*
D03*
Y253000D02*
D03*
X389370Y233614D02*
D03*
Y253000D02*
D03*
X392520Y233614D02*
D03*
Y253000D02*
D03*
X395669Y233614D02*
D03*
Y253000D02*
D03*
X398819Y233614D02*
D03*
Y253000D02*
D03*
X401968Y233614D02*
D03*
Y253000D02*
D03*
X405118Y233614D02*
D03*
Y253000D02*
D03*
X408268Y233614D02*
D03*
X411417D02*
D03*
Y253000D02*
D03*
X414567Y233614D02*
D03*
Y253000D02*
D03*
X417717Y233614D02*
D03*
Y253000D02*
D03*
X420866Y233614D02*
D03*
Y253000D02*
D03*
X424016Y233614D02*
D03*
X427165D02*
D03*
Y253000D02*
D03*
X430315Y233614D02*
D03*
Y253000D02*
D03*
X433465Y233614D02*
D03*
Y253000D02*
D03*
X436614Y233614D02*
D03*
Y253000D02*
D03*
X439764Y233614D02*
D03*
Y253000D02*
D03*
X442913Y233614D02*
D03*
Y253000D02*
D03*
X446063Y233614D02*
D03*
Y253000D02*
D03*
X449213Y233614D02*
D03*
Y253000D02*
D03*
X464961Y233614D02*
D03*
Y253000D02*
D03*
X468110Y233614D02*
D03*
Y253000D02*
D03*
X471260Y233614D02*
D03*
Y253000D02*
D03*
X474409Y233614D02*
D03*
Y253000D02*
D03*
X477559Y233614D02*
D03*
Y253000D02*
D03*
X480709Y233614D02*
D03*
Y253000D02*
D03*
X483858Y233614D02*
D03*
Y253000D02*
D03*
X487008Y233614D02*
D03*
Y253000D02*
D03*
X490158Y233614D02*
D03*
Y253000D02*
D03*
X493307Y233614D02*
D03*
Y253000D02*
D03*
X496457Y233614D02*
D03*
Y253000D02*
D03*
X499606Y233614D02*
D03*
Y253000D02*
D03*
X502756Y233614D02*
D03*
Y253000D02*
D03*
X505905Y233614D02*
D03*
Y253000D02*
D03*
X509055Y233614D02*
D03*
Y253000D02*
D03*
X512205Y233614D02*
D03*
Y253000D02*
D03*
X515354Y233614D02*
D03*
Y253000D02*
D03*
X518504Y233614D02*
D03*
Y253000D02*
D03*
X521654Y233614D02*
D03*
Y253000D02*
D03*
X524803Y233614D02*
D03*
Y253000D02*
D03*
X527953Y233614D02*
D03*
Y253000D02*
D03*
X531102Y233614D02*
D03*
Y253000D02*
D03*
X534252Y233614D02*
D03*
X534252Y253000D02*
D03*
X537402Y233614D02*
D03*
Y253000D02*
D03*
X540551Y233614D02*
D03*
X540551Y253000D02*
D03*
X543701Y233614D02*
D03*
Y253000D02*
D03*
X546850Y233614D02*
D03*
Y253000D02*
D03*
X550000Y233614D02*
D03*
Y253000D02*
D03*
D143*
X208787Y233614D02*
D03*
X408268Y253000D02*
D03*
X424016D02*
D03*
D144*
X180500Y185472D02*
D03*
Y194528D02*
D03*
D145*
X252630Y335000D02*
D03*
X281370D02*
D03*
X156370Y194500D02*
D03*
X127630D02*
D03*
D146*
X949736Y253500D02*
D03*
X929264D02*
D03*
X1030236D02*
D03*
X1009764D02*
D03*
D147*
X728890Y327500D02*
D03*
X715110D02*
D03*
X238890Y121000D02*
D03*
X225110D02*
D03*
X153390Y44500D02*
D03*
X139610D02*
D03*
D148*
X200000Y93110D02*
D03*
Y106890D02*
D03*
X115000Y165890D02*
D03*
Y152110D02*
D03*
D149*
X976000Y114264D02*
D03*
Y134736D02*
D03*
X894500D02*
D03*
Y114264D02*
D03*
D150*
X104000Y93130D02*
D03*
Y121870D02*
D03*
X95000Y215630D02*
D03*
Y244370D02*
D03*
X53500Y155630D02*
D03*
Y184370D02*
D03*
D151*
X144228Y129900D02*
D03*
X135172D02*
D03*
D152*
X910000Y251992D02*
D03*
Y276008D02*
D03*
D153*
X224886Y83593D02*
D03*
D154*
X224900Y91177D02*
D03*
D155*
X215700Y106177D02*
D03*
X224800D02*
D03*
X233900D02*
D03*
D156*
X764087Y251000D02*
D03*
Y246000D02*
D03*
Y241000D02*
D03*
Y236000D02*
D03*
Y231000D02*
D03*
Y226000D02*
D03*
Y221000D02*
D03*
Y216000D02*
D03*
X799913Y251000D02*
D03*
Y246000D02*
D03*
Y241000D02*
D03*
Y236000D02*
D03*
Y231000D02*
D03*
Y226000D02*
D03*
Y221000D02*
D03*
Y216000D02*
D03*
X764087Y180500D02*
D03*
Y175500D02*
D03*
Y170500D02*
D03*
Y165500D02*
D03*
Y160500D02*
D03*
Y155500D02*
D03*
Y150500D02*
D03*
Y145500D02*
D03*
X799913Y180500D02*
D03*
Y175500D02*
D03*
Y170500D02*
D03*
Y165500D02*
D03*
Y160500D02*
D03*
Y155500D02*
D03*
Y150500D02*
D03*
Y145500D02*
D03*
D157*
X193709Y305500D02*
D03*
X182291D02*
D03*
Y319500D02*
D03*
X193709D02*
D03*
Y333000D02*
D03*
X182291D02*
D03*
Y347000D02*
D03*
X193709D02*
D03*
X701709Y328000D02*
D03*
X690291D02*
D03*
D158*
X163204Y129900D02*
D03*
X156196D02*
D03*
X190496Y185000D02*
D03*
X197504D02*
D03*
X450704Y164400D02*
D03*
X443696D02*
D03*
D159*
X1010000Y677500D02*
D03*
Y562500D02*
D03*
Y402500D02*
D03*
Y517500D02*
D03*
D160*
X698969Y407626D02*
D03*
Y397626D02*
D03*
X748969Y387626D02*
D03*
Y397626D02*
D03*
Y407626D02*
D03*
X366378Y606000D02*
D03*
X592200Y459900D02*
D03*
X568578Y606000D02*
D03*
X390000Y459900D02*
D03*
D161*
X698969Y387626D02*
D03*
D162*
X735218Y357626D02*
D03*
X727718D02*
D03*
X720219D02*
D03*
X712718D02*
D03*
D163*
X678130Y620055D02*
D03*
X756870D02*
D03*
X678130Y501945D02*
D03*
X756870D02*
D03*
D164*
X858900Y627068D02*
D03*
X898861Y676280D02*
D03*
X818939D02*
D03*
X858900Y518800D02*
D03*
X898861Y469587D02*
D03*
X818939D02*
D03*
X1022478Y297784D02*
D03*
X1069722D02*
D03*
X1046100Y353690D02*
D03*
X910978Y298684D02*
D03*
X958222D02*
D03*
X934600Y354590D02*
D03*
D165*
X850500Y321158D02*
D03*
Y340843D02*
D03*
Y331000D02*
D03*
D166*
X719500Y274000D02*
D03*
Y254000D02*
D03*
Y224000D02*
D03*
Y214000D02*
D03*
X25700Y311700D02*
D03*
Y291700D02*
D03*
Y261700D02*
D03*
Y251700D02*
D03*
X763000Y24000D02*
D03*
Y34000D02*
D03*
Y64000D02*
D03*
Y84000D02*
D03*
D167*
X216878Y18315D02*
D03*
X196878D02*
D03*
X10378Y147909D02*
D03*
X24394Y147713D02*
D03*
X-3638Y147713D02*
D03*
X29374Y99721D02*
D03*
X-8618D02*
D03*
X1069722Y345816D02*
D03*
X1022478D02*
D03*
X958222Y346716D02*
D03*
X910978D02*
D03*
D168*
X166878Y18315D02*
D03*
X156878D02*
D03*
X609384Y58045D02*
D03*
X619384Y48045D02*
D03*
Y58045D02*
D03*
X629384Y48045D02*
D03*
Y58045D02*
D03*
X639384Y48045D02*
D03*
Y58045D02*
D03*
X229000Y335000D02*
D03*
X340000Y10000D02*
D03*
Y0D02*
D03*
X330000Y10000D02*
D03*
Y0D02*
D03*
X320000Y10000D02*
D03*
Y0D02*
D03*
X310000Y10000D02*
D03*
Y0D02*
D03*
X300000Y10000D02*
D03*
X435000Y0D02*
D03*
X445000D02*
D03*
X317000Y126000D02*
D03*
X327000D02*
D03*
D169*
X1058000Y45500D02*
D03*
X421378Y665000D02*
D03*
X533578Y400900D02*
D03*
X623578Y665000D02*
D03*
X331378Y400900D02*
D03*
X567278Y379915D02*
D03*
X817000Y88000D02*
D03*
X595000Y355000D02*
D03*
X518500Y280500D02*
D03*
X593500Y678000D02*
D03*
X365000Y384500D02*
D03*
X391378Y685000D02*
D03*
X631000Y301000D02*
D03*
X669000Y278000D02*
D03*
D170*
X269827Y79874D02*
D03*
Y97591D02*
D03*
X295417Y79874D02*
D03*
Y97591D02*
D03*
X980200Y328031D02*
D03*
Y288661D02*
D03*
X876700Y291661D02*
D03*
Y331031D02*
D03*
D171*
X65500Y226000D02*
D03*
Y216000D02*
D03*
Y206157D02*
D03*
D172*
X924236Y125831D02*
D03*
X953764Y117169D02*
D03*
D173*
X366555Y574964D02*
D03*
X376397D02*
D03*
X386240D02*
D03*
X592023Y490936D02*
D03*
X582181D02*
D03*
X572338D02*
D03*
X568755Y574964D02*
D03*
X578597D02*
D03*
X588440D02*
D03*
X389823Y490936D02*
D03*
X379981D02*
D03*
X370138D02*
D03*
D174*
X195000Y370000D02*
D03*
Y469213D02*
D03*
Y435000D02*
D03*
X-5000Y370000D02*
D03*
D175*
Y470000D02*
D03*
D176*
X609384Y48045D02*
D03*
X219000Y335000D02*
D03*
X300000Y0D02*
D03*
X425000D02*
D03*
X307000Y126000D02*
D03*
D177*
X399778Y187415D02*
D03*
X389778Y177415D02*
D03*
X399778D02*
D03*
X389778Y167415D02*
D03*
X399778D02*
D03*
X389778Y157415D02*
D03*
X399778D02*
D03*
X389778Y147415D02*
D03*
X399778D02*
D03*
X389778Y137415D02*
D03*
X399778D02*
D03*
X389778Y127415D02*
D03*
X399778D02*
D03*
X389778Y117415D02*
D03*
X399778D02*
D03*
X389778Y107415D02*
D03*
X399778D02*
D03*
X216000Y47000D02*
D03*
X219000Y459000D02*
D03*
D178*
X389778Y187415D02*
D03*
X216000Y37000D02*
D03*
X219000Y469000D02*
D03*
D179*
X1040000Y226500D02*
D03*
Y156500D02*
D03*
X920000Y226500D02*
D03*
Y156500D02*
D03*
D180*
X779240Y694500D02*
D03*
X700500D02*
D03*
D181*
X36215Y212198D02*
D03*
X12593D02*
D03*
D182*
X24392Y193694D02*
D03*
D183*
X846722Y35500D02*
D03*
X1003722D02*
D03*
X426378Y590000D02*
D03*
X326378D02*
D03*
X122500Y597815D02*
D03*
Y637185D02*
D03*
X532200Y475900D02*
D03*
X632200D02*
D03*
X529778Y590000D02*
D03*
X629778D02*
D03*
X430000Y475900D02*
D03*
X330000D02*
D03*
D184*
X925222Y64500D02*
D03*
X960722D02*
D03*
X889722D02*
D03*
D185*
X336417Y243307D02*
D03*
X565157D02*
D03*
D186*
X171386Y237402D02*
D03*
X274535Y243307D02*
D03*
X345669Y237402D02*
D03*
X555905Y243307D02*
D03*
D187*
X1020000Y96500D02*
D03*
X1040000D02*
D03*
X1020000Y126500D02*
D03*
X1040000D02*
D03*
X196806Y44915D02*
D03*
X167278D02*
D03*
X229778Y637100D02*
D03*
Y597730D02*
D03*
X252278Y637100D02*
D03*
Y597730D02*
D03*
X208000Y637185D02*
D03*
Y597815D02*
D03*
X842000Y88000D02*
D03*
X862000D02*
D03*
X842000Y118000D02*
D03*
X862000D02*
D03*
X17700Y668700D02*
D03*
X-2300D02*
D03*
X17700Y638700D02*
D03*
X-2300D02*
D03*
D188*
X386378Y606000D02*
D03*
X572200Y459900D02*
D03*
X588578Y606000D02*
D03*
X370000Y459900D02*
D03*
D189*
X26878Y540315D02*
D03*
Y600315D02*
D03*
Y570315D02*
D03*
D190*
X371378Y665000D02*
D03*
X351378D02*
D03*
X391378D02*
D03*
X381378D02*
D03*
X341378D02*
D03*
X401378D02*
D03*
X331378D02*
D03*
X411378D02*
D03*
X361378D02*
D03*
X583578Y400900D02*
D03*
X603578D02*
D03*
X563578D02*
D03*
X573578D02*
D03*
X613578D02*
D03*
X553578D02*
D03*
X623578D02*
D03*
X543578D02*
D03*
X593578D02*
D03*
X573578Y665000D02*
D03*
X553578D02*
D03*
X593578D02*
D03*
X583578D02*
D03*
X543578D02*
D03*
X603578D02*
D03*
X533578D02*
D03*
X613578D02*
D03*
X563578D02*
D03*
X381378Y400900D02*
D03*
X401378D02*
D03*
X361378D02*
D03*
X371378D02*
D03*
X411378D02*
D03*
X351378D02*
D03*
X421378D02*
D03*
X341378D02*
D03*
X391378D02*
D03*
D191*
X954028Y96500D02*
D03*
X894972Y96000D02*
D03*
X219000Y374403D02*
D03*
X452000Y374000D02*
D03*
Y692000D02*
D03*
X421500Y704500D02*
D03*
X306700Y712500D02*
D03*
Y400500D02*
D03*
X587500Y712500D02*
D03*
X331500Y350900D02*
D03*
X533500D02*
D03*
X719000Y180000D02*
D03*
D192*
X0Y700000D02*
D03*
Y0D02*
D03*
X1080000Y700000D02*
D03*
X645900Y695000D02*
D03*
X640000Y0D02*
D03*
X1080000D02*
D03*
D193*
X679600Y363200D02*
D03*
X589700Y187400D02*
D03*
Y293400D02*
D03*
X452200D02*
D03*
X736500Y38000D02*
D03*
X131000Y318000D02*
D03*
X88000Y294500D02*
D03*
X16000Y305000D02*
D03*
X659500Y303000D02*
D03*
X662000Y329000D02*
D03*
X631000Y279000D02*
D03*
Y249000D02*
D03*
X387200Y58400D02*
D03*
X750500Y226000D02*
D03*
X744000Y162000D02*
D03*
X597500D02*
D03*
Y273500D02*
D03*
X451000Y276000D02*
D03*
X455700Y193500D02*
D03*
X602500Y322500D02*
D03*
X138000Y249000D02*
D03*
X156500Y203000D02*
D03*
X297000Y134000D02*
D03*
X327378D02*
D03*
X522000Y330900D02*
D03*
X515200Y262200D02*
D03*
X285000Y298400D02*
D03*
X286500Y587500D02*
D03*
X530500Y0D02*
D03*
X537300Y261700D02*
D03*
X523500Y10000D02*
D03*
X534300Y264300D02*
D03*
X430500Y221500D02*
D03*
Y147500D02*
D03*
X473500Y658000D02*
D03*
X468000Y416000D02*
D03*
Y380000D02*
D03*
X445000D02*
D03*
X391500D02*
D03*
X424000Y290000D02*
D03*
X410500Y180500D02*
D03*
X332500Y181000D02*
D03*
X408300Y261900D02*
D03*
X436600D02*
D03*
X477500Y262200D02*
D03*
X496600Y262100D02*
D03*
X521600Y262400D02*
D03*
X540600Y264300D02*
D03*
X535000Y286500D02*
D03*
X604000Y292000D02*
D03*
Y300000D02*
D03*
Y330000D02*
D03*
X604800Y337500D02*
D03*
X589000Y345000D02*
D03*
X456200Y164400D02*
D03*
X457000Y172500D02*
D03*
X308000Y200000D02*
D03*
X205000Y185000D02*
D03*
X171000Y180500D02*
D03*
X129500Y176500D02*
D03*
X115000Y173500D02*
D03*
X77200Y183400D02*
D03*
X78200Y259400D02*
D03*
X-2500Y258500D02*
D03*
X63700Y184400D02*
D03*
X127500Y183500D02*
D03*
X112000Y122000D02*
D03*
X177300Y262400D02*
D03*
X211900Y262300D02*
D03*
X199500Y305500D02*
D03*
Y319500D02*
D03*
Y333000D02*
D03*
X295000Y335000D02*
D03*
X292200Y485900D02*
D03*
Y688000D02*
D03*
X199500Y347000D02*
D03*
X148700Y281900D02*
D03*
X246700Y262100D02*
D03*
X149200Y141900D02*
D03*
X163200Y136400D02*
D03*
X583000Y344800D02*
D03*
X386300Y261900D02*
D03*
X364000D02*
D03*
X643000Y286000D02*
D03*
X681000Y292000D02*
D03*
X759700Y303900D02*
D03*
X765000Y307500D02*
D03*
X777500D02*
D03*
X794700Y303400D02*
D03*
X802500Y305000D02*
D03*
X820000Y307500D02*
D03*
X817500Y297500D02*
D03*
X822500Y295000D02*
D03*
X841500Y334500D02*
D03*
X727000Y340000D02*
D03*
X845000Y352500D02*
D03*
X857500D02*
D03*
X855000Y367500D02*
D03*
X840000D02*
D03*
X835000Y352500D02*
D03*
X833000Y339500D02*
D03*
X792000Y276000D02*
D03*
X790000Y267000D02*
D03*
X182000Y383000D02*
D03*
X616000Y104500D02*
D03*
X243000Y408500D02*
D03*
X637000Y147000D02*
D03*
X249500Y446500D02*
D03*
X247000Y387500D02*
D03*
X576000Y315500D02*
D03*
X240500Y495000D02*
D03*
X569500Y306000D02*
D03*
X189500Y496000D02*
D03*
X586500Y306500D02*
D03*
X190500Y404500D02*
D03*
X683000Y368500D02*
D03*
X27000Y68500D02*
D03*
X736500Y372500D02*
D03*
X0Y41500D02*
D03*
X649500Y370000D02*
D03*
X-6000Y71500D02*
D03*
X633000Y370500D02*
D03*
X16000Y46500D02*
D03*
X634500Y382000D02*
D03*
X155000Y244500D02*
D03*
X584000Y380500D02*
D03*
X237000Y269000D02*
D03*
X698500Y302000D02*
D03*
X344000Y266500D02*
D03*
X700500Y281500D02*
D03*
X301000Y246000D02*
D03*
X698000Y268500D02*
D03*
X334000Y218000D02*
D03*
X698000Y245000D02*
D03*
X235000Y221000D02*
D03*
X709500Y229500D02*
D03*
X270000Y182500D02*
D03*
X733000Y224000D02*
D03*
X238500Y184500D02*
D03*
X734000Y203000D02*
D03*
X290000Y-4000D02*
D03*
X731500Y214500D02*
D03*
X290000Y41500D02*
D03*
X668000Y235500D02*
D03*
X330500Y47500D02*
D03*
X642000Y227000D02*
D03*
X315500Y34000D02*
D03*
X617500Y237000D02*
D03*
X298500Y52500D02*
D03*
X608500Y269500D02*
D03*
X346500Y23500D02*
D03*
X651500Y265500D02*
D03*
X396000Y26500D02*
D03*
X653500Y278000D02*
D03*
X376000Y4000D02*
D03*
X537500Y313000D02*
D03*
X484500Y155000D02*
D03*
X513500Y316000D02*
D03*
X461500Y143000D02*
D03*
X513000Y305000D02*
D03*
X459000Y109500D02*
D03*
X533000Y319000D02*
D03*
X515000Y102500D02*
D03*
X577500Y237000D02*
D03*
X490500Y47500D02*
D03*
X577000Y253000D02*
D03*
X576500Y-1500D02*
D03*
X667000Y190000D02*
D03*
X578500Y74000D02*
D03*
X640500Y191000D02*
D03*
X553000Y29500D02*
D03*
X629500Y190500D02*
D03*
X560500Y68500D02*
D03*
X605500Y188500D02*
D03*
X716500Y30500D02*
D03*
X557000Y173500D02*
D03*
X719500Y76000D02*
D03*
X555000Y151500D02*
D03*
X710500Y107000D02*
D03*
X572500Y141000D02*
D03*
X641000Y107000D02*
D03*
X653000Y145000D02*
D03*
X625000Y91000D02*
D03*
X659500Y105000D02*
D03*
X757000Y251000D02*
D03*
Y216000D02*
D03*
X755700Y180400D02*
D03*
X729700Y201400D02*
D03*
X745500Y140000D02*
D03*
X728700Y23400D02*
D03*
X657500Y342500D02*
D03*
X508500Y302500D02*
D03*
X291000Y412000D02*
D03*
X518400Y240900D02*
D03*
X537500Y224500D02*
D03*
X493300Y224600D02*
D03*
X480800Y225000D02*
D03*
X239000Y107000D02*
D03*
X247000Y121000D02*
D03*
X302000Y139000D02*
D03*
X200000Y85000D02*
D03*
X285000Y159000D02*
D03*
X332000Y156000D02*
D03*
X268500Y158500D02*
D03*
X246500Y157500D02*
D03*
X203000Y133500D02*
D03*
X242500Y57500D02*
D03*
X196000Y153000D02*
D03*
X303500Y159000D02*
D03*
X212000Y162500D02*
D03*
X310500Y162000D02*
D03*
X190500Y125500D02*
D03*
X340500Y124000D02*
D03*
X224000Y-500D02*
D03*
X339500Y88000D02*
D03*
X198000Y1000D02*
D03*
X315500Y88000D02*
D03*
X206000Y1000D02*
D03*
X318000Y108500D02*
D03*
X265000Y-3000D02*
D03*
X291500Y113000D02*
D03*
X248500Y2500D02*
D03*
X261000Y112000D02*
D03*
X237500Y23500D02*
D03*
X258000Y129500D02*
D03*
X263000Y23500D02*
D03*
X283000Y129000D02*
D03*
X263500Y55500D02*
D03*
X251000Y100000D02*
D03*
X250000Y75000D02*
D03*
X449100Y43000D02*
D03*
Y262300D02*
D03*
X442800Y52000D02*
D03*
Y262200D02*
D03*
X528000Y262700D02*
D03*
X518500Y265600D02*
D03*
X433500Y224200D02*
D03*
Y132500D02*
D03*
X669000Y253500D02*
D03*
X685500Y336000D02*
D03*
X694700Y137400D02*
D03*
X730700D02*
D03*
X971500Y273000D02*
D03*
X807700Y192400D02*
D03*
X808200Y251400D02*
D03*
X774500Y53500D02*
D03*
X866000Y211500D02*
D03*
X790000Y54500D02*
D03*
X884000Y223500D02*
D03*
X779000Y74500D02*
D03*
X885000Y232500D02*
D03*
X785500Y80500D02*
D03*
X875500Y222000D02*
D03*
X780000Y88000D02*
D03*
X882500Y177500D02*
D03*
X802000Y106000D02*
D03*
X880500Y205000D02*
D03*
X829000Y108500D02*
D03*
X868000Y173000D02*
D03*
X807500Y117500D02*
D03*
X852000Y172500D02*
D03*
X827500Y125000D02*
D03*
X859500Y160500D02*
D03*
X806500Y124500D02*
D03*
X868500Y163500D02*
D03*
X811000Y206500D02*
D03*
X852500Y152500D02*
D03*
X828500Y210000D02*
D03*
X864000Y140500D02*
D03*
X820500Y197000D02*
D03*
X820000Y183000D02*
D03*
X440000Y46000D02*
D03*
Y268000D02*
D03*
X446000Y49000D02*
D03*
Y265500D02*
D03*
X675500Y306000D02*
D03*
X685200Y133000D02*
D03*
X775000Y138500D02*
D03*
X836000Y184500D02*
D03*
X798000Y378000D02*
D03*
X840500Y229500D02*
D03*
X820500Y230000D02*
D03*
X549500Y280500D02*
D03*
X643000Y357500D02*
D03*
X474000Y303000D02*
D03*
Y265000D02*
D03*
X469500Y314500D02*
D03*
X471100Y262200D02*
D03*
X465200Y318500D02*
D03*
X468000Y265000D02*
D03*
X461000Y323000D02*
D03*
X464900Y262000D02*
D03*
X846200Y140900D02*
D03*
X1079500Y253500D02*
D03*
X70000Y356000D02*
D03*
X113000D02*
D03*
X616000Y355000D02*
D03*
Y369000D02*
D03*
X833000Y290000D02*
D03*
X738700Y154400D02*
D03*
X679200D02*
D03*
Y216400D02*
D03*
X484700Y214900D02*
D03*
X471200Y219300D02*
D03*
X509000Y222900D02*
D03*
X507500Y122000D02*
D03*
X509000Y262000D02*
D03*
X473500Y336000D02*
D03*
X486000Y697500D02*
D03*
X365000Y336900D02*
D03*
X269500Y364900D02*
D03*
X279000Y571900D02*
D03*
X499000Y682000D02*
D03*
X483500Y343000D02*
D03*
X557200Y343400D02*
D03*
X458000Y675000D02*
D03*
Y412000D02*
D03*
Y365000D02*
D03*
X434000D02*
D03*
X381500D02*
D03*
X415000Y290000D02*
D03*
X452000Y202400D02*
D03*
Y214500D02*
D03*
X459700Y199400D02*
D03*
Y223000D02*
D03*
X770500Y231000D02*
D03*
Y160500D02*
D03*
X474500Y224800D02*
D03*
X487600Y222400D02*
D03*
X616700Y218900D02*
D03*
Y132400D02*
D03*
X770500Y133900D02*
D03*
X380000Y269900D02*
D03*
X373700D02*
D03*
X367700D02*
D03*
X360200Y96900D02*
D03*
X493200D02*
D03*
X468000Y222500D02*
D03*
X475700Y85900D02*
D03*
X381700D02*
D03*
X376000Y215500D02*
D03*
X391200Y276400D02*
D03*
X383200Y265900D02*
D03*
X369200Y71900D02*
D03*
X599700Y106900D02*
D03*
Y127400D02*
D03*
X763700D02*
D03*
X765200Y258900D02*
D03*
X376700Y265900D02*
D03*
X366200Y80400D02*
D03*
X612200Y114900D02*
D03*
Y174400D02*
D03*
X749700D02*
D03*
X756500Y241000D02*
D03*
X370700Y265900D02*
D03*
X363200Y77400D02*
D03*
X607200Y110900D02*
D03*
Y170900D02*
D03*
X394200Y280900D02*
D03*
X383000Y221500D02*
D03*
X778500Y363000D02*
D03*
X775000Y357500D02*
D03*
X781500Y353000D02*
D03*
X772500Y367500D02*
D03*
X749000Y362000D02*
D03*
X816000Y352000D02*
D03*
X747500Y346000D02*
D03*
X817000Y336000D02*
D03*
X815000Y368000D02*
D03*
X820000Y362000D02*
D03*
X817000Y341000D02*
D03*
X759500Y322500D02*
D03*
X751500Y325000D02*
D03*
X750000Y333000D02*
D03*
X427100Y265100D02*
D03*
X414000Y162000D02*
D03*
X433500Y265100D02*
D03*
X422500Y177500D02*
D03*
X430100Y261800D02*
D03*
X418000Y172000D02*
D03*
X424000Y261900D02*
D03*
X410000Y167500D02*
D03*
X312500Y180500D02*
D03*
X335500Y196500D02*
D03*
X373200Y190500D02*
D03*
Y91500D02*
D03*
X470000D02*
D03*
X462700Y214400D02*
D03*
X426900Y224600D02*
D03*
Y107500D02*
D03*
D194*
X750600Y425800D02*
D03*
M02*
