G04 Layer_Color=16711935*
%FSLAX25Y25*%
%MOIN*%
G70*
G01*
G75*
%ADD46C,0.01000*%
%ADD56C,0.00100*%
%ADD112C,0.00394*%
%ADD113C,0.00800*%
%ADD119C,0.00500*%
D46*
X5700Y113900D02*
Y132900D01*
X14700D01*
Y113900D02*
Y132900D01*
X5700Y113900D02*
X14700D01*
X-23500Y-20000D02*
X1099500D01*
Y720000D01*
X-23500D02*
X1099500D01*
X-23500Y-20000D02*
Y720000D01*
D56*
X844594Y326669D02*
X846169Y325095D01*
X844594Y316827D02*
X846169Y315252D01*
X844594Y316827D02*
X849713Y321945D01*
X854831Y346748D02*
X856406Y345173D01*
X851287Y340055D02*
X856406Y345173D01*
X844594Y326669D02*
X849713Y331787D01*
X846169Y325095D02*
X851287Y330213D01*
X846169Y315252D02*
X851287Y320370D01*
X849713Y341630D02*
X854831Y346748D01*
D112*
X548315Y643207D02*
Y656593D01*
X537685Y643207D02*
X548315D01*
X537685D02*
Y656593D01*
X548315D01*
X335185D02*
X345815D01*
X335185Y643207D02*
Y656593D01*
Y643207D02*
X345815D01*
Y656593D01*
X561815Y643207D02*
Y656593D01*
X551185Y643207D02*
X561815D01*
X551185D02*
Y656593D01*
X561815D01*
X348685D02*
X359315D01*
X348685Y643207D02*
Y656593D01*
Y643207D02*
X359315D01*
Y656593D01*
X622185Y409207D02*
Y422593D01*
X632815D01*
Y409207D02*
Y422593D01*
X622185Y409207D02*
X632815D01*
X419685D02*
X430315D01*
Y422593D01*
X419685D02*
X430315D01*
X419685Y409207D02*
Y422593D01*
X608685Y409207D02*
Y422593D01*
X619315D01*
Y409207D02*
Y422593D01*
X608685Y409207D02*
X619315D01*
X406185D02*
X416815D01*
Y422593D01*
X406185D02*
X416815D01*
X406185Y409207D02*
Y422593D01*
X595185Y409207D02*
Y422593D01*
X605815D01*
Y409207D02*
Y422593D01*
X595185Y409207D02*
X605815D01*
X392685D02*
X403315D01*
Y422593D01*
X392685D02*
X403315D01*
X392685Y409207D02*
Y422593D01*
X332315Y643207D02*
Y656593D01*
X321685Y643207D02*
X332315D01*
X321685D02*
Y656593D01*
X332315D01*
X524185D02*
X534815D01*
X524185Y643207D02*
Y656593D01*
Y643207D02*
X534815D01*
Y656593D01*
D113*
X8000Y118000D02*
X11999D01*
Y119999D01*
X11332Y120666D01*
X9999D01*
X9333Y119999D01*
Y118000D01*
Y119333D02*
X8000Y120666D01*
X11999Y121999D02*
Y124664D01*
X11332D01*
X8666Y121999D01*
X8000D01*
Y128663D02*
Y125997D01*
X10666Y128663D01*
X11332D01*
X11999Y127997D01*
Y126664D01*
X11332Y125997D01*
D119*
X541500Y645000D02*
X545499D01*
Y646999D01*
X544832Y647666D01*
X543499D01*
X542833Y646999D01*
Y645000D01*
Y646333D02*
X541500Y647666D01*
Y648999D02*
Y650332D01*
Y649665D01*
X545499D01*
X544832Y648999D01*
Y652331D02*
X545499Y652997D01*
Y654330D01*
X544832Y654997D01*
X542166D01*
X541500Y654330D01*
Y652997D01*
X542166Y652331D01*
X544832D01*
X338500Y647000D02*
X342499D01*
Y648999D01*
X341832Y649666D01*
X340499D01*
X339833Y648999D01*
Y647000D01*
Y648333D02*
X338500Y649666D01*
X339166Y650999D02*
X338500Y651665D01*
Y652998D01*
X339166Y653664D01*
X341832D01*
X342499Y652998D01*
Y651665D01*
X341832Y650999D01*
X341166D01*
X340499Y651665D01*
Y653664D01*
X554500Y647000D02*
X558499D01*
Y648999D01*
X557832Y649666D01*
X556499D01*
X555833Y648999D01*
Y647000D01*
Y648333D02*
X554500Y649666D01*
X558499Y650999D02*
Y653664D01*
X557832D01*
X555166Y650999D01*
X554500D01*
X352500Y647000D02*
X356499D01*
Y648999D01*
X355832Y649666D01*
X354499D01*
X353833Y648999D01*
Y647000D01*
Y648333D02*
X352500Y649666D01*
X356499Y653664D02*
X355832Y652332D01*
X354499Y650999D01*
X353166D01*
X352500Y651665D01*
Y652998D01*
X353166Y653664D01*
X353833D01*
X354499Y652998D01*
Y650999D01*
X625500Y411000D02*
X629499D01*
Y412999D01*
X628832Y413666D01*
X627499D01*
X626833Y412999D01*
Y411000D01*
Y412333D02*
X625500Y413666D01*
Y417664D02*
Y414999D01*
X628166Y417664D01*
X628832D01*
X629499Y416998D01*
Y415665D01*
X628832Y414999D01*
X625500Y420997D02*
X629499D01*
X627499Y418997D01*
Y421663D01*
X423000Y410500D02*
X426999D01*
Y412499D01*
X426332Y413166D01*
X424999D01*
X424333Y412499D01*
Y410500D01*
Y411833D02*
X423000Y413166D01*
Y417165D02*
Y414499D01*
X425666Y417165D01*
X426332D01*
X426999Y416498D01*
Y415165D01*
X426332Y414499D01*
Y418497D02*
X426999Y419164D01*
Y420497D01*
X426332Y421163D01*
X425666D01*
X424999Y420497D01*
Y419830D01*
Y420497D01*
X424333Y421163D01*
X423666D01*
X423000Y420497D01*
Y419164D01*
X423666Y418497D01*
X612000Y410500D02*
X615999D01*
Y412499D01*
X615332Y413166D01*
X613999D01*
X613333Y412499D01*
Y410500D01*
Y411833D02*
X612000Y413166D01*
Y417165D02*
Y414499D01*
X614666Y417165D01*
X615332D01*
X615999Y416498D01*
Y415165D01*
X615332Y414499D01*
X612000Y421163D02*
Y418497D01*
X614666Y421163D01*
X615332D01*
X615999Y420497D01*
Y419164D01*
X615332Y418497D01*
X409500Y411500D02*
X413499D01*
Y413499D01*
X412832Y414166D01*
X411499D01*
X410833Y413499D01*
Y411500D01*
Y412833D02*
X409500Y414166D01*
Y418164D02*
Y415499D01*
X412166Y418164D01*
X412832D01*
X413499Y417498D01*
Y416165D01*
X412832Y415499D01*
X409500Y419497D02*
Y420830D01*
Y420164D01*
X413499D01*
X412832Y419497D01*
X598500Y411500D02*
X602499D01*
Y413499D01*
X601832Y414166D01*
X600499D01*
X599833Y413499D01*
Y411500D01*
Y412833D02*
X598500Y414166D01*
Y415499D02*
Y416832D01*
Y416165D01*
X602499D01*
X601832Y415499D01*
X599166Y418831D02*
X598500Y419497D01*
Y420830D01*
X599166Y421497D01*
X601832D01*
X602499Y420830D01*
Y419497D01*
X601832Y418831D01*
X601166D01*
X600499Y419497D01*
Y421497D01*
X396500Y411000D02*
X400499D01*
Y412999D01*
X399832Y413666D01*
X398499D01*
X397833Y412999D01*
Y411000D01*
Y412333D02*
X396500Y413666D01*
Y414999D02*
Y416332D01*
Y415665D01*
X400499D01*
X399832Y414999D01*
Y418331D02*
X400499Y418997D01*
Y420330D01*
X399832Y420997D01*
X399166D01*
X398499Y420330D01*
X397833Y420997D01*
X397166D01*
X396500Y420330D01*
Y418997D01*
X397166Y418331D01*
X397833D01*
X398499Y418997D01*
X399166Y418331D01*
X399832D01*
X398499Y418997D02*
Y420330D01*
X324500Y645000D02*
X328499D01*
Y646999D01*
X327832Y647666D01*
X326499D01*
X325833Y646999D01*
Y645000D01*
Y646333D02*
X324500Y647666D01*
Y648999D02*
Y650332D01*
Y649665D01*
X328499D01*
X327832Y648999D01*
Y652331D02*
X328499Y652997D01*
Y654330D01*
X327832Y654997D01*
X327166D01*
X326499Y654330D01*
Y653664D01*
Y654330D01*
X325833Y654997D01*
X325166D01*
X324500Y654330D01*
Y652997D01*
X325166Y652331D01*
X527500Y645000D02*
X531499D01*
Y646999D01*
X530832Y647666D01*
X529499D01*
X528833Y646999D01*
Y645000D01*
Y646333D02*
X527500Y647666D01*
Y648999D02*
Y650332D01*
Y649665D01*
X531499D01*
X530832Y648999D01*
X527500Y654997D02*
Y652331D01*
X530166Y654997D01*
X530832D01*
X531499Y654330D01*
Y652997D01*
X530832Y652331D01*
M02*
