G04 Layer_Color=65535*
%FSLAX25Y25*%
%MOIN*%
G70*
G01*
G75*
%ADD46C,0.01000*%
%ADD49C,0.01500*%
%ADD56C,0.00100*%
%ADD106C,0.00787*%
%ADD110C,0.00591*%
%ADD111C,0.00700*%
%ADD112C,0.00394*%
%ADD114C,0.00600*%
%ADD119C,0.00500*%
%ADD197C,0.00394*%
%ADD198C,0.00000*%
%ADD199C,0.00400*%
%ADD200C,0.00050*%
D46*
X443500Y179000D02*
G03*
X443500Y179000I-197J0D01*
G01*
X296362Y152831D02*
G03*
X296362Y152831I-984J0D01*
G01*
X790439Y459587D02*
X927939D01*
Y686087D01*
X789939D02*
X927939D01*
X789939Y460087D02*
X789939Y686087D01*
X789939Y460087D02*
X790439Y459587D01*
X999800Y336800D02*
X1002500D01*
Y311300D02*
Y336800D01*
X992600Y311300D02*
X1002500D01*
X992500Y311400D02*
X992600Y311300D01*
X992500Y311400D02*
Y336800D01*
X995300D01*
X997500Y335800D02*
Y337700D01*
X996500Y336800D02*
X998300D01*
X471078Y334500D02*
X511078D01*
Y304500D02*
Y334500D01*
X471078Y304500D02*
X511078D01*
X471078D02*
Y334500D01*
X711500Y203000D02*
Y286000D01*
X747500D01*
Y203000D02*
Y286000D01*
X711500Y203000D02*
X747500D01*
X145878Y-10185D02*
Y26315D01*
Y-10185D02*
X228878D01*
Y26315D01*
X145878D02*
X228878D01*
X441000Y176500D02*
Y191500D01*
Y176500D02*
X451000D01*
Y191500D01*
X441000D02*
X451000D01*
X124500Y175500D02*
X159500D01*
X124500Y148000D02*
Y175500D01*
Y148000D02*
X159500D01*
Y175500D01*
X292378Y149815D02*
X337378D01*
Y184815D01*
X292378D02*
X337378D01*
X292378Y149815D02*
Y184815D01*
X297378Y147315D02*
Y147815D01*
X-16622Y155815D02*
X37378D01*
X-16622Y91815D02*
Y155815D01*
Y91815D02*
X37378D01*
Y155815D01*
X1053500Y51500D02*
X1062500D01*
Y39500D02*
Y51500D01*
X1053500Y39500D02*
X1062500D01*
X1053500D02*
Y51500D01*
X268122Y102685D02*
X297122D01*
Y75185D02*
Y102685D01*
X268122Y75185D02*
X297122D01*
X268122D02*
Y102685D01*
X55100Y233500D02*
X76000D01*
X55000Y233400D02*
X55100Y233500D01*
X55000Y198500D02*
Y233400D01*
Y198500D02*
X76000D01*
Y233500D01*
X1078600Y284300D02*
Y361800D01*
X1013600D02*
X1078600D01*
X1013600Y281800D02*
Y361800D01*
Y281800D02*
X1078600D01*
Y284300D01*
X429000Y191500D02*
X437000D01*
X429000Y176500D02*
Y191500D01*
Y176500D02*
X437000D01*
Y191500D01*
X614000Y696500D02*
X614500Y696000D01*
Y676500D02*
Y696000D01*
X599500Y676500D02*
X614500D01*
X599500D02*
Y696500D01*
X614000D01*
X397378Y568500D02*
Y585500D01*
X355878D02*
X397378D01*
X355878Y568500D02*
Y585500D01*
Y568500D02*
X397378D01*
X355878Y582000D02*
X397378D01*
X-15000Y360500D02*
Y480000D01*
Y360500D02*
X204500D01*
Y480000D01*
X-15000D02*
X204500D01*
X604384Y43045D02*
Y63045D01*
Y43045D02*
X644384D01*
Y63045D01*
X604384D02*
X644384D01*
X384778Y102415D02*
Y192415D01*
Y102415D02*
X404778D01*
Y192415D01*
X384778D02*
X404778D01*
X894000Y144500D02*
Y238000D01*
Y144500D02*
X1066000D01*
Y238500D01*
X894500D02*
X1066000D01*
X894000Y238000D02*
X894500Y238500D01*
X214000Y330000D02*
Y340000D01*
Y330000D02*
X234000D01*
Y340000D01*
X214000D02*
X234000D01*
X-17722Y229915D02*
X36278D01*
Y193915D02*
Y229915D01*
X-17722Y193915D02*
X36278D01*
X-17722D02*
Y229915D01*
X1004500Y86000D02*
Y137000D01*
Y86000D02*
X1004600Y85900D01*
X1055500D01*
Y137000D01*
X1004500D02*
X1055500D01*
X176500Y181000D02*
X178000Y179500D01*
X183000D01*
X184500Y181000D01*
Y199000D01*
X176500Y181000D02*
X184500D01*
X176500D02*
Y199000D01*
X184500D01*
X984700Y300847D02*
X985200Y301346D01*
X975200Y300847D02*
X984700D01*
X975200Y298847D02*
Y318347D01*
X985200D01*
Y298847D02*
Y318347D01*
X975200Y298847D02*
X985200D01*
X34378Y524815D02*
Y615815D01*
X-12622Y524815D02*
X34378D01*
X-12622D02*
Y528815D01*
Y615815D01*
X-9122D01*
X34378D01*
X295000Y15000D02*
X345000D01*
Y-5000D02*
Y15000D01*
X295000Y-5000D02*
X345000D01*
X295000D02*
Y15000D01*
X420000Y5000D02*
X450000D01*
Y-5000D02*
Y5000D01*
X420000Y-5000D02*
X450000D01*
X420000D02*
Y5000D01*
X433878Y660000D02*
Y670000D01*
X314378Y660000D02*
X438378D01*
X314378D02*
Y670000D01*
X438378D01*
Y660000D02*
Y670000D01*
X220778Y589915D02*
Y644915D01*
X238778D01*
Y589915D02*
Y644915D01*
X220778Y589915D02*
X238778D01*
X708000Y334500D02*
X734000D01*
X708000Y320500D02*
Y334500D01*
Y320500D02*
X734000D01*
Y334500D01*
X710000Y320500D02*
Y334500D01*
X889000Y86500D02*
X960000D01*
X889000D02*
Y106500D01*
X960000D01*
Y86500D02*
Y106500D01*
X207000Y88000D02*
Y114000D01*
X193000D02*
X207000D01*
X193000Y88000D02*
Y114000D01*
Y88000D02*
X207000D01*
X193000Y112000D02*
X207000D01*
X218000Y128000D02*
X244000D01*
X218000Y114000D02*
Y128000D01*
Y114000D02*
X244000D01*
Y128000D01*
X220000Y114000D02*
Y128000D01*
X108000Y145000D02*
Y171000D01*
Y145000D02*
X122000D01*
Y171000D01*
X108000D02*
X122000D01*
X108000Y147000D02*
X122000D01*
X132500Y51500D02*
X158500D01*
X132500Y37500D02*
Y51500D01*
Y37500D02*
X158500D01*
Y51500D01*
X134500Y37500D02*
Y51500D01*
X243278Y589915D02*
Y644915D01*
X261278D01*
Y589915D02*
Y644915D01*
X243278Y589915D02*
X261278D01*
X199000Y590000D02*
Y645000D01*
X217000D01*
Y590000D02*
Y645000D01*
X199000Y590000D02*
X217000D01*
X521078Y395900D02*
Y405900D01*
X516578D02*
X640578D01*
Y395900D02*
Y405900D01*
X516578Y395900D02*
X640578D01*
X516578D02*
Y405900D01*
X636078Y660000D02*
Y670000D01*
X516578Y660000D02*
X640578D01*
X516578D02*
Y670000D01*
X640578D01*
Y660000D02*
Y670000D01*
X318878Y395900D02*
Y405900D01*
X314378D02*
X438378D01*
Y395900D02*
Y405900D01*
X314378Y395900D02*
X438378D01*
X314378D02*
Y405900D01*
X302000Y131000D02*
X332000D01*
Y121000D02*
Y131000D01*
X302000Y121000D02*
X332000D01*
X302000D02*
Y131000D01*
X148700Y125900D02*
X150200Y127400D01*
Y132400D01*
X148700Y133900D02*
X150200Y132400D01*
X130700Y133900D02*
X148700D01*
Y125900D02*
Y133900D01*
X130700Y125900D02*
X148700D01*
X130700D02*
Y133900D01*
X826500Y77500D02*
Y128500D01*
Y77500D02*
X826600Y77400D01*
X877500D01*
Y128500D01*
X826500D02*
X877500D01*
X33200Y628200D02*
Y679200D01*
X33100Y679300D02*
X33200Y679200D01*
X-17800Y679300D02*
X33100D01*
X-17800Y628200D02*
Y679300D01*
Y628200D02*
X33200D01*
X211000Y32000D02*
X221000D01*
Y52000D01*
X211000D02*
X221000D01*
X211000Y32000D02*
Y52000D01*
X214000Y474000D02*
X224000D01*
X214000Y454000D02*
Y474000D01*
Y454000D02*
X224000D01*
Y474000D01*
X561200Y480400D02*
Y497400D01*
Y480400D02*
X602700D01*
Y497400D01*
X561200D02*
X602700D01*
X561200Y483900D02*
X602700D01*
X599578Y568500D02*
Y585500D01*
X558078D02*
X599578D01*
X558078Y568500D02*
Y585500D01*
Y568500D02*
X599578D01*
X558078Y582000D02*
X599578D01*
X359000Y480400D02*
Y497400D01*
Y480400D02*
X400500D01*
Y497400D01*
X359000D02*
X400500D01*
X359000Y483900D02*
X400500D01*
X342278Y370415D02*
X342778Y369915D01*
X342278Y370415D02*
Y389915D01*
X357278D01*
Y369915D02*
Y389915D01*
X342778Y369915D02*
X357278D01*
X544778Y370415D02*
X545278Y369915D01*
X544778Y370415D02*
Y389915D01*
X559778D01*
Y369915D02*
Y389915D01*
X545278Y369915D02*
X559778D01*
X411500Y696500D02*
X412000Y696000D01*
Y676500D02*
Y696000D01*
X397000Y676500D02*
X412000D01*
X397000D02*
Y696500D01*
X411500D01*
X967100Y285200D02*
Y362700D01*
X902100D02*
X967100D01*
X902100Y282700D02*
Y362700D01*
Y282700D02*
X967100D01*
Y285200D01*
X238700Y76685D02*
Y111685D01*
X211200D02*
X238700D01*
X211200Y76685D02*
Y111685D01*
Y76685D02*
X238700D01*
X885500Y287200D02*
X888200D01*
X885500D02*
Y312700D01*
X895400D01*
X895500Y312600D01*
Y287200D02*
Y312600D01*
X892700Y287200D02*
X895500D01*
X890500Y286300D02*
Y288200D01*
X889700Y287200D02*
X891500D01*
X892800Y339800D02*
X895500D01*
Y314300D02*
Y339800D01*
X885600Y314300D02*
X895500D01*
X885500Y314400D02*
X885600Y314300D01*
X885500Y314400D02*
Y339800D01*
X888300D01*
X890500Y338800D02*
Y340700D01*
X889500Y339800D02*
X891300D01*
X992500Y283700D02*
X995200D01*
X992500D02*
Y309200D01*
X1002400D01*
X1002500Y309100D01*
Y283700D02*
Y309100D01*
X999700Y283700D02*
X1002500D01*
X997500Y282800D02*
Y284700D01*
X996700Y283700D02*
X998500D01*
X152200Y125900D02*
Y133900D01*
Y125900D02*
X167200D01*
Y133900D01*
X152200D02*
X167200D01*
X186500Y189000D02*
X201500D01*
Y181000D02*
Y189000D01*
X186500Y181000D02*
X201500D01*
X186500D02*
Y189000D01*
X341000Y145500D02*
X349000D01*
Y160500D01*
X341000D02*
X349000D01*
X341000Y145500D02*
Y160500D01*
X439700Y160400D02*
X454700D01*
X439700D02*
Y168400D01*
X454700D01*
Y160400D02*
Y168400D01*
X871700Y301847D02*
X881700D01*
Y321346D01*
X871700D02*
X881700D01*
X871700Y301847D02*
Y321346D01*
Y303847D02*
X881200D01*
X881700Y304346D01*
X562778Y373915D02*
Y385915D01*
Y373915D02*
X571778D01*
Y385915D01*
X562778D02*
X571778D01*
X812500Y82000D02*
X821500D01*
X812500D02*
Y94000D01*
X821500D01*
Y82000D02*
Y94000D01*
X590500Y349000D02*
Y361000D01*
Y349000D02*
X599500D01*
Y361000D01*
X590500D02*
X599500D01*
X514000Y286500D02*
X523000D01*
Y274500D02*
Y286500D01*
X514000Y274500D02*
X523000D01*
X514000D02*
Y286500D01*
X589000Y672000D02*
Y684000D01*
Y672000D02*
X598000D01*
Y684000D01*
X589000D02*
X598000D01*
X360500Y390500D02*
X369500D01*
Y378500D02*
Y390500D01*
X360500Y378500D02*
X369500D01*
X360500D02*
Y390500D01*
X386878Y679000D02*
Y691000D01*
Y679000D02*
X395878D01*
Y691000D01*
X386878D02*
X395878D01*
X626500Y295000D02*
X635500D01*
X626500D02*
Y307000D01*
X635500D01*
Y295000D02*
Y307000D01*
X664500Y272000D02*
Y284000D01*
Y272000D02*
X673500D01*
Y284000D01*
X664500D02*
X673500D01*
X17700Y240700D02*
Y323700D01*
X53700D01*
Y240700D02*
Y323700D01*
X17700Y240700D02*
X53700D01*
X755000Y13000D02*
X791000D01*
Y96000D01*
X755000D02*
X791000D01*
X755000Y13000D02*
Y96000D01*
X-23500Y-20000D02*
X1099500D01*
Y720000D01*
X-23500D02*
X1099500D01*
X-23500Y-20000D02*
Y720000D01*
X1007202Y457100D02*
X1013200D01*
Y461099D01*
Y467097D02*
Y463098D01*
X1009201Y467097D01*
X1008202D01*
X1007202Y466097D01*
Y464098D01*
X1008202Y463098D01*
X1007202Y616400D02*
X1013200D01*
Y620399D01*
Y626397D02*
Y622398D01*
X1009201Y626397D01*
X1008202D01*
X1007202Y625397D01*
Y623398D01*
X1008202Y622398D01*
X1013200Y628396D02*
X1007202D01*
X1013200Y632395D01*
X1007202D01*
X707002Y557000D02*
X713000D01*
Y560999D01*
Y562998D02*
Y564997D01*
Y563998D01*
X707002D01*
X708002Y562998D01*
X855902Y576999D02*
X854902Y575999D01*
Y574000D01*
X855902Y573000D01*
X859900D01*
X860900Y574000D01*
Y575999D01*
X859900Y576999D01*
X860900Y578998D02*
Y580997D01*
Y579998D01*
X854902D01*
X855902Y578998D01*
X994102Y316800D02*
Y320799D01*
X995102D01*
X999100Y316800D01*
X1000100D01*
Y320799D01*
X994102Y322798D02*
X1000100D01*
Y325797D01*
X999100Y326797D01*
X995102D01*
X994102Y325797D01*
Y322798D01*
X1000100Y328796D02*
Y330796D01*
Y329796D01*
X994102D01*
X995102Y328796D01*
X487000Y323498D02*
Y318500D01*
X488000Y317500D01*
X489999D01*
X490999Y318500D01*
Y323498D01*
X492998Y318500D02*
X493998Y317500D01*
X495997D01*
X496997Y318500D01*
Y322498D01*
X495997Y323498D01*
X493998D01*
X492998Y322498D01*
Y321499D01*
X493998Y320499D01*
X496997D01*
X727502Y235500D02*
X732500D01*
X733500Y236500D01*
Y238499D01*
X732500Y239499D01*
X727502D01*
X733500Y244497D02*
X727502D01*
X730501Y241498D01*
Y245497D01*
X176878Y9313D02*
Y4315D01*
X177878Y3315D01*
X179877D01*
X180877Y4315D01*
Y9313D01*
X182876Y3315D02*
X184875D01*
X183876D01*
Y9313D01*
X182876Y8313D01*
X187874Y9313D02*
X191873D01*
Y8313D01*
X187874Y4315D01*
Y3315D01*
X138502Y155000D02*
X143500D01*
X144500Y156000D01*
Y157999D01*
X143500Y158999D01*
X138502D01*
X144500Y160998D02*
Y162997D01*
Y161998D01*
X138502D01*
X139502Y160998D01*
X144500Y168995D02*
X138502D01*
X141501Y165996D01*
Y169995D01*
X307500Y170998D02*
Y166000D01*
X308500Y165000D01*
X310499D01*
X311499Y166000D01*
Y170998D01*
X313498Y165000D02*
X315497D01*
X314498D01*
Y170998D01*
X313498Y169998D01*
X318496D02*
X319496Y170998D01*
X321496D01*
X322495Y169998D01*
Y168999D01*
X321496Y167999D01*
X320496D01*
X321496D01*
X322495Y166999D01*
Y166000D01*
X321496Y165000D01*
X319496D01*
X318496Y166000D01*
X-4998Y116000D02*
X0D01*
X1000Y117000D01*
Y118999D01*
X0Y119999D01*
X-4998D01*
X1000Y121998D02*
Y123997D01*
Y122998D01*
X-4998D01*
X-3998Y121998D01*
X1000Y130995D02*
Y126996D01*
X-2999Y130995D01*
X-3998D01*
X-4998Y129996D01*
Y127996D01*
X-3998Y126996D01*
X1051500Y36998D02*
X1055499D01*
X1053499D01*
Y31000D01*
X1057498D02*
Y36998D01*
X1060497D01*
X1061497Y35998D01*
Y33999D01*
X1060497Y32999D01*
X1057498D01*
X1063496Y31000D02*
X1065495D01*
X1064496D01*
Y36998D01*
X1063496Y35998D01*
X279999Y91998D02*
X278999Y92998D01*
X277000D01*
X276000Y91998D01*
Y90999D01*
X277000Y89999D01*
X278999D01*
X279999Y88999D01*
Y88000D01*
X278999Y87000D01*
X277000D01*
X276000Y88000D01*
X281998Y92998D02*
Y87000D01*
X283997Y88999D01*
X285997Y87000D01*
Y92998D01*
X287996Y87000D02*
X289996D01*
X288996D01*
Y92998D01*
X287996Y91998D01*
X63502Y216499D02*
X62502Y215499D01*
Y213500D01*
X63502Y212500D01*
X64501D01*
X65501Y213500D01*
Y215499D01*
X66501Y216499D01*
X67500D01*
X68500Y215499D01*
Y213500D01*
X67500Y212500D01*
X68500Y218498D02*
Y220497D01*
Y219498D01*
X62502D01*
X63502Y218498D01*
X1049000Y314500D02*
X1043002D01*
Y317499D01*
X1044002Y318499D01*
X1046001D01*
X1047001Y317499D01*
Y314500D01*
Y316499D02*
X1049000Y318499D01*
X1043002Y320498D02*
X1044002D01*
X1046001Y322497D01*
X1044002Y324497D01*
X1043002D01*
X1046001Y322497D02*
X1049000D01*
Y326496D02*
Y328496D01*
Y327496D01*
X1043002D01*
X1044002Y326496D01*
X435000Y179000D02*
X431001D01*
Y180999D01*
X431668Y181666D01*
X433001D01*
X433667Y180999D01*
Y179000D01*
Y180333D02*
X435000Y181666D01*
X431001Y182999D02*
Y185664D01*
X431668D01*
X434334Y182999D01*
X435000D01*
X431668Y186997D02*
X431001Y187664D01*
Y188997D01*
X431668Y189663D01*
X432334D01*
X433001Y188997D01*
Y188330D01*
Y188997D01*
X433667Y189663D01*
X434334D01*
X435000Y188997D01*
Y187664D01*
X434334Y186997D01*
X610500Y679000D02*
X604502D01*
Y681999D01*
X605502Y682999D01*
X607501D01*
X608501Y681999D01*
Y679000D01*
Y680999D02*
X610500Y682999D01*
Y688997D02*
Y684998D01*
X606501Y688997D01*
X605502D01*
X604502Y687997D01*
Y685998D01*
X605502Y684998D01*
Y690996D02*
X604502Y691996D01*
Y693995D01*
X605502Y694995D01*
X606501D01*
X607501Y693995D01*
X608501Y694995D01*
X609500D01*
X610500Y693995D01*
Y691996D01*
X609500Y690996D01*
X608501D01*
X607501Y691996D01*
X606501Y690996D01*
X605502D01*
X607501Y691996D02*
Y693995D01*
X376499Y573500D02*
Y577498D01*
X375499Y578498D01*
X373500D01*
X372500Y577498D01*
Y573500D01*
X373500Y572500D01*
X375499D01*
X374499Y574499D02*
X376499Y572500D01*
X375499D02*
X376499Y573500D01*
X378498Y572500D02*
X380497D01*
X379498D01*
Y578498D01*
X378498Y577498D01*
X68500Y423000D02*
Y428998D01*
X71499D01*
X72499Y427998D01*
Y425999D01*
X71499Y424999D01*
X68500D01*
X74498Y428998D02*
Y423000D01*
X76497Y424999D01*
X78497Y423000D01*
Y428998D01*
X80496Y423000D02*
X82495D01*
X81496D01*
Y428998D01*
X80496Y427998D01*
X620000Y50000D02*
Y55998D01*
X622999D01*
X623999Y54998D01*
Y52999D01*
X622999Y51999D01*
X620000D01*
X629997Y50000D02*
X625998D01*
X629997Y53999D01*
Y54998D01*
X628997Y55998D01*
X626998D01*
X625998Y54998D01*
X398000Y144000D02*
X392002D01*
Y146999D01*
X393002Y147999D01*
X395001D01*
X396001Y146999D01*
Y144000D01*
X398000Y149998D02*
Y151997D01*
Y150998D01*
X392002D01*
X393002Y149998D01*
X957500Y194498D02*
Y188500D01*
X961499D01*
X966497D02*
Y194498D01*
X963498Y191499D01*
X967497D01*
X930000Y153000D02*
X931999D01*
X931000D01*
Y158998D01*
X930000Y157998D01*
X219999Y337998D02*
X217999D01*
X218999D01*
Y333000D01*
X217999Y332000D01*
X217000D01*
X216000Y333000D01*
X221998Y332000D02*
Y337998D01*
X224997D01*
X225997Y336998D01*
Y334999D01*
X224997Y333999D01*
X221998D01*
X231995Y332000D02*
X227996D01*
X231995Y335999D01*
Y336998D01*
X230995Y337998D01*
X228996D01*
X227996Y336998D01*
X3499Y215998D02*
X1499D01*
X2499D01*
Y211000D01*
X1499Y210000D01*
X500D01*
X-500Y211000D01*
X9497Y210000D02*
X5498D01*
X9497Y213999D01*
Y214998D01*
X8497Y215998D01*
X6498D01*
X5498Y214998D01*
X451000Y246498D02*
Y240500D01*
Y243499D01*
X454999D01*
Y246498D01*
Y240500D01*
X460997Y246498D02*
X456998D01*
Y243499D01*
X458997Y244499D01*
X459997D01*
X460997Y243499D01*
Y241500D01*
X459997Y240500D01*
X457998D01*
X456998Y241500D01*
X1030499Y115998D02*
X1026500D01*
Y112999D01*
X1028499D01*
X1026500D01*
Y110000D01*
X1032498D02*
X1034497D01*
X1033498D01*
Y115998D01*
X1032498Y114998D01*
X178501Y187500D02*
X182500D01*
Y189499D01*
X181834Y190166D01*
X179168D01*
X178501Y189499D01*
Y187500D01*
Y191499D02*
Y194165D01*
X179168D01*
X181834Y191499D01*
X182500D01*
X977202Y304346D02*
X983200D01*
Y307346D01*
X982200Y308345D01*
X978202D01*
X977202Y307346D01*
Y304346D01*
Y314343D02*
Y310345D01*
X980201D01*
X979201Y312344D01*
Y313344D01*
X980201Y314343D01*
X982200D01*
X983200Y313344D01*
Y311344D01*
X982200Y310345D01*
X8002Y564999D02*
X7002Y563999D01*
Y562000D01*
X8002Y561000D01*
X12000D01*
X13000Y562000D01*
Y563999D01*
X12000Y564999D01*
X7002Y569997D02*
Y567998D01*
X8002Y566998D01*
X12000D01*
X13000Y567998D01*
Y569997D01*
X12000Y570997D01*
X8002D01*
X7002Y569997D01*
X13000Y572996D02*
X7002D01*
X13000Y576995D01*
X7002D01*
X13000Y578994D02*
Y580994D01*
Y579994D01*
X7002D01*
X8002Y578994D01*
X315999Y7998D02*
X314999Y8998D01*
X313000D01*
X312000Y7998D01*
Y4000D01*
X313000Y3000D01*
X314999D01*
X315999Y4000D01*
X317998Y3000D02*
Y8998D01*
X321997Y3000D01*
Y8998D01*
X323996D02*
X327995D01*
Y7998D01*
X323996Y4000D01*
Y3000D01*
X428499Y1998D02*
X427499Y2998D01*
X425500D01*
X424500Y1998D01*
Y-2000D01*
X425500Y-3000D01*
X427499D01*
X428499Y-2000D01*
X430498Y-3000D02*
Y2998D01*
X434497Y-3000D01*
Y2998D01*
X440495D02*
X436496D01*
Y-1D01*
X438495Y999D01*
X439495D01*
X440495Y-1D01*
Y-2000D01*
X439495Y-3000D01*
X437496D01*
X436496Y-2000D01*
X370999Y666998D02*
X369999Y667998D01*
X368000D01*
X367000Y666998D01*
Y663000D01*
X368000Y662000D01*
X369999D01*
X370999Y663000D01*
X372998Y662000D02*
Y667998D01*
X376997Y662000D01*
Y667998D01*
X378996Y662000D02*
X380995D01*
X379996D01*
Y667998D01*
X378996Y666998D01*
X121499Y621498D02*
X120499Y622498D01*
X118500D01*
X117500Y621498D01*
Y617500D01*
X118500Y616500D01*
X120499D01*
X121499Y617500D01*
X123498Y622498D02*
X127497D01*
Y621498D01*
X123498Y617500D01*
Y616500D01*
X226780Y614414D02*
X225780Y613414D01*
Y611415D01*
X226780Y610415D01*
X230778D01*
X231778Y611415D01*
Y613414D01*
X230778Y614414D01*
X226780Y616413D02*
X225780Y617413D01*
Y619412D01*
X226780Y620412D01*
X227779D01*
X228779Y619412D01*
Y618412D01*
Y619412D01*
X229779Y620412D01*
X230778D01*
X231778Y619412D01*
Y617413D01*
X230778Y616413D01*
X720499Y329498D02*
X719499Y330498D01*
X717500D01*
X716500Y329498D01*
Y325500D01*
X717500Y324500D01*
X719499D01*
X720499Y325500D01*
X722498Y324500D02*
X724497D01*
X723498D01*
Y330498D01*
X722498Y329498D01*
X727496Y324500D02*
X729496D01*
X728496D01*
Y330498D01*
X727496Y329498D01*
X921499Y98998D02*
X920499Y99998D01*
X918500D01*
X917500Y98998D01*
Y95000D01*
X918500Y94000D01*
X920499D01*
X921499Y95000D01*
X923498Y94000D02*
X925497D01*
X924498D01*
Y99998D01*
X923498Y98998D01*
X928496D02*
X929496Y99998D01*
X931495D01*
X932495Y98998D01*
Y95000D01*
X931495Y94000D01*
X929496D01*
X928496Y95000D01*
Y98998D01*
X198502Y95999D02*
X197502Y94999D01*
Y93000D01*
X198502Y92000D01*
X202500D01*
X203500Y93000D01*
Y94999D01*
X202500Y95999D01*
X197502Y97998D02*
Y101997D01*
X198502D01*
X202500Y97998D01*
X203500D01*
Y106995D02*
X197502D01*
X200501Y103996D01*
Y107995D01*
X230499Y122998D02*
X229499Y123998D01*
X227500D01*
X226500Y122998D01*
Y119000D01*
X227500Y118000D01*
X229499D01*
X230499Y119000D01*
X232498Y123998D02*
X236497D01*
Y122998D01*
X232498Y119000D01*
Y118000D01*
X238496Y122998D02*
X239496Y123998D01*
X241495D01*
X242495Y122998D01*
Y121999D01*
X241495Y120999D01*
X240495D01*
X241495D01*
X242495Y119999D01*
Y119000D01*
X241495Y118000D01*
X239496D01*
X238496Y119000D01*
X113002Y157499D02*
X112002Y156499D01*
Y154500D01*
X113002Y153500D01*
X117000D01*
X118000Y154500D01*
Y156499D01*
X117000Y157499D01*
X112002Y163497D02*
X113002Y161497D01*
X115001Y159498D01*
X117000D01*
X118000Y160498D01*
Y162497D01*
X117000Y163497D01*
X116001D01*
X115001Y162497D01*
Y159498D01*
X113002Y165496D02*
X112002Y166496D01*
Y168495D01*
X113002Y169495D01*
X114001D01*
X115001Y168495D01*
X116001Y169495D01*
X117000D01*
X118000Y168495D01*
Y166496D01*
X117000Y165496D01*
X116001D01*
X115001Y166496D01*
X114001Y165496D01*
X113002D01*
X115001Y166496D02*
Y168495D01*
X144999Y46498D02*
X143999Y47498D01*
X142000D01*
X141000Y46498D01*
Y42500D01*
X142000Y41500D01*
X143999D01*
X144999Y42500D01*
X150997Y47498D02*
X146998D01*
Y44499D01*
X148997Y45499D01*
X149997D01*
X150997Y44499D01*
Y42500D01*
X149997Y41500D01*
X147998D01*
X146998Y42500D01*
X152996Y47498D02*
X156995D01*
Y46498D01*
X152996Y42500D01*
Y41500D01*
X249280Y614414D02*
X248280Y613414D01*
Y611415D01*
X249280Y610415D01*
X253278D01*
X254278Y611415D01*
Y613414D01*
X253278Y614414D01*
X248280Y620412D02*
X249280Y618412D01*
X251279Y616413D01*
X253278D01*
X254278Y617413D01*
Y619412D01*
X253278Y620412D01*
X252279D01*
X251279Y619412D01*
Y616413D01*
X205002Y614499D02*
X204002Y613499D01*
Y611500D01*
X205002Y610500D01*
X209000D01*
X210000Y611500D01*
Y613499D01*
X209000Y614499D01*
X204002Y620497D02*
Y616498D01*
X207001D01*
X206001Y618497D01*
Y619497D01*
X207001Y620497D01*
X209000D01*
X210000Y619497D01*
Y617498D01*
X209000Y616498D01*
X573999Y402998D02*
X572999Y403998D01*
X571000D01*
X570000Y402998D01*
Y399000D01*
X571000Y398000D01*
X572999D01*
X573999Y399000D01*
X575998Y398000D02*
Y403998D01*
X579997Y398000D01*
Y403998D01*
X584995Y398000D02*
Y403998D01*
X581996Y400999D01*
X585995D01*
X572999Y666998D02*
X571999Y667998D01*
X570000D01*
X569000Y666998D01*
Y663000D01*
X570000Y662000D01*
X571999D01*
X572999Y663000D01*
X574998Y662000D02*
Y667998D01*
X578997Y662000D01*
Y667998D01*
X580996Y666998D02*
X581996Y667998D01*
X583995D01*
X584995Y666998D01*
Y665999D01*
X583995Y664999D01*
X582996D01*
X583995D01*
X584995Y663999D01*
Y663000D01*
X583995Y662000D01*
X581996D01*
X580996Y663000D01*
X368999Y402998D02*
X367999Y403998D01*
X366000D01*
X365000Y402998D01*
Y399000D01*
X366000Y398000D01*
X367999D01*
X368999Y399000D01*
X370998Y398000D02*
Y403998D01*
X374997Y398000D01*
Y403998D01*
X380995Y398000D02*
X376996D01*
X380995Y401999D01*
Y402998D01*
X379995Y403998D01*
X377996D01*
X376996Y402998D01*
X310499Y127998D02*
X309499Y128998D01*
X307500D01*
X306500Y127998D01*
Y124000D01*
X307500Y123000D01*
X309499D01*
X310499Y124000D01*
X312498Y123000D02*
Y128998D01*
X316497Y123000D01*
Y128998D01*
X322495D02*
X320496Y127998D01*
X318496Y125999D01*
Y124000D01*
X319496Y123000D01*
X321495D01*
X322495Y124000D01*
Y124999D01*
X321495Y125999D01*
X318496D01*
X136500Y131999D02*
Y128000D01*
X138499D01*
X139166Y128666D01*
Y131332D01*
X138499Y131999D01*
X136500D01*
X140499Y131332D02*
X141165Y131999D01*
X142498D01*
X143165Y131332D01*
Y130666D01*
X142498Y129999D01*
X143165Y129333D01*
Y128666D01*
X142498Y128000D01*
X141165D01*
X140499Y128666D01*
Y129333D01*
X141165Y129999D01*
X140499Y130666D01*
Y131332D01*
X141165Y129999D02*
X142498D01*
X852499Y107498D02*
X848500D01*
Y104499D01*
X850499D01*
X848500D01*
Y101500D01*
X854498Y106498D02*
X855498Y107498D01*
X857497D01*
X858497Y106498D01*
Y105499D01*
X857497Y104499D01*
X856497D01*
X857497D01*
X858497Y103499D01*
Y102500D01*
X857497Y101500D01*
X855498D01*
X854498Y102500D01*
X7999Y656998D02*
X4000D01*
Y653999D01*
X5999D01*
X4000D01*
Y651000D01*
X13997D02*
X9998D01*
X13997Y654999D01*
Y655998D01*
X12997Y656998D01*
X10998D01*
X9998Y655998D01*
X213002Y37999D02*
Y35999D01*
Y36999D01*
X218000D01*
X219000Y35999D01*
Y35000D01*
X218000Y34000D01*
X219000Y39998D02*
X213002D01*
Y42997D01*
X214002Y43997D01*
X216001D01*
X217001Y42997D01*
Y39998D01*
X219000Y48995D02*
X213002D01*
X216001Y45996D01*
Y49995D01*
X221998Y468001D02*
Y470001D01*
Y469001D01*
X217000D01*
X216000Y470001D01*
Y471000D01*
X217000Y472000D01*
X216000Y466002D02*
X221998D01*
Y463003D01*
X220998Y462003D01*
X218999D01*
X217999Y463003D01*
Y466002D01*
X220998Y460004D02*
X221998Y459004D01*
Y457005D01*
X220998Y456005D01*
X219999D01*
X218999Y457005D01*
Y458005D01*
Y457005D01*
X217999Y456005D01*
X217000D01*
X216000Y457005D01*
Y459004D01*
X217000Y460004D01*
X581499Y489000D02*
Y492998D01*
X580499Y493998D01*
X578500D01*
X577500Y492998D01*
Y489000D01*
X578500Y488000D01*
X580499D01*
X579499Y489999D02*
X581499Y488000D01*
X580499D02*
X581499Y489000D01*
X586497Y488000D02*
Y493998D01*
X583498Y490999D01*
X587497D01*
X577699Y574000D02*
Y577998D01*
X576699Y578998D01*
X574700D01*
X573700Y577998D01*
Y574000D01*
X574700Y573000D01*
X576699D01*
X575699Y574999D02*
X577699Y573000D01*
X576699D02*
X577699Y574000D01*
X579698Y577998D02*
X580698Y578998D01*
X582697D01*
X583697Y577998D01*
Y576999D01*
X582697Y575999D01*
X581697D01*
X582697D01*
X583697Y574999D01*
Y574000D01*
X582697Y573000D01*
X580698D01*
X579698Y574000D01*
X378999Y488000D02*
Y491998D01*
X377999Y492998D01*
X376000D01*
X375000Y491998D01*
Y488000D01*
X376000Y487000D01*
X377999D01*
X376999Y488999D02*
X378999Y487000D01*
X377999D02*
X378999Y488000D01*
X384997Y487000D02*
X380998D01*
X384997Y490999D01*
Y491998D01*
X383997Y492998D01*
X381998D01*
X380998Y491998D01*
X353000Y372500D02*
X347002D01*
Y375499D01*
X348002Y376499D01*
X350001D01*
X351001Y375499D01*
Y372500D01*
Y374499D02*
X353000Y376499D01*
X348002Y378498D02*
X347002Y379498D01*
Y381497D01*
X348002Y382497D01*
X349001D01*
X350001Y381497D01*
Y380497D01*
Y381497D01*
X351001Y382497D01*
X352000D01*
X353000Y381497D01*
Y379498D01*
X352000Y378498D01*
X347002Y388495D02*
X348002Y386495D01*
X350001Y384496D01*
X352000D01*
X353000Y385496D01*
Y387495D01*
X352000Y388495D01*
X351001D01*
X350001Y387495D01*
Y384496D01*
X555500Y372000D02*
X549502D01*
Y374999D01*
X550502Y375999D01*
X552501D01*
X553501Y374999D01*
Y372000D01*
Y373999D02*
X555500Y375999D01*
X550502Y377998D02*
X549502Y378998D01*
Y380997D01*
X550502Y381997D01*
X551501D01*
X552501Y380997D01*
Y379997D01*
Y380997D01*
X553501Y381997D01*
X554500D01*
X555500Y380997D01*
Y378998D01*
X554500Y377998D01*
X549502Y387995D02*
Y383996D01*
X552501D01*
X551501Y385996D01*
Y386995D01*
X552501Y387995D01*
X554500D01*
X555500Y386995D01*
Y384996D01*
X554500Y383996D01*
X408000Y679000D02*
X402002D01*
Y681999D01*
X403002Y682999D01*
X405001D01*
X406001Y681999D01*
Y679000D01*
Y680999D02*
X408000Y682999D01*
Y688997D02*
Y684998D01*
X404001Y688997D01*
X403002D01*
X402002Y687997D01*
Y685998D01*
X403002Y684998D01*
X407000Y690996D02*
X408000Y691996D01*
Y693995D01*
X407000Y694995D01*
X403002D01*
X402002Y693995D01*
Y691996D01*
X403002Y690996D01*
X404001D01*
X405001Y691996D01*
Y694995D01*
X937500Y315400D02*
X931502D01*
Y318399D01*
X932502Y319399D01*
X934501D01*
X935501Y318399D01*
Y315400D01*
Y317399D02*
X937500Y319399D01*
X931502Y321398D02*
X932502D01*
X934501Y323397D01*
X932502Y325397D01*
X931502D01*
X934501Y323397D02*
X937500D01*
Y331395D02*
Y327396D01*
X933501Y331395D01*
X932502D01*
X931502Y330395D01*
Y328396D01*
X932502Y327396D01*
X216500Y97998D02*
Y93000D01*
X217500Y92000D01*
X219499D01*
X220499Y93000D01*
Y97998D01*
X222498Y92000D02*
X224497D01*
X223498D01*
Y97998D01*
X222498Y96998D01*
X231495Y97998D02*
X229496Y96998D01*
X227496Y94999D01*
Y93000D01*
X228496Y92000D01*
X230496D01*
X231495Y93000D01*
Y93999D01*
X230496Y94999D01*
X227496D01*
X887602Y293300D02*
Y297299D01*
X888602D01*
X892600Y293300D01*
X893600D01*
Y297299D01*
X887602Y299298D02*
X893600D01*
Y302297D01*
X892600Y303297D01*
X888602D01*
X887602Y302297D01*
Y299298D01*
X893600Y308295D02*
X887602D01*
X890601Y305296D01*
Y309295D01*
X887102Y319800D02*
Y323799D01*
X888102D01*
X892100Y319800D01*
X893100D01*
Y323799D01*
X887102Y325798D02*
X893100D01*
Y328797D01*
X892100Y329797D01*
X888102D01*
X887102Y328797D01*
Y325798D01*
X888102Y331796D02*
X887102Y332796D01*
Y334795D01*
X888102Y335795D01*
X889101D01*
X890101Y334795D01*
Y333795D01*
Y334795D01*
X891101Y335795D01*
X892100D01*
X893100Y334795D01*
Y332796D01*
X892100Y331796D01*
X994502Y288000D02*
Y291999D01*
X995502D01*
X999500Y288000D01*
X1000500D01*
Y291999D01*
X994502Y293998D02*
X1000500D01*
Y296997D01*
X999500Y297997D01*
X995502D01*
X994502Y296997D01*
Y293998D01*
X1000500Y303995D02*
Y299996D01*
X996501Y303995D01*
X995502D01*
X994502Y302995D01*
Y300996D01*
X995502Y299996D01*
X154200Y127400D02*
Y131399D01*
X156199D01*
X156866Y130732D01*
Y129399D01*
X156199Y128733D01*
X154200D01*
X155533D02*
X156866Y127400D01*
X158199Y131399D02*
X160864D01*
Y130732D01*
X158199Y128067D01*
Y127400D01*
X162197Y131399D02*
X164863D01*
Y130732D01*
X162197Y128067D01*
Y127400D01*
X188500Y182500D02*
Y186499D01*
X190499D01*
X191166Y185832D01*
Y184499D01*
X190499Y183833D01*
X188500D01*
X189833D02*
X191166Y182500D01*
X192499Y186499D02*
X195165D01*
Y185832D01*
X192499Y183167D01*
Y182500D01*
X199163Y186499D02*
X197830Y185832D01*
X196497Y184499D01*
Y183167D01*
X197164Y182500D01*
X198497D01*
X199163Y183167D01*
Y183833D01*
X198497Y184499D01*
X196497D01*
X347500Y147500D02*
X343501D01*
Y149499D01*
X344168Y150166D01*
X345501D01*
X346167Y149499D01*
Y147500D01*
Y148833D02*
X347500Y150166D01*
X343501Y151499D02*
Y154165D01*
X344168D01*
X346834Y151499D01*
X347500D01*
X343501Y158163D02*
Y155497D01*
X345501D01*
X344834Y156830D01*
Y157497D01*
X345501Y158163D01*
X346834D01*
X347500Y157497D01*
Y156164D01*
X346834Y155497D01*
X441500Y162500D02*
Y166499D01*
X443499D01*
X444166Y165832D01*
Y164499D01*
X443499Y163833D01*
X441500D01*
X442833D02*
X444166Y162500D01*
X445499Y166499D02*
X448165D01*
Y165832D01*
X445499Y163166D01*
Y162500D01*
X451497D02*
Y166499D01*
X449497Y164499D01*
X452163D01*
X873702Y307347D02*
X879700D01*
Y310346D01*
X878700Y311345D01*
X874702D01*
X873702Y310346D01*
Y307347D01*
Y317343D02*
X874702Y315344D01*
X876701Y313345D01*
X878700D01*
X879700Y314344D01*
Y316344D01*
X878700Y317343D01*
X877701D01*
X876701Y316344D01*
Y313345D01*
X573278Y382913D02*
X577277D01*
X575277D01*
Y376915D01*
X579276D02*
Y382913D01*
X582275D01*
X583275Y381913D01*
Y379914D01*
X582275Y378914D01*
X579276D01*
X589273Y376915D02*
X585274D01*
X589273Y380914D01*
Y381913D01*
X588273Y382913D01*
X586274D01*
X585274Y381913D01*
X591272D02*
X592272Y382913D01*
X594271D01*
X595271Y381913D01*
Y377915D01*
X594271Y376915D01*
X592272D01*
X591272Y377915D01*
Y381913D01*
X807000Y76998D02*
X810999D01*
X808999D01*
Y71000D01*
X812998D02*
Y76998D01*
X815997D01*
X816997Y75998D01*
Y73999D01*
X815997Y72999D01*
X812998D01*
X822995Y71000D02*
X818996D01*
X822995Y74999D01*
Y75998D01*
X821995Y76998D01*
X819996D01*
X818996Y75998D01*
X584000Y370498D02*
X587999D01*
X585999D01*
Y364500D01*
X589998D02*
Y370498D01*
X592997D01*
X593997Y369498D01*
Y367499D01*
X592997Y366499D01*
X589998D01*
X595996Y364500D02*
X597996D01*
X596996D01*
Y370498D01*
X595996Y369498D01*
X600994Y365500D02*
X601994Y364500D01*
X603994D01*
X604993Y365500D01*
Y369498D01*
X603994Y370498D01*
X601994D01*
X600994Y369498D01*
Y368499D01*
X601994Y367499D01*
X604993D01*
X487500Y284498D02*
X491499D01*
X489499D01*
Y278500D01*
X493498D02*
Y284498D01*
X496497D01*
X497497Y283498D01*
Y281499D01*
X496497Y280499D01*
X493498D01*
X499496Y278500D02*
X501496D01*
X500496D01*
Y284498D01*
X499496Y283498D01*
X504494D02*
X505494Y284498D01*
X507493D01*
X508493Y283498D01*
Y282499D01*
X507493Y281499D01*
X508493Y280499D01*
Y279500D01*
X507493Y278500D01*
X505494D01*
X504494Y279500D01*
Y280499D01*
X505494Y281499D01*
X504494Y282499D01*
Y283498D01*
X505494Y281499D02*
X507493D01*
X563000Y683998D02*
X566999D01*
X564999D01*
Y678000D01*
X568998D02*
Y683998D01*
X571997D01*
X572997Y682998D01*
Y680999D01*
X571997Y679999D01*
X568998D01*
X574996Y678000D02*
X576996D01*
X575996D01*
Y683998D01*
X574996Y682998D01*
X579994Y683998D02*
X583993D01*
Y682998D01*
X579994Y679000D01*
Y678000D01*
X371000Y387498D02*
X374999D01*
X372999D01*
Y381500D01*
X376998D02*
Y387498D01*
X379997D01*
X380997Y386498D01*
Y384499D01*
X379997Y383499D01*
X376998D01*
X382996Y381500D02*
X384996D01*
X383996D01*
Y387498D01*
X382996Y386498D01*
X391993Y387498D02*
X389994Y386498D01*
X387995Y384499D01*
Y382500D01*
X388994Y381500D01*
X390993D01*
X391993Y382500D01*
Y383499D01*
X390993Y384499D01*
X387995D01*
X361000Y689498D02*
X364999D01*
X362999D01*
Y683500D01*
X366998D02*
Y689498D01*
X369997D01*
X370997Y688498D01*
Y686499D01*
X369997Y685499D01*
X366998D01*
X372996Y683500D02*
X374995D01*
X373996D01*
Y689498D01*
X372996Y688498D01*
X381993Y689498D02*
X377994D01*
Y686499D01*
X379994Y687499D01*
X380994D01*
X381993Y686499D01*
Y684500D01*
X380994Y683500D01*
X378994D01*
X377994Y684500D01*
X639000Y301498D02*
X642999D01*
X640999D01*
Y295500D01*
X644998D02*
Y301498D01*
X647997D01*
X648997Y300498D01*
Y298499D01*
X647997Y297499D01*
X644998D01*
X650996Y295500D02*
X652995D01*
X651996D01*
Y301498D01*
X650996Y300498D01*
X658993Y295500D02*
Y301498D01*
X655995Y298499D01*
X659993D01*
X675000Y280998D02*
X678999D01*
X676999D01*
Y275000D01*
X680998D02*
Y280998D01*
X683997D01*
X684997Y279998D01*
Y277999D01*
X683997Y276999D01*
X680998D01*
X686996Y275000D02*
X688996D01*
X687996D01*
Y280998D01*
X686996Y279998D01*
X691994D02*
X692994Y280998D01*
X694993D01*
X695993Y279998D01*
Y278999D01*
X694993Y277999D01*
X693994D01*
X694993D01*
X695993Y276999D01*
Y276000D01*
X694993Y275000D01*
X692994D01*
X691994Y276000D01*
X33702Y273200D02*
X38700D01*
X39700Y274200D01*
Y276199D01*
X38700Y277199D01*
X33702D01*
X34702Y279198D02*
X33702Y280198D01*
Y282197D01*
X34702Y283197D01*
X35701D01*
X36701Y282197D01*
X37701Y283197D01*
X38700D01*
X39700Y282197D01*
Y280198D01*
X38700Y279198D01*
X37701D01*
X36701Y280198D01*
X35701Y279198D01*
X34702D01*
X36701Y280198D02*
Y282197D01*
X771002Y45500D02*
X776000D01*
X777000Y46500D01*
Y48499D01*
X776000Y49499D01*
X771002D01*
Y51498D02*
Y55497D01*
X772002D01*
X776000Y51498D01*
X777000D01*
D49*
X1086000Y620000D02*
G03*
X1086000Y620000I-76000J0D01*
G01*
Y460000D02*
G03*
X1086000Y460000I-76000J0D01*
G01*
D56*
X279260Y229528D02*
Y256961D01*
X279134Y257087D02*
X279260Y256961D01*
X272961Y257087D02*
X279134D01*
X272961Y254331D02*
Y257087D01*
X172961Y254331D02*
X272961D01*
X172961D02*
Y257087D01*
X166661D02*
X172961D01*
X166661Y231764D02*
Y257087D01*
Y231764D02*
X168898Y229528D01*
X172961D01*
Y232283D01*
X272961D01*
Y229528D02*
Y232283D01*
Y229528D02*
X279260D01*
X347244Y254331D02*
X554331D01*
X347244D02*
Y257087D01*
X318602D02*
X347244D01*
X318602Y233366D02*
Y257087D01*
Y233366D02*
X322441Y229528D01*
X347244D01*
Y232283D01*
X554331D01*
Y229528D02*
Y232283D01*
Y229528D02*
X582972D01*
Y257087D01*
X554331D02*
X582972D01*
X554331Y254331D02*
Y257087D01*
D106*
X654508Y677142D02*
X780492D01*
X654508Y444858D02*
Y677142D01*
X780492Y444858D02*
Y677142D01*
X654508Y444858D02*
X780492D01*
D110*
X195335Y617500D02*
G03*
X195335Y617500I-72835J0D01*
G01*
X79807Y662350D02*
X93587D01*
X86697Y655461D02*
Y669240D01*
D111*
X723501Y406500D02*
X726834D01*
X727500Y407166D01*
Y408499D01*
X726834Y409166D01*
X723501D01*
X727500Y410499D02*
Y411832D01*
Y411165D01*
X723501D01*
X724168Y410499D01*
X374000Y607999D02*
Y604000D01*
X375999D01*
X376666Y604666D01*
Y607332D01*
X375999Y607999D01*
X374000D01*
X377999Y604000D02*
X379332D01*
X378665D01*
Y607999D01*
X377999Y607332D01*
X580000Y462499D02*
Y458500D01*
X581999D01*
X582666Y459166D01*
Y461832D01*
X581999Y462499D01*
X580000D01*
X585998Y458500D02*
Y462499D01*
X583999Y460499D01*
X586664D01*
X574500Y607499D02*
Y603500D01*
X576499D01*
X577166Y604166D01*
Y606832D01*
X576499Y607499D01*
X574500D01*
X578499Y606832D02*
X579165Y607499D01*
X580498D01*
X581165Y606832D01*
Y606166D01*
X580498Y605499D01*
X579832D01*
X580498D01*
X581165Y604833D01*
Y604166D01*
X580498Y603500D01*
X579165D01*
X578499Y604166D01*
X376500Y462499D02*
Y458500D01*
X378499D01*
X379166Y459166D01*
Y461832D01*
X378499Y462499D01*
X376500D01*
X383165Y458500D02*
X380499D01*
X383165Y461166D01*
Y461832D01*
X382498Y462499D01*
X381165D01*
X380499Y461832D01*
D112*
X708133Y354355D02*
G03*
X708133Y354082I1578241J0D01*
G01*
X708147Y388327D02*
G03*
X706456Y387994I23J-4576D01*
G01*
X706456Y387994D02*
G03*
X705777Y387640I1542J-3789D01*
G01*
Y387640D02*
G03*
X705281Y387257I2015J-3115D01*
G01*
D02*
G03*
X704885Y386823I2278J-2479D01*
G01*
Y386823D02*
G03*
X704552Y386278I2425J-1856D01*
G01*
X704552D02*
G03*
X704284Y385102I2473J-1184D01*
G01*
Y354565D02*
G03*
X708147Y350668I3898J0D01*
G01*
Y437498D02*
G03*
X704284Y433600I34J-3898D01*
G01*
X951992Y110870D02*
G03*
X951992Y132130I0J10630D01*
G01*
X926008D02*
G03*
X926008Y110870I0J-10630D01*
G01*
X744244Y383984D02*
Y391268D01*
X703693Y383984D02*
Y391268D01*
Y393984D02*
Y401268D01*
X744244Y393984D02*
Y401268D01*
X703693Y403984D02*
Y411268D01*
X744244Y403984D02*
Y411268D01*
X708147Y378138D02*
X740898D01*
X708147Y396709D02*
Y401278D01*
Y388327D02*
X740898Y388563D01*
X708147Y363266D02*
Y378138D01*
Y401278D02*
X740898Y401564D01*
X708147Y388327D02*
Y396709D01*
X704284Y401278D02*
X708147D01*
X740898Y411626D02*
X743654Y411602D01*
X708146Y362702D02*
X708147Y363266D01*
X708145Y362613D02*
X708146Y362702D01*
X708140Y360449D02*
X708145Y362613D01*
X708138Y359193D02*
X708140Y360449D01*
X708136Y358279D02*
X708138Y359193D01*
X708135Y357491D02*
X708136Y358279D01*
X708135Y356850D02*
X708135Y357491D01*
X708134Y356298D02*
X708135Y356850D01*
X708134Y355820D02*
X708134Y356298D01*
X708133Y355397D02*
X708134Y355820D01*
X708133Y355024D02*
X708133Y355397D01*
X708133Y354685D02*
X708133Y355024D01*
X708133Y354379D02*
X708133Y354685D01*
X708133Y354358D02*
Y354379D01*
X708133Y354082D02*
X708133Y353835D01*
X708133Y353609D01*
X708133Y353403D01*
X708134Y353209D01*
X708134Y353033D01*
X708134Y352869D01*
X708134Y352720D01*
X708134Y352582D01*
X708135Y352452D01*
X708135Y352328D01*
X708135Y352216D01*
X708135Y352114D01*
X708135Y352014D01*
X708136Y351922D01*
X708136Y351837D01*
X708136Y351760D01*
X708136Y351688D01*
X708137Y351619D01*
X708137Y351556D01*
X708137Y351499D01*
X708137Y351443D01*
X708138Y351393D01*
X708138Y351344D01*
X708138Y351300D01*
X708138Y351257D01*
X708139Y351219D01*
X708139Y351187D01*
X708139Y351154D01*
X708139Y351122D01*
X708140Y351091D01*
X708140Y351063D01*
X708140Y351037D01*
X708140Y351013D01*
X708140Y350991D01*
X708141Y350969D01*
X708141Y350950D01*
X708141Y350932D01*
X708141Y350914D01*
X708141Y350898D01*
X708141Y350884D01*
X708142Y350869D01*
X708142Y350855D01*
X708142Y350844D01*
X708142Y350832D01*
X708142Y350821D01*
X708142Y350811D01*
X708143Y350800D01*
X708143Y350792D01*
X708143Y350784D01*
X708143Y350776D01*
X708143Y350768D01*
X708143Y350761D01*
X708143Y350755D01*
X708143Y350749D01*
X708144Y350744D01*
X708144Y350739D01*
X708144Y350733D01*
X708144Y350728D01*
X708144Y350725D01*
X708144Y350721D01*
X708144Y350717D01*
X708144Y350714D01*
X708144Y350711D01*
X708145Y350707D01*
X708145Y350704D01*
X708145Y350701D01*
X708145Y350699D01*
X708145Y350697D01*
X708145Y350695D01*
X708145Y350693D01*
X708145Y350691D01*
X708145Y350690D01*
X708145Y350688D01*
X708145Y350686D01*
X708145Y350685D01*
X708145Y350683D01*
X708146Y350682D01*
X708146Y350681D01*
X708146Y350680D01*
X708146Y350679D01*
X708146Y350679D01*
X708146Y350678D01*
X708146Y350677D01*
X708146Y350676D01*
X708146Y350676D01*
X708146Y350675D01*
X708146Y350674D01*
X708146Y350674D01*
X708146Y350673D01*
X708146Y350672D01*
X708146Y350672D01*
X708146Y350671D01*
X708146Y350671D01*
X708146Y350671D01*
X708146Y350671D01*
X708146Y350671D01*
X708146Y350670D01*
X708146Y350670D01*
X708146Y350670D01*
X708146Y350670D01*
X708146Y350670D01*
X708146Y350669D01*
X708147Y350669D01*
X708147Y350669D01*
X708147Y350669D01*
X708147Y350669D01*
X708147Y350669D01*
X708147Y350669D01*
X708147Y350668D01*
X708147Y350668D01*
X708147Y350668D01*
X708147Y350668D01*
X708147Y350668D01*
X708147Y350668D01*
X708147Y350668D01*
X708147Y350668D01*
X708147Y350668D01*
X708147Y350668D01*
X708147Y437498D02*
X708147Y437498D01*
X708147Y437497D02*
X708147Y437498D01*
X708147Y437497D02*
X708147Y437497D01*
X708147Y437497D02*
X708147Y437497D01*
X708147Y437497D02*
X708147Y437497D01*
X708147Y437497D02*
X708147Y437497D01*
X708147Y437497D02*
X708147Y437497D01*
X708147Y437496D02*
X708147Y437497D01*
X708147Y437496D02*
X708147Y437496D01*
X708147Y437496D02*
X708147Y437496D01*
X708147Y437496D02*
X708147Y437496D01*
X708147Y437495D02*
X708147Y437496D01*
X708147Y437495D02*
X708147Y437495D01*
X708147Y437494D02*
X708147Y437495D01*
X708147Y437494D02*
X708147Y437494D01*
X708147Y437494D02*
X708147Y437494D01*
X708147Y437493D02*
X708147Y437494D01*
X708146Y437493D02*
X708147Y437493D01*
X708146Y437492D02*
X708146Y437493D01*
X708146Y437492D02*
X708146Y437492D01*
X708146Y437491D02*
X708146Y437492D01*
X708146Y437491D02*
X708146Y437491D01*
X708146Y437490D02*
X708146Y437491D01*
X708146Y437490D02*
X708146Y437490D01*
X708146Y437489D02*
X708146Y437490D01*
X708146Y437488D02*
X708146Y437489D01*
X708146Y437486D02*
X708146Y437488D01*
X708146Y437485D02*
X708146Y437486D01*
X708146Y437483D02*
X708146Y437485D01*
X708146Y437481D02*
X708146Y437483D01*
X708146Y437480D02*
X708146Y437481D01*
X708146Y437478D02*
X708146Y437480D01*
X708146Y437476D02*
X708146Y437478D01*
X708146Y437474D02*
X708146Y437476D01*
X708146Y437472D02*
X708146Y437474D01*
X708146Y437470D02*
X708146Y437472D01*
X708146Y437467D02*
X708146Y437470D01*
X708146Y437465D02*
X708146Y437467D01*
X708146Y437463D02*
X708146Y437465D01*
X708146Y437459D02*
X708146Y437463D01*
X708146Y437455D02*
X708146Y437459D01*
X708145Y437451D02*
X708146Y437455D01*
X708145Y437446D02*
X708145Y437451D01*
X708145Y437441D02*
X708145Y437446D01*
X708145Y437436D02*
X708145Y437441D01*
X708145Y437431D02*
X708145Y437436D01*
X708145Y437426D02*
X708145Y437431D01*
X708145Y437421D02*
X708145Y437426D01*
X708145Y437415D02*
X708145Y437421D01*
X708145Y437407D02*
X708145Y437415D01*
X708145Y437399D02*
X708145Y437407D01*
X708145Y437390D02*
X708145Y437399D01*
X708145Y437382D02*
X708145Y437390D01*
X708144Y437372D02*
X708145Y437382D01*
X708144Y437362D02*
X708144Y437372D01*
X708144Y437353D02*
X708144Y437362D01*
X708144Y437339D02*
X708144Y437353D01*
X708144Y437326D02*
X708144Y437339D01*
X708144Y437312D02*
X708144Y437326D01*
X708144Y437297D02*
X708144Y437312D01*
X708144Y437282D02*
X708144Y437297D01*
X708144Y437266D02*
X708144Y437282D01*
X708143Y437247D02*
X708144Y437266D01*
X708143Y437226D02*
X708143Y437247D01*
X708143Y437205D02*
X708143Y437226D01*
X708143Y437183D02*
X708143Y437205D01*
X708143Y437156D02*
X708143Y437183D01*
X708143Y437128D02*
X708143Y437156D01*
X708142Y437099D02*
X708143Y437128D01*
X708142Y437069D02*
X708142Y437099D01*
X708142Y437034D02*
X708142Y437069D01*
X708142Y436997D02*
X708142Y437034D01*
X708142Y436958D02*
X708142Y436997D01*
X708142Y436918D02*
X708142Y436958D01*
X708141Y436872D02*
X708142Y436918D01*
X708141Y436823D02*
X708141Y436872D01*
X708141Y436767D02*
X708141Y436823D01*
X708141Y436709D02*
X708141Y436767D01*
X708141Y436649D02*
X708141Y436709D01*
X708140Y436580D02*
X708141Y436649D01*
X708140Y436509D02*
X708140Y436580D01*
X708140Y436435D02*
X708140Y436509D01*
X708140Y436351D02*
X708140Y436435D01*
X708140Y436265D02*
X708140Y436351D01*
X708139Y436167D02*
X708140Y436265D01*
X708139Y436066D02*
X708139Y436167D01*
X708139Y435953D02*
X708139Y436066D01*
X708139Y435836D02*
X708139Y435953D01*
X708138Y435706D02*
X708139Y435836D01*
X708138Y435571D02*
X708138Y435706D01*
X708138Y435422D02*
X708138Y435571D01*
X708137Y435257D02*
X708138Y435422D01*
X708137Y435087D02*
X708137Y435257D01*
X708137Y434900D02*
X708137Y435087D01*
X708137Y434695D02*
X708137Y434900D01*
X708136Y434471D02*
X708137Y434695D01*
X708136Y434239D02*
X708136Y434471D01*
X708136Y433986D02*
X708136Y434239D01*
X708136Y433712D02*
X708136Y433986D01*
X708135Y433416D02*
X708136Y433712D01*
X708135Y433095D02*
X708135Y433416D01*
X708135Y432749D02*
X708135Y433095D01*
X708135Y432362D02*
X708135Y432749D01*
X708134Y431947D02*
X708135Y432362D01*
X708134Y431501D02*
X708134Y431947D01*
X708134Y431007D02*
X708134Y431501D01*
X708134Y430478D02*
X708134Y431007D01*
X708133Y429897D02*
X708134Y430478D01*
X708133Y429259D02*
X708133Y429897D01*
X708133Y428560D02*
X708133Y429259D01*
X708133Y427779D02*
X708133Y428560D01*
X708133Y426930D02*
X708133Y427779D01*
X708133Y426889D02*
X708133Y425884D01*
X708133Y424779D01*
X708133Y423523D01*
X708134Y422083D01*
X708134Y420422D01*
X708135Y418677D01*
X708136Y416520D01*
X708137Y413843D01*
X708140Y409290D01*
X708146Y402815D01*
X708146Y402702D01*
X708146Y402588D01*
X708146Y402474D01*
X708146Y402388D01*
X708146Y402303D01*
X708146Y402218D01*
X708146Y402161D01*
X708146Y402104D01*
X708146Y402047D01*
X708146Y401990D01*
X708146Y401933D01*
X708146Y401905D01*
X708146Y401876D01*
X708147Y401848D01*
X708147Y401762D01*
X708147Y401705D01*
X708147Y401649D01*
X708147Y401592D01*
X708147Y401535D01*
X708147Y401506D01*
X708147Y401478D01*
X708147Y401449D01*
X708147Y401421D01*
X708147Y401392D01*
X708147Y401364D01*
X708147Y401335D01*
X708147Y401307D01*
X708147Y401278D01*
Y363266D02*
X740898Y362980D01*
X740898Y383626D02*
X743654Y383649D01*
X708147Y378138D02*
Y388327D01*
X704283Y396709D02*
X708147D01*
X704284Y378138D02*
X708147D01*
Y396709D02*
X740898D01*
X704284Y363266D02*
X708147D01*
X697394Y383984D02*
X703693D01*
X697394Y391268D02*
X703693D01*
X750543Y383984D02*
Y391268D01*
X744244D02*
X750543D01*
X703693Y383984D02*
X704284D01*
X743653D02*
X744244D01*
X750543D01*
X697394D02*
Y391268D01*
X703693D02*
X704284D01*
X743653D02*
X744244D01*
X744244Y393984D02*
X750543D01*
X697394D02*
X697394Y401268D01*
X703693D01*
X744244Y401268D02*
X750543Y401268D01*
X697394Y393984D02*
X703693D01*
X750543D02*
Y401268D01*
X703693Y393984D02*
X704284D01*
X743654D02*
X744244D01*
X703693Y401268D02*
X704284D01*
X743654Y401268D02*
X744244D01*
X703693Y403984D02*
X704284D01*
X743654D02*
X744244D01*
X703693Y411268D02*
X704284Y411268D01*
X743654Y411268D02*
X744244D01*
Y403984D02*
X750543D01*
X697394D02*
Y411268D01*
X703693D01*
X744244D02*
X750543D01*
X697394Y403984D02*
X703693D01*
X750543D02*
Y411268D01*
X740898Y378138D02*
Y388563D01*
X708147Y350668D02*
X740898Y350382D01*
X704284Y354565D02*
Y363266D01*
X743654Y394761D02*
Y411012D01*
Y411602D01*
X704284Y378138D02*
Y385102D01*
X740898Y392368D02*
X743653Y392393D01*
X740898Y401564D02*
X740898Y396709D01*
X743654Y381681D02*
Y383649D01*
X740898Y394739D02*
X743654Y394761D01*
X704284Y401278D02*
Y433600D01*
X740898Y381657D02*
X743654Y381681D01*
X704283Y396709D02*
X704284Y385102D01*
X740898Y388563D02*
X740898Y396709D01*
X740898Y378138D02*
X740898Y362980D01*
X743653Y392393D02*
X743654Y383649D01*
X740898Y413595D02*
X743654Y413571D01*
Y411602D02*
Y413571D01*
X740898Y401564D02*
Y437783D01*
X743653Y392393D02*
X743654Y394761D01*
X704283Y396709D02*
X704284Y401278D01*
X740898Y350382D02*
X740898Y362980D01*
X708147Y437498D02*
X740898Y437783D01*
X704284Y363266D02*
Y378138D01*
X740898Y411036D02*
X743654Y411012D01*
X764303Y387405D02*
Y400595D01*
X789697Y387405D02*
Y400595D01*
X764303Y387405D02*
X789697D01*
X764303Y400595D02*
X789697D01*
X682602Y354146D02*
Y359854D01*
X670398Y354146D02*
Y359854D01*
Y354146D02*
X682602D01*
X670398Y359854D02*
X682602D01*
X754563Y422012D02*
X762437D01*
Y435988D01*
X754563Y422012D02*
Y435988D01*
X762437D01*
X829063Y297012D02*
X836937D01*
Y310988D01*
X829063Y297012D02*
Y310988D01*
X836937D01*
X784663Y435735D02*
X792537D01*
X784663Y421758D02*
Y435735D01*
X792537Y421758D02*
Y435735D01*
X784663Y421758D02*
X792537D01*
X774763Y421758D02*
X782637Y421758D01*
Y435735D01*
X774763Y421758D02*
Y435735D01*
X782637D01*
X764563Y422058D02*
X772437D01*
Y436035D01*
X764563Y422058D02*
Y436035D01*
X772437D01*
X773063Y286488D02*
X780937D01*
X773063Y272512D02*
Y286488D01*
X780937Y272512D02*
Y286488D01*
X773063Y272512D02*
X780937D01*
X656646Y354398D02*
X662354D01*
X656646Y366602D02*
X662354D01*
X656646Y354398D02*
Y366602D01*
X662354Y354398D02*
Y366602D01*
X773512Y263063D02*
Y270937D01*
Y263063D02*
X787488D01*
X773512Y270937D02*
X787488D01*
Y263063D02*
Y270937D01*
X781763Y286488D02*
X789637D01*
X781763Y272512D02*
Y286488D01*
X789637Y272512D02*
Y286488D01*
X781763Y272512D02*
X789637D01*
X926008Y132130D02*
X951992D01*
X926008Y110870D02*
X951992D01*
X91457Y186807D02*
X98543D01*
X91457Y200193D02*
X98543D01*
Y186807D02*
Y200193D01*
X91457Y186807D02*
Y200193D01*
X306102Y197146D02*
Y202854D01*
X293898Y197146D02*
Y202854D01*
Y197146D02*
X306102D01*
X293898Y202854D02*
X306102D01*
X659646Y324102D02*
X665354D01*
X659646Y311898D02*
X665354D01*
Y324102D01*
X659646Y311898D02*
Y324102D01*
X927886Y243165D02*
Y263835D01*
X951114D01*
X927886Y243165D02*
X951114D01*
Y263835D01*
X711512Y336063D02*
Y343937D01*
Y336063D02*
X725488D01*
X711512Y343937D02*
X725488D01*
Y336063D02*
Y343937D01*
X803285Y200463D02*
Y208337D01*
X789309D02*
X803285D01*
X789309Y200463D02*
X803285D01*
X789309D02*
Y208337D01*
X790488Y124563D02*
Y132437D01*
X776512D02*
X790488D01*
X776512Y124563D02*
X790488D01*
X776512D02*
Y132437D01*
X265063Y623988D02*
X272937D01*
X265063Y610012D02*
Y623988D01*
X272937Y610012D02*
Y623988D01*
X265063Y610012D02*
X272937D01*
X619266Y318478D02*
Y326352D01*
X605290D02*
X619266D01*
X605290Y318478D02*
X619266D01*
X605290D02*
Y326352D01*
X5841Y254403D02*
X13715D01*
X5841Y240427D02*
Y254403D01*
X13715Y240427D02*
Y254403D01*
X5841Y240427D02*
X13715D01*
X741863Y19665D02*
X749737D01*
Y33642D01*
X741863Y19665D02*
Y33642D01*
X749737D01*
X715141Y197988D02*
X723015D01*
X715141Y184012D02*
Y197988D01*
X723015Y184012D02*
Y197988D01*
X715141Y184012D02*
X723015D01*
X146188Y137963D02*
Y145837D01*
X132212D02*
X146188D01*
X132212Y137963D02*
X146188D01*
X132212D02*
Y145837D01*
X73063Y179488D02*
X80937D01*
X73063Y165512D02*
Y179488D01*
X80937Y165512D02*
Y179488D01*
X73063Y165512D02*
X80937D01*
X5563Y285512D02*
X13437D01*
Y299488D01*
X5563Y285512D02*
Y299488D01*
X13437D01*
X-6659Y254403D02*
X1215D01*
X-6659Y240427D02*
Y254403D01*
X1215Y240427D02*
Y254403D01*
X-6659Y240427D02*
X1215D01*
X790488Y100563D02*
Y108437D01*
X776512D02*
X790488D01*
X776512Y100563D02*
X790488D01*
X776512D02*
Y108437D01*
X732563Y19512D02*
X740437D01*
Y33488D01*
X732563Y19512D02*
Y33488D01*
X740437D01*
X80988Y313063D02*
Y320937D01*
X67012D02*
X80988D01*
X67012Y313063D02*
X80988D01*
X67012D02*
Y320937D01*
X137563Y314988D02*
X145437D01*
X137563Y301012D02*
Y314988D01*
X145437Y301012D02*
Y314988D01*
X137563Y301012D02*
X145437D01*
X725563Y197988D02*
X733437D01*
X725563Y184012D02*
Y197988D01*
X733437Y184012D02*
Y197988D01*
X725563Y184012D02*
X733437D01*
X766710Y341148D02*
Y349022D01*
X752734D02*
X766710D01*
X752734Y341148D02*
X766710D01*
X752734D02*
Y349022D01*
X803063Y331988D02*
X810937D01*
X803063Y318012D02*
Y331988D01*
X810937Y318012D02*
Y331988D01*
X803063Y318012D02*
X810937D01*
X747563Y150488D02*
X755437D01*
X747563Y136512D02*
Y150488D01*
X755437Y136512D02*
Y150488D01*
X747563Y136512D02*
X755437D01*
X965665Y136114D02*
X986335D01*
Y112886D02*
Y136114D01*
X965665Y112886D02*
Y136114D01*
Y112886D02*
X986335D01*
X1008386Y243165D02*
Y263835D01*
X1031614D01*
X1008386Y243165D02*
X1031614D01*
Y263835D01*
X617146Y351898D02*
X622854D01*
X617146Y364102D02*
X622854D01*
X617146Y351898D02*
Y364102D01*
X622854Y351898D02*
Y364102D01*
X618602Y342146D02*
Y347854D01*
X606398Y342146D02*
Y347854D01*
Y342146D02*
X618602D01*
X606398Y347854D02*
X618602D01*
X617146Y378102D02*
X622854D01*
X617146Y365898D02*
X622854D01*
Y378102D01*
X617146Y365898D02*
Y378102D01*
X664098Y341347D02*
Y347055D01*
X676303Y341347D02*
Y347055D01*
X664098D02*
X676303D01*
X664098Y341347D02*
X676303D01*
X682602Y347646D02*
Y353354D01*
X670398Y347646D02*
Y353354D01*
Y347646D02*
X682602D01*
X670398Y353354D02*
X682602D01*
X546602Y277646D02*
Y283354D01*
X534398Y277646D02*
Y283354D01*
Y277646D02*
X546602D01*
X534398Y283354D02*
X546602D01*
X608124Y363432D02*
X613832D01*
X608124Y351228D02*
X613832D01*
Y363432D01*
X608124Y351228D02*
Y363432D01*
X663146Y354398D02*
X668854D01*
X663146Y366602D02*
X668854D01*
X663146Y354398D02*
Y366602D01*
X668854Y354398D02*
Y366602D01*
X606176Y289561D02*
Y295269D01*
X618380Y289561D02*
Y295269D01*
X606176D02*
X618380D01*
X606176Y289561D02*
X618380D01*
X668602Y333146D02*
Y338854D01*
X656398Y333146D02*
Y338854D01*
Y333146D02*
X668602D01*
X656398Y338854D02*
X668602D01*
X681602Y333146D02*
Y338854D01*
X669398Y333146D02*
Y338854D01*
Y333146D02*
X681602D01*
X669398Y338854D02*
X681602D01*
X628146Y309898D02*
X633854D01*
X628146Y322102D02*
X633854D01*
X628146Y309898D02*
Y322102D01*
X633854Y309898D02*
Y322102D01*
X666146Y310102D02*
X671854D01*
X666146Y297898D02*
X671854D01*
Y310102D01*
X666146Y297898D02*
Y310102D01*
X611924Y303813D02*
X617632D01*
X611924Y316017D02*
X617632D01*
X611924Y303813D02*
Y316017D01*
X617632Y303813D02*
Y316017D01*
X672646Y311898D02*
X678354D01*
X672646Y324102D02*
X678354D01*
X672646Y311898D02*
Y324102D01*
X678354Y311898D02*
Y324102D01*
X666146Y324102D02*
X671854D01*
X666146Y311898D02*
X671854D01*
Y324102D01*
X666146Y311898D02*
Y324102D01*
X603602Y342146D02*
Y347854D01*
X591398Y342146D02*
Y347854D01*
Y342146D02*
X603602D01*
X591398Y347854D02*
X603602D01*
X656898Y347646D02*
Y353354D01*
X669102Y347646D02*
Y353354D01*
X656898D02*
X669102D01*
X656898Y347646D02*
X669102D01*
X580146Y358102D02*
X585854D01*
X580146Y345898D02*
X585854D01*
Y358102D01*
X580146Y345898D02*
Y358102D01*
X526646Y277398D02*
X532354D01*
X526646Y289602D02*
X532354D01*
X526646Y277398D02*
Y289602D01*
X532354Y277398D02*
Y289602D01*
X618380Y334561D02*
Y340269D01*
X606176Y334561D02*
Y340269D01*
Y334561D02*
X618380D01*
X606176Y340269D02*
X618380D01*
Y327061D02*
Y332769D01*
X606176Y327061D02*
Y332769D01*
Y327061D02*
X618380D01*
X606176Y332769D02*
X618380D01*
Y297061D02*
Y302769D01*
X606176Y297061D02*
Y302769D01*
Y297061D02*
X618380D01*
X606176Y302769D02*
X618380D01*
X676102Y326146D02*
Y331854D01*
X663898Y326146D02*
Y331854D01*
Y326146D02*
X676102D01*
X663898Y331854D02*
X676102D01*
X665898Y289146D02*
Y294854D01*
X678102Y289146D02*
Y294854D01*
X665898D02*
X678102D01*
X665898Y289146D02*
X678102D01*
X627898Y283146D02*
Y288854D01*
X640102Y283146D02*
Y288854D01*
X627898D02*
X640102D01*
X627898Y283146D02*
X640102D01*
X903405Y276697D02*
X916595D01*
X903405Y251303D02*
X916595D01*
X903405D02*
Y276697D01*
X916595Y251303D02*
Y276697D01*
X773488Y100563D02*
Y108437D01*
X759512D02*
X773488D01*
X759512Y100563D02*
X773488D01*
X759512D02*
Y108437D01*
X776512Y113063D02*
Y120937D01*
Y113063D02*
X790488D01*
X776512Y120937D02*
X790488D01*
Y113063D02*
Y120937D01*
X816563Y138012D02*
X824437D01*
Y151988D01*
X816563Y138012D02*
Y151988D01*
X824437D01*
X789012Y188563D02*
Y196437D01*
Y188563D02*
X802988D01*
X789012Y196437D02*
X802988D01*
Y188563D02*
Y196437D01*
X806563Y184988D02*
X814437D01*
X806563Y171012D02*
Y184988D01*
X814437Y171012D02*
Y184988D01*
X806563Y171012D02*
X814437D01*
X826063Y151988D02*
X833937D01*
X826063Y138012D02*
Y151988D01*
X833937Y138012D02*
Y151988D01*
X826063Y138012D02*
X833937D01*
X816563Y154012D02*
X824437D01*
Y167988D01*
X816563Y154012D02*
Y167988D01*
X824437D01*
X807563Y146012D02*
X815437D01*
Y159988D01*
X807563Y146012D02*
Y159988D01*
X815437D01*
X747563Y151512D02*
X755437D01*
Y165488D01*
X747563Y151512D02*
Y165488D01*
X755437D01*
X884165Y112886D02*
X904835D01*
X884165D02*
Y136114D01*
X904835Y112886D02*
Y136114D01*
X884165D02*
X904835D01*
X826063Y167988D02*
X833937D01*
X826063Y154012D02*
Y167988D01*
X833937Y154012D02*
Y167988D01*
X826063Y154012D02*
X833937D01*
X835063D02*
X842937D01*
Y167988D01*
X835063Y154012D02*
Y167988D01*
X842937D01*
X835063Y151988D02*
X842937D01*
X835063Y138012D02*
Y151988D01*
X842937Y138012D02*
Y151988D01*
X835063Y138012D02*
X842937D01*
X811163Y241250D02*
X819037D01*
Y255227D01*
X811163Y241250D02*
Y255227D01*
X819037D01*
X841163Y241250D02*
X849037D01*
Y255227D01*
X841163Y241250D02*
Y255227D01*
X849037D01*
X811163Y232727D02*
X819037D01*
X811163Y218750D02*
Y232727D01*
X819037Y218750D02*
Y232727D01*
X811163Y218750D02*
X819037D01*
X826163D02*
X834037D01*
Y232727D01*
X826163Y218750D02*
Y232727D01*
X834037D01*
X843063Y232488D02*
X850937D01*
X843063Y218512D02*
Y232488D01*
X850937Y218512D02*
Y232488D01*
X843063Y218512D02*
X850937D01*
X852563Y232488D02*
X860437D01*
X852563Y218512D02*
Y232488D01*
X860437Y218512D02*
Y232488D01*
X852563Y218512D02*
X860437D01*
X411063Y286988D02*
X418937D01*
X411063Y273012D02*
Y286988D01*
X418937Y273012D02*
Y286988D01*
X411063Y273012D02*
X418937D01*
X420063D02*
X427937D01*
Y286988D01*
X420063Y273012D02*
Y286988D01*
X427937D01*
X431012Y272063D02*
Y279937D01*
Y272063D02*
X444988D01*
X431012Y279937D02*
X444988D01*
Y272063D02*
Y279937D01*
X5563Y301512D02*
X13437D01*
Y315488D01*
X5563Y301512D02*
Y315488D01*
X13437D01*
X66063Y350588D02*
X73937D01*
X66063Y336612D02*
Y350588D01*
X73937Y336612D02*
Y350588D01*
X66063Y336612D02*
X73937D01*
X80563Y350588D02*
X88437D01*
X80563Y336612D02*
Y350588D01*
X88437Y336612D02*
Y350588D01*
X80563Y336612D02*
X88437D01*
X95063D02*
X102937D01*
Y350588D01*
X95063Y336612D02*
Y350588D01*
X102937Y350588D01*
X108563Y350988D02*
X116437D01*
X108563Y337012D02*
Y350988D01*
X116437Y337012D02*
Y350988D01*
X108563Y337012D02*
X116437D01*
X89012Y324063D02*
Y331937D01*
Y324063D02*
X102988D01*
X89012Y331937D02*
X102988D01*
Y324063D02*
Y331937D01*
X108012Y324063D02*
Y331937D01*
Y324063D02*
X121988D01*
X108012Y331937D02*
X121988D01*
Y324063D02*
Y331937D01*
X111488Y313063D02*
Y320937D01*
X97512D02*
X111488D01*
X97512Y313063D02*
X111488D01*
X97512D02*
Y320937D01*
X127063Y314988D02*
X134937D01*
X127063Y301012D02*
Y314988D01*
X134937Y301012D02*
Y314988D01*
X127063Y301012D02*
X134937D01*
X265063Y626012D02*
X272937D01*
Y639988D01*
X265063Y626012D02*
Y639988D01*
X272937D01*
X265063Y594012D02*
X272937D01*
Y607988D01*
X265063Y594012D02*
Y607988D01*
X272937D01*
X275063Y591488D02*
X282937D01*
X275063Y577512D02*
Y591488D01*
X282937Y577512D02*
Y591488D01*
X275063Y577512D02*
X282937D01*
X265063D02*
X272937D01*
Y591488D01*
X265063Y577512D02*
Y591488D01*
X272937D01*
X121988Y253563D02*
Y261437D01*
X108012D02*
X121988D01*
X108012Y253563D02*
X121988D01*
X108012D02*
Y261437D01*
X795012Y357063D02*
Y364937D01*
Y357063D02*
X808988D01*
X795012Y364937D02*
X808988D01*
Y357063D02*
Y364937D01*
X752734Y361148D02*
Y369022D01*
Y361148D02*
X766710D01*
X752734Y369022D02*
X766710D01*
Y361148D02*
Y369022D01*
X784563Y371988D02*
X792437D01*
X784563Y358012D02*
Y371988D01*
X792437Y358012D02*
Y371988D01*
X784563Y358012D02*
X792437D01*
X766710Y351148D02*
Y359022D01*
X752734D02*
X766710D01*
X752734Y351148D02*
X766710D01*
X752734D02*
Y359022D01*
X715641Y291512D02*
X723515D01*
Y305488D01*
X715641Y291512D02*
Y305488D01*
X723515D01*
X811710Y341148D02*
Y349022D01*
X797734D02*
X811710D01*
X797734Y341148D02*
X811710D01*
X797734D02*
Y349022D01*
X777734Y341148D02*
Y349022D01*
Y341148D02*
X791710D01*
X777734Y349022D02*
X791710D01*
Y341148D02*
Y349022D01*
X813063Y332088D02*
X820937D01*
X813063Y318112D02*
Y332088D01*
X820937Y318112D02*
Y332088D01*
X813063Y318112D02*
X820937D01*
X137957Y280807D02*
X145043D01*
X137957Y294193D02*
X145043D01*
Y280807D02*
Y294193D01*
X137957Y280807D02*
Y294193D01*
X181307Y301957D02*
X194693D01*
X181307Y309043D02*
X194693D01*
X181307Y301957D02*
Y309043D01*
X194693Y301957D02*
Y309043D01*
Y315957D02*
Y323043D01*
X181307Y315957D02*
Y323043D01*
X194693D01*
X181307Y315957D02*
X194693D01*
X181307Y329457D02*
X194693D01*
X181307Y336543D02*
X194693D01*
X181307Y329457D02*
Y336543D01*
X194693Y329457D02*
Y336543D01*
Y343457D02*
Y350543D01*
X181307Y343457D02*
Y350543D01*
X194693D01*
X181307Y343457D02*
X194693D01*
X689307Y324457D02*
X702693D01*
X689307Y331543D02*
X702693D01*
X689307Y324457D02*
Y331543D01*
X702693Y324457D02*
Y331543D01*
X454146Y177898D02*
X459854D01*
X454146Y190102D02*
X459854D01*
X454146Y177898D02*
Y190102D01*
X459854Y177898D02*
Y190102D01*
X418354Y177898D02*
Y190102D01*
X412646Y177898D02*
Y190102D01*
X418354D01*
X412646Y177898D02*
X418354D01*
X168146Y184898D02*
X173854D01*
X168146Y197102D02*
X173854D01*
X168146Y184898D02*
Y197102D01*
X173854Y184898D02*
Y197102D01*
X287854Y143898D02*
Y156102D01*
X282146Y143898D02*
Y156102D01*
X287854D01*
X282146Y143898D02*
X287854D01*
X829063Y319012D02*
X836937D01*
Y332988D01*
X829063Y319012D02*
Y332988D01*
X836937D01*
X852563Y202488D02*
X860437D01*
X852563Y188512D02*
Y202488D01*
X860437Y188512D02*
Y202488D01*
X852563Y188512D02*
X860437D01*
X842563Y202488D02*
X850437D01*
X842563Y188512D02*
Y202488D01*
X850437Y188512D02*
Y202488D01*
X842563Y188512D02*
X850437D01*
X832063Y202488D02*
X839937D01*
X832063Y188512D02*
Y202488D01*
X839937Y188512D02*
Y202488D01*
X832063Y188512D02*
X839937D01*
X991488Y269063D02*
Y276937D01*
X977512D02*
X991488D01*
X977512Y269063D02*
X991488D01*
X977512D02*
Y276937D01*
X998012Y269063D02*
Y276937D01*
Y269063D02*
X1011988D01*
X998012Y276937D02*
X1011988D01*
Y269063D02*
Y276937D01*
X1032488Y269063D02*
Y276937D01*
X1018512D02*
X1032488D01*
X1018512Y269063D02*
X1032488D01*
X1018512D02*
Y276937D01*
D114*
X771000Y393000D02*
Y396999D01*
X772999D01*
X773666Y396332D01*
Y394999D01*
X772999Y394333D01*
X771000D01*
X772333D02*
X773666Y393000D01*
X777665Y396332D02*
X776998Y396999D01*
X775665D01*
X774999Y396332D01*
Y395666D01*
X775665Y394999D01*
X776998D01*
X777665Y394333D01*
Y393666D01*
X776998Y393000D01*
X775665D01*
X774999Y393666D01*
X778997Y396999D02*
Y393000D01*
Y394999D01*
X781663D01*
Y396999D01*
Y393000D01*
X782996D02*
X784329D01*
X783663D01*
Y396999D01*
X782996Y396332D01*
X672500Y355500D02*
Y358499D01*
X674000D01*
X674499Y357999D01*
Y356999D01*
X674000Y356500D01*
X672500D01*
X673500D02*
X674499Y355500D01*
X677498Y358499D02*
X676499Y357999D01*
X675499Y356999D01*
Y356000D01*
X675999Y355500D01*
X676999D01*
X677498Y356000D01*
Y356500D01*
X676999Y356999D01*
X675499D01*
X679998Y355500D02*
Y358499D01*
X678498Y356999D01*
X680497D01*
X658501Y358499D02*
X658001Y357999D01*
Y357000D01*
X658501Y356500D01*
X660500D01*
X661000Y357000D01*
Y357999D01*
X660500Y358499D01*
X658001Y361498D02*
Y359499D01*
X659501D01*
X659001Y360499D01*
Y360999D01*
X659501Y361498D01*
X660500D01*
X661000Y360999D01*
Y359999D01*
X660500Y359499D01*
X658501Y362498D02*
X658001Y362998D01*
Y363998D01*
X658501Y364497D01*
X660500D01*
X661000Y363998D01*
Y362998D01*
X660500Y362498D01*
X658501D01*
X774000Y315999D02*
Y312666D01*
X774666Y312000D01*
X775999D01*
X776666Y312666D01*
Y315999D01*
X780664Y312000D02*
X777999D01*
X780664Y314666D01*
Y315332D01*
X779998Y315999D01*
X778665D01*
X777999Y315332D01*
X1041500Y251500D02*
Y255499D01*
X1043499D01*
X1044166Y254832D01*
Y253499D01*
X1043499Y252833D01*
X1041500D01*
X1042833D02*
X1044166Y251500D01*
X1045499Y254832D02*
X1046165Y255499D01*
X1047498D01*
X1048164Y254832D01*
Y254166D01*
X1047498Y253499D01*
X1046832D01*
X1047498D01*
X1048164Y252833D01*
Y252166D01*
X1047498Y251500D01*
X1046165D01*
X1045499Y252166D01*
X1052163Y251500D02*
X1049497D01*
X1052163Y254166D01*
Y254832D01*
X1051497Y255499D01*
X1050164D01*
X1049497Y254832D01*
X919666Y32999D02*
X918333D01*
X918999D01*
Y29666D01*
X918333Y29000D01*
X917667D01*
X917000Y29666D01*
X920999Y29000D02*
X922332D01*
X921665D01*
Y32999D01*
X920999Y32332D01*
X374500Y591999D02*
Y588000D01*
Y589999D01*
X377166D01*
Y591999D01*
Y588000D01*
X378499D02*
X379832D01*
X379165D01*
Y591999D01*
X378499Y591332D01*
X297999Y200999D02*
X297499Y201499D01*
X296500D01*
X296000Y200999D01*
Y199000D01*
X296500Y198500D01*
X297499D01*
X297999Y199000D01*
X300998Y201499D02*
X299999Y200999D01*
X298999Y199999D01*
Y199000D01*
X299499Y198500D01*
X300499D01*
X300998Y199000D01*
Y199500D01*
X300499Y199999D01*
X298999D01*
X301998Y200999D02*
X302498Y201499D01*
X303498D01*
X303997Y200999D01*
Y200499D01*
X303498Y199999D01*
X302998D01*
X303498D01*
X303997Y199500D01*
Y199000D01*
X303498Y198500D01*
X302498D01*
X301998Y199000D01*
X263666Y336332D02*
X262999Y336999D01*
X261666D01*
X261000Y336332D01*
Y333666D01*
X261666Y333000D01*
X262999D01*
X263666Y333666D01*
X267665Y336999D02*
X264999D01*
Y334999D01*
X266332Y335666D01*
X266998D01*
X267665Y334999D01*
Y333666D01*
X266998Y333000D01*
X265665D01*
X264999Y333666D01*
X271663Y336999D02*
X270330Y336332D01*
X268997Y334999D01*
Y333666D01*
X269664Y333000D01*
X270997D01*
X271663Y333666D01*
Y334333D01*
X270997Y334999D01*
X268997D01*
X661501Y315999D02*
X661001Y315499D01*
Y314500D01*
X661501Y314000D01*
X663500D01*
X664000Y314500D01*
Y315499D01*
X663500Y315999D01*
X664000Y318498D02*
X661001D01*
X662500Y316999D01*
Y318998D01*
X661001Y321997D02*
Y319998D01*
X662500D01*
X662001Y320998D01*
Y321498D01*
X662500Y321997D01*
X663500D01*
X664000Y321498D01*
Y320498D01*
X663500Y319998D01*
X937666Y255332D02*
X936999Y255999D01*
X935666D01*
X935000Y255332D01*
Y252666D01*
X935666Y252000D01*
X936999D01*
X937666Y252666D01*
X938999Y252000D02*
X940332D01*
X939665D01*
Y255999D01*
X938999Y255332D01*
X942331D02*
X942997Y255999D01*
X944330D01*
X944997Y255332D01*
Y254666D01*
X944330Y253999D01*
X943664D01*
X944330D01*
X944997Y253333D01*
Y252666D01*
X944330Y252000D01*
X942997D01*
X942331Y252666D01*
X974668Y123666D02*
X974001Y122999D01*
Y121667D01*
X974668Y121000D01*
X977334D01*
X978000Y121667D01*
Y122999D01*
X977334Y123666D01*
X974668Y124999D02*
X974001Y125665D01*
Y126998D01*
X974668Y127664D01*
X975334D01*
X976001Y126998D01*
X976667Y127664D01*
X977334D01*
X978000Y126998D01*
Y125665D01*
X977334Y124999D01*
X976667D01*
X976001Y125665D01*
X975334Y124999D01*
X974668D01*
X976001Y125665D02*
Y126998D01*
X1018166Y255332D02*
X1017499Y255999D01*
X1016166D01*
X1015500Y255332D01*
Y252666D01*
X1016166Y252000D01*
X1017499D01*
X1018166Y252666D01*
X1021498Y252000D02*
Y255999D01*
X1019499Y253999D01*
X1022165D01*
X621500Y354000D02*
X618501D01*
Y355500D01*
X619001Y355999D01*
X620001D01*
X620500Y355500D01*
Y354000D01*
Y355000D02*
X621500Y355999D01*
X619001Y356999D02*
X618501Y357499D01*
Y358499D01*
X619001Y358998D01*
X619501D01*
X620001Y358499D01*
X620500Y358998D01*
X621000D01*
X621500Y358499D01*
Y357499D01*
X621000Y356999D01*
X620500D01*
X620001Y357499D01*
X619501Y356999D01*
X619001D01*
X620001Y357499D02*
Y358499D01*
X619001Y359998D02*
X618501Y360498D01*
Y361498D01*
X619001Y361997D01*
X621000D01*
X621500Y361498D01*
Y360498D01*
X621000Y359998D01*
X619001D01*
X608500Y343500D02*
Y346499D01*
X610000D01*
X610499Y345999D01*
Y345000D01*
X610000Y344500D01*
X608500D01*
X609500D02*
X610499Y343500D01*
X611499Y346499D02*
X613498D01*
Y345999D01*
X611499Y344000D01*
Y343500D01*
X614498Y344000D02*
X614998Y343500D01*
X615998D01*
X616497Y344000D01*
Y345999D01*
X615998Y346499D01*
X614998D01*
X614498Y345999D01*
Y345499D01*
X614998Y345000D01*
X616497D01*
X621500Y368000D02*
X618501D01*
Y369499D01*
X619001Y369999D01*
X620001D01*
X620500Y369499D01*
Y368000D01*
Y369000D02*
X621500Y369999D01*
X618501Y370999D02*
Y372998D01*
X619001D01*
X621000Y370999D01*
X621500D01*
X619001Y373998D02*
X618501Y374498D01*
Y375498D01*
X619001Y375997D01*
X619501D01*
X620001Y375498D01*
X620500Y375997D01*
X621000D01*
X621500Y375498D01*
Y374498D01*
X621000Y373998D01*
X620500D01*
X620001Y374498D01*
X619501Y373998D01*
X619001D01*
X620001Y374498D02*
Y375498D01*
X666201Y342701D02*
Y345700D01*
X667700D01*
X668200Y345200D01*
Y344200D01*
X667700Y343701D01*
X666201D01*
X667201D02*
X668200Y342701D01*
X671199Y345700D02*
X670199Y345200D01*
X669200Y344200D01*
Y343201D01*
X669700Y342701D01*
X670699D01*
X671199Y343201D01*
Y343701D01*
X670699Y344200D01*
X669200D01*
X672199Y345200D02*
X672699Y345700D01*
X673698D01*
X674198Y345200D01*
Y344700D01*
X673698Y344200D01*
X674198Y343701D01*
Y343201D01*
X673698Y342701D01*
X672699D01*
X672199Y343201D01*
Y343701D01*
X672699Y344200D01*
X672199Y344700D01*
Y345200D01*
X672699Y344200D02*
X673698D01*
X672500Y349000D02*
Y351999D01*
X674000D01*
X674499Y351499D01*
Y350500D01*
X674000Y350000D01*
X672500D01*
X673500D02*
X674499Y349000D01*
X677498Y351999D02*
X676499Y351499D01*
X675499Y350500D01*
Y349500D01*
X675999Y349000D01*
X676999D01*
X677498Y349500D01*
Y350000D01*
X676999Y350500D01*
X675499D01*
X678498Y351999D02*
X680497D01*
Y351499D01*
X678498Y349500D01*
Y349000D01*
X536500Y279000D02*
Y281999D01*
X537999D01*
X538499Y281499D01*
Y280500D01*
X537999Y280000D01*
X536500D01*
X537500D02*
X538499Y279000D01*
X541498Y281999D02*
X540499Y281499D01*
X539499Y280500D01*
Y279500D01*
X539999Y279000D01*
X540999D01*
X541498Y279500D01*
Y280000D01*
X540999Y280500D01*
X539499D01*
X544497Y281999D02*
X543498Y281499D01*
X542498Y280500D01*
Y279500D01*
X542998Y279000D01*
X543998D01*
X544497Y279500D01*
Y280000D01*
X543998Y280500D01*
X542498D01*
X612478Y353330D02*
X609479D01*
Y354829D01*
X609979Y355329D01*
X610978D01*
X611478Y354829D01*
Y353330D01*
Y354330D02*
X612478Y355329D01*
X609479Y358328D02*
X609979Y357329D01*
X610978Y356329D01*
X611978D01*
X612478Y356829D01*
Y357828D01*
X611978Y358328D01*
X611478D01*
X610978Y357828D01*
Y356329D01*
X609479Y361327D02*
Y359328D01*
X610978D01*
X610478Y360328D01*
Y360827D01*
X610978Y361327D01*
X611978D01*
X612478Y360827D01*
Y359828D01*
X611978Y359328D01*
X667500Y356500D02*
X664501D01*
Y357999D01*
X665001Y358499D01*
X666001D01*
X666500Y357999D01*
Y356500D01*
Y357500D02*
X667500Y358499D01*
X664501Y361498D02*
X665001Y360499D01*
X666001Y359499D01*
X667000D01*
X667500Y359999D01*
Y360999D01*
X667000Y361498D01*
X666500D01*
X666001Y360999D01*
Y359499D01*
X665001Y362498D02*
X664501Y362998D01*
Y363998D01*
X665001Y364497D01*
X665501D01*
X666001Y363998D01*
Y363498D01*
Y363998D01*
X666500Y364497D01*
X667000D01*
X667500Y363998D01*
Y362998D01*
X667000Y362498D01*
X608500Y291000D02*
Y293999D01*
X610000D01*
X610499Y293499D01*
Y292499D01*
X610000Y292000D01*
X608500D01*
X609500D02*
X610499Y291000D01*
X613498Y293999D02*
X612499Y293499D01*
X611499Y292499D01*
Y291500D01*
X611999Y291000D01*
X612998D01*
X613498Y291500D01*
Y292000D01*
X612998Y292499D01*
X611499D01*
X616497Y291000D02*
X614498D01*
X616497Y292999D01*
Y293499D01*
X615998Y293999D01*
X614998D01*
X614498Y293499D01*
X658500Y334500D02*
Y337499D01*
X660000D01*
X660499Y336999D01*
Y335999D01*
X660000Y335500D01*
X658500D01*
X659500D02*
X660499Y334500D01*
X663498Y337499D02*
X662499Y336999D01*
X661499Y335999D01*
Y335000D01*
X661999Y334500D01*
X662998D01*
X663498Y335000D01*
Y335500D01*
X662998Y335999D01*
X661499D01*
X664498Y334500D02*
X665498D01*
X664998D01*
Y337499D01*
X664498Y336999D01*
X671500Y334500D02*
Y337499D01*
X672999D01*
X673499Y336999D01*
Y335999D01*
X672999Y335500D01*
X671500D01*
X672500D02*
X673499Y334500D01*
X676498Y337499D02*
X675499Y336999D01*
X674499Y335999D01*
Y335000D01*
X674999Y334500D01*
X675998D01*
X676498Y335000D01*
Y335500D01*
X675998Y335999D01*
X674499D01*
X677498Y336999D02*
X677998Y337499D01*
X678998D01*
X679497Y336999D01*
Y335000D01*
X678998Y334500D01*
X677998D01*
X677498Y335000D01*
Y336999D01*
X632500Y312000D02*
X629501D01*
Y313499D01*
X630001Y313999D01*
X631001D01*
X631500Y313499D01*
Y312000D01*
Y313000D02*
X632500Y313999D01*
X629501Y316998D02*
Y314999D01*
X631001D01*
X630501Y315999D01*
Y316498D01*
X631001Y316998D01*
X632000D01*
X632500Y316498D01*
Y315499D01*
X632000Y314999D01*
Y317998D02*
X632500Y318498D01*
Y319498D01*
X632000Y319997D01*
X630001D01*
X629501Y319498D01*
Y318498D01*
X630001Y317998D01*
X630501D01*
X631001Y318498D01*
Y319997D01*
X670500Y300000D02*
X667501D01*
Y301500D01*
X668001Y301999D01*
X669000D01*
X669500Y301500D01*
Y300000D01*
Y301000D02*
X670500Y301999D01*
X667501Y304998D02*
Y302999D01*
X669000D01*
X668501Y303999D01*
Y304499D01*
X669000Y304998D01*
X670000D01*
X670500Y304499D01*
Y303499D01*
X670000Y302999D01*
X668001Y305998D02*
X667501Y306498D01*
Y307498D01*
X668001Y307997D01*
X668501D01*
X669000Y307498D01*
X669500Y307997D01*
X670000D01*
X670500Y307498D01*
Y306498D01*
X670000Y305998D01*
X669500D01*
X669000Y306498D01*
X668501Y305998D01*
X668001D01*
X669000Y306498D02*
Y307498D01*
X616500Y306000D02*
X613501D01*
Y307500D01*
X614001Y307999D01*
X615000D01*
X615500Y307500D01*
Y306000D01*
Y307000D02*
X616500Y307999D01*
X613501Y310998D02*
Y308999D01*
X615000D01*
X614501Y309999D01*
Y310498D01*
X615000Y310998D01*
X616000D01*
X616500Y310498D01*
Y309499D01*
X616000Y308999D01*
X613501Y311998D02*
Y313997D01*
X614001D01*
X616000Y311998D01*
X616500D01*
X677000Y314000D02*
X674001D01*
Y315499D01*
X674501Y315999D01*
X675500D01*
X676000Y315499D01*
Y314000D01*
Y315000D02*
X677000Y315999D01*
X674001Y318998D02*
Y316999D01*
X675500D01*
X675001Y317999D01*
Y318498D01*
X675500Y318998D01*
X676500D01*
X677000Y318498D01*
Y317499D01*
X676500Y316999D01*
X674001Y321997D02*
X674501Y320998D01*
X675500Y319998D01*
X676500D01*
X677000Y320498D01*
Y321498D01*
X676500Y321997D01*
X676000D01*
X675500Y321498D01*
Y319998D01*
X670500Y314000D02*
X667501D01*
Y315499D01*
X668001Y315999D01*
X669000D01*
X669500Y315499D01*
Y314000D01*
Y315000D02*
X670500Y315999D01*
X667501Y318998D02*
Y316999D01*
X669000D01*
X668501Y317999D01*
Y318498D01*
X669000Y318998D01*
X670000D01*
X670500Y318498D01*
Y317499D01*
X670000Y316999D01*
X667501Y321997D02*
Y319998D01*
X669000D01*
X668501Y320998D01*
Y321498D01*
X669000Y321997D01*
X670000D01*
X670500Y321498D01*
Y320498D01*
X670000Y319998D01*
X595499Y345999D02*
X595000Y346499D01*
X594000D01*
X593500Y345999D01*
Y344000D01*
X594000Y343500D01*
X595000D01*
X595499Y344000D01*
X598498Y346499D02*
X596499D01*
Y345000D01*
X597499Y345499D01*
X597999D01*
X598498Y345000D01*
Y344000D01*
X597999Y343500D01*
X596999D01*
X596499Y344000D01*
X599498Y345999D02*
X599998Y346499D01*
X600998D01*
X601497Y345999D01*
Y345499D01*
X600998Y345000D01*
X601497Y344500D01*
Y344000D01*
X600998Y343500D01*
X599998D01*
X599498Y344000D01*
Y344500D01*
X599998Y345000D01*
X599498Y345499D01*
Y345999D01*
X599998Y345000D02*
X600998D01*
X660499Y351499D02*
X660000Y351999D01*
X659000D01*
X658500Y351499D01*
Y349500D01*
X659000Y349000D01*
X660000D01*
X660499Y349500D01*
X663498Y351999D02*
X661499D01*
Y350500D01*
X662499Y350999D01*
X662998D01*
X663498Y350500D01*
Y349500D01*
X662998Y349000D01*
X661999D01*
X661499Y349500D01*
X666497Y351999D02*
X664498D01*
Y350500D01*
X665498Y350999D01*
X665998D01*
X666497Y350500D01*
Y349500D01*
X665998Y349000D01*
X664998D01*
X664498Y349500D01*
X582001Y349999D02*
X581501Y349500D01*
Y348500D01*
X582001Y348000D01*
X584000D01*
X584500Y348500D01*
Y349500D01*
X584000Y349999D01*
X581501Y352998D02*
Y350999D01*
X583001D01*
X582501Y351999D01*
Y352499D01*
X583001Y352998D01*
X584000D01*
X584500Y352499D01*
Y351499D01*
X584000Y350999D01*
X584500Y355498D02*
X581501D01*
X583001Y353998D01*
Y355997D01*
X528501Y280999D02*
X528001Y280500D01*
Y279500D01*
X528501Y279000D01*
X530500D01*
X531000Y279500D01*
Y280500D01*
X530500Y280999D01*
X528001Y283998D02*
Y281999D01*
X529500D01*
X529001Y282999D01*
Y283499D01*
X529500Y283998D01*
X530500D01*
X531000Y283499D01*
Y282499D01*
X530500Y281999D01*
X528501Y284998D02*
X528001Y285498D01*
Y286498D01*
X528501Y286997D01*
X529001D01*
X529500Y286498D01*
Y285998D01*
Y286498D01*
X530000Y286997D01*
X530500D01*
X531000Y286498D01*
Y285498D01*
X530500Y284998D01*
X610277Y338414D02*
X609777Y338914D01*
X608778D01*
X608278Y338414D01*
Y336415D01*
X608778Y335915D01*
X609777D01*
X610277Y336415D01*
X613276Y338914D02*
X611277D01*
Y337415D01*
X612277Y337914D01*
X612777D01*
X613276Y337415D01*
Y336415D01*
X612777Y335915D01*
X611777D01*
X611277Y336415D01*
X616275Y335915D02*
X614276D01*
X616275Y337914D01*
Y338414D01*
X615775Y338914D01*
X614776D01*
X614276Y338414D01*
X610277Y330914D02*
X609777Y331414D01*
X608778D01*
X608278Y330914D01*
Y328915D01*
X608778Y328415D01*
X609777D01*
X610277Y328915D01*
X613276Y331414D02*
X611277D01*
Y329914D01*
X612277Y330414D01*
X612777D01*
X613276Y329914D01*
Y328915D01*
X612777Y328415D01*
X611777D01*
X611277Y328915D01*
X614276Y328415D02*
X615276D01*
X614776D01*
Y331414D01*
X614276Y330914D01*
X610277Y300914D02*
X609777Y301414D01*
X608778D01*
X608278Y300914D01*
Y298915D01*
X608778Y298415D01*
X609777D01*
X610277Y298915D01*
X612777Y298415D02*
Y301414D01*
X611277Y299915D01*
X613276D01*
X614276Y298915D02*
X614776Y298415D01*
X615775D01*
X616275Y298915D01*
Y300914D01*
X615775Y301414D01*
X614776D01*
X614276Y300914D01*
Y300414D01*
X614776Y299915D01*
X616275D01*
X667999Y329999D02*
X667499Y330499D01*
X666500D01*
X666000Y329999D01*
Y328000D01*
X666500Y327500D01*
X667499D01*
X667999Y328000D01*
X670499Y327500D02*
Y330499D01*
X668999Y328999D01*
X670998D01*
X671998Y329999D02*
X672498Y330499D01*
X673498D01*
X673997Y329999D01*
Y329499D01*
X673498Y328999D01*
X673997Y328500D01*
Y328000D01*
X673498Y327500D01*
X672498D01*
X671998Y328000D01*
Y328500D01*
X672498Y328999D01*
X671998Y329499D01*
Y329999D01*
X672498Y328999D02*
X673498D01*
X669999Y292999D02*
X669499Y293499D01*
X668500D01*
X668000Y292999D01*
Y291000D01*
X668500Y290500D01*
X669499D01*
X669999Y291000D01*
X672499Y290500D02*
Y293499D01*
X670999Y292000D01*
X672998D01*
X673998Y293499D02*
X675997D01*
Y292999D01*
X673998Y291000D01*
Y290500D01*
X631999Y286999D02*
X631499Y287499D01*
X630500D01*
X630000Y286999D01*
Y285000D01*
X630500Y284500D01*
X631499D01*
X631999Y285000D01*
X634499Y284500D02*
Y287499D01*
X632999Y285999D01*
X634998D01*
X637997Y287499D02*
X636998Y286999D01*
X635998Y285999D01*
Y285000D01*
X636498Y284500D01*
X637498D01*
X637997Y285000D01*
Y285500D01*
X637498Y285999D01*
X635998D01*
X139166Y195832D02*
X138499Y196499D01*
X137167D01*
X136500Y195832D01*
Y193166D01*
X137167Y192500D01*
X138499D01*
X139166Y193166D01*
X143165Y196499D02*
X141832Y195832D01*
X140499Y194499D01*
Y193166D01*
X141165Y192500D01*
X142498D01*
X143165Y193166D01*
Y193833D01*
X142498Y194499D01*
X140499D01*
X144497Y193166D02*
X145164Y192500D01*
X146497D01*
X147163Y193166D01*
Y195832D01*
X146497Y196499D01*
X145164D01*
X144497Y195832D01*
Y195166D01*
X145164Y194499D01*
X147163D01*
X102668Y104166D02*
X102001Y103499D01*
Y102166D01*
X102668Y101500D01*
X105333D01*
X106000Y102166D01*
Y103499D01*
X105333Y104166D01*
X102001Y108165D02*
X102668Y106832D01*
X104001Y105499D01*
X105333D01*
X106000Y106165D01*
Y107498D01*
X105333Y108165D01*
X104667D01*
X104001Y107498D01*
Y105499D01*
X106000Y112163D02*
Y109497D01*
X103334Y112163D01*
X102668D01*
X102001Y111497D01*
Y110164D01*
X102668Y109497D01*
X93668Y226666D02*
X93001Y225999D01*
Y224666D01*
X93668Y224000D01*
X96334D01*
X97000Y224666D01*
Y225999D01*
X96334Y226666D01*
X93001Y230664D02*
Y227999D01*
X95001D01*
X94334Y229332D01*
Y229998D01*
X95001Y230664D01*
X96334D01*
X97000Y229998D01*
Y228665D01*
X96334Y227999D01*
Y231997D02*
X97000Y232664D01*
Y233997D01*
X96334Y234663D01*
X93668D01*
X93001Y233997D01*
Y232664D01*
X93668Y231997D01*
X94334D01*
X95001Y232664D01*
Y234663D01*
X579500Y477999D02*
Y474000D01*
Y475999D01*
X582166D01*
Y477999D01*
Y474000D01*
X585498D02*
Y477999D01*
X583499Y475999D01*
X586165D01*
X576000Y591499D02*
Y587500D01*
Y589499D01*
X578666D01*
Y591499D01*
Y587500D01*
X579999Y590832D02*
X580665Y591499D01*
X581998D01*
X582664Y590832D01*
Y590166D01*
X581998Y589499D01*
X581332D01*
X581998D01*
X582664Y588833D01*
Y588166D01*
X581998Y587500D01*
X580665D01*
X579999Y588166D01*
X376500Y477999D02*
Y474000D01*
Y475999D01*
X379166D01*
Y477999D01*
Y474000D01*
X383165D02*
X380499D01*
X383165Y476666D01*
Y477332D01*
X382498Y477999D01*
X381165D01*
X380499Y477332D01*
X41500Y495500D02*
Y499499D01*
X43499D01*
X44166Y498832D01*
Y497499D01*
X43499Y496833D01*
X41500D01*
X42833D02*
X44166Y495500D01*
X47498D02*
Y499499D01*
X45499Y497499D01*
X48164D01*
X49497Y498832D02*
X50164Y499499D01*
X51497D01*
X52163Y498832D01*
Y498166D01*
X51497Y497499D01*
X52163Y496833D01*
Y496166D01*
X51497Y495500D01*
X50164D01*
X49497Y496166D01*
Y496833D01*
X50164Y497499D01*
X49497Y498166D01*
Y498832D01*
X50164Y497499D02*
X51497D01*
X17000Y495500D02*
Y499499D01*
X18999D01*
X19666Y498832D01*
Y497499D01*
X18999Y496833D01*
X17000D01*
X18333D02*
X19666Y495500D01*
X22998D02*
Y499499D01*
X20999Y497499D01*
X23664D01*
X24997Y499499D02*
X27663D01*
Y498832D01*
X24997Y496166D01*
Y495500D01*
X1062000Y251500D02*
Y255499D01*
X1063999D01*
X1064666Y254832D01*
Y253499D01*
X1063999Y252833D01*
X1062000D01*
X1063333D02*
X1064666Y251500D01*
X1065999Y254832D02*
X1066665Y255499D01*
X1067998D01*
X1068664Y254832D01*
Y254166D01*
X1067998Y253499D01*
X1067332D01*
X1067998D01*
X1068664Y252833D01*
Y252166D01*
X1067998Y251500D01*
X1066665D01*
X1065999Y252166D01*
X1069997Y255499D02*
X1072663D01*
Y254832D01*
X1069997Y252166D01*
Y251500D01*
X912500Y257000D02*
X908501D01*
Y258999D01*
X909168Y259666D01*
X910501D01*
X911167Y258999D01*
Y257000D01*
Y258333D02*
X912500Y259666D01*
X909168Y263665D02*
X908501Y262998D01*
Y261665D01*
X909168Y260999D01*
X909834D01*
X910501Y261665D01*
Y262998D01*
X911167Y263665D01*
X911833D01*
X912500Y262998D01*
Y261665D01*
X911833Y260999D01*
X908501Y264997D02*
X912500D01*
X910501D01*
Y267663D01*
X908501D01*
X912500D01*
Y271662D02*
Y268996D01*
X909834Y271662D01*
X909168D01*
X908501Y270995D01*
Y269663D01*
X909168Y268996D01*
X91500Y288499D02*
Y285166D01*
X92166Y284500D01*
X93499D01*
X94166Y285166D01*
Y288499D01*
X98164D02*
X96832Y287832D01*
X95499Y286499D01*
Y285166D01*
X96165Y284500D01*
X97498D01*
X98164Y285166D01*
Y285833D01*
X97498Y286499D01*
X95499D01*
X780001Y231500D02*
X783334D01*
X784000Y232166D01*
Y233499D01*
X783334Y234166D01*
X780001D01*
Y238164D02*
Y235499D01*
X782001D01*
X781334Y236832D01*
Y237498D01*
X782001Y238164D01*
X783334D01*
X784000Y237498D01*
Y236165D01*
X783334Y235499D01*
X780001Y159500D02*
X783334D01*
X784000Y160167D01*
Y161499D01*
X783334Y162166D01*
X780001D01*
X780668Y163499D02*
X780001Y164165D01*
Y165498D01*
X780668Y166165D01*
X781334D01*
X782001Y165498D01*
Y164832D01*
Y165498D01*
X782667Y166165D01*
X783334D01*
X784000Y165498D01*
Y164165D01*
X783334Y163499D01*
X892668Y122666D02*
X892001Y121999D01*
Y120667D01*
X892668Y120000D01*
X895333D01*
X896000Y120667D01*
Y121999D01*
X895333Y122666D01*
X896000Y123999D02*
Y125332D01*
Y124665D01*
X892001D01*
X892668Y123999D01*
X896000Y129330D02*
X892001D01*
X894001Y127331D01*
Y129997D01*
X52168Y166666D02*
X51501Y165999D01*
Y164666D01*
X52168Y164000D01*
X54834D01*
X55500Y164666D01*
Y165999D01*
X54834Y166666D01*
X51501Y170665D02*
X52168Y169332D01*
X53501Y167999D01*
X54834D01*
X55500Y168665D01*
Y169998D01*
X54834Y170665D01*
X54167D01*
X53501Y169998D01*
Y167999D01*
X55500Y171997D02*
Y173330D01*
Y172664D01*
X51501D01*
X52168Y171997D01*
X456001Y181999D02*
X455501Y181500D01*
Y180500D01*
X456001Y180000D01*
X458000D01*
X458500Y180500D01*
Y181500D01*
X458000Y181999D01*
X455501Y182999D02*
Y184998D01*
X456001D01*
X458000Y182999D01*
X458500D01*
Y187997D02*
Y185998D01*
X456501Y187997D01*
X456001D01*
X455501Y187498D01*
Y186498D01*
X456001Y185998D01*
X414501Y182499D02*
X414001Y182000D01*
Y181000D01*
X414501Y180500D01*
X416500D01*
X417000Y181000D01*
Y182000D01*
X416500Y182499D01*
X414001Y183499D02*
Y185498D01*
X414501D01*
X416500Y183499D01*
X417000D01*
Y186498D02*
Y187498D01*
Y186998D01*
X414001D01*
X414501Y186498D01*
X170001Y188999D02*
X169501Y188499D01*
Y187500D01*
X170001Y187000D01*
X172000D01*
X172500Y187500D01*
Y188499D01*
X172000Y188999D01*
X169501Y189999D02*
Y191998D01*
X170001D01*
X172000Y189999D01*
X172500D01*
X170001Y192998D02*
X169501Y193498D01*
Y194498D01*
X170001Y194997D01*
X172000D01*
X172500Y194498D01*
Y193498D01*
X172000Y192998D01*
X170001D01*
X284001Y147999D02*
X283501Y147500D01*
Y146500D01*
X284001Y146000D01*
X286000D01*
X286500Y146500D01*
Y147500D01*
X286000Y147999D01*
X283501Y150998D02*
X284001Y149999D01*
X285000Y148999D01*
X286000D01*
X286500Y149499D01*
Y150499D01*
X286000Y150998D01*
X285500D01*
X285000Y150499D01*
Y148999D01*
X283501Y153997D02*
Y151998D01*
X285000D01*
X284501Y152998D01*
Y153498D01*
X285000Y153997D01*
X286000D01*
X286500Y153498D01*
Y152498D01*
X286000Y151998D01*
D119*
X796734Y318025D02*
G03*
X792674Y314026I-60J-3999D01*
G01*
X797184Y328227D02*
G03*
X796686Y328726I-500J-2D01*
G01*
X794834Y323226D02*
G03*
X790134Y323226I-2350J0D01*
G01*
X796686Y299326D02*
G03*
X797184Y299824I-2J500D01*
G01*
X790134Y323226D02*
G03*
X794834Y323226I2350J0D01*
G01*
X792674Y314026D02*
G03*
X796734Y310026I4000J0D01*
G01*
X757282Y328726D02*
G03*
X756784Y328227I2J-500D01*
G01*
Y299824D02*
G03*
X757282Y299326I500J2D01*
G01*
X633117Y325941D02*
G03*
X633615Y325443I500J2D01*
G01*
X638617Y357092D02*
G03*
X638617Y352393I0J-2350D01*
G01*
D02*
G03*
X638617Y357092I0J2350D01*
G01*
X648517Y358944D02*
G03*
X648019Y359442I-500J-2D01*
G01*
Y325443D02*
G03*
X648517Y325941I-2J500D01*
G01*
X633615Y359442D02*
G03*
X633117Y358944I2J-500D01*
G01*
X1023757Y46293D02*
G03*
X1020516Y50680I-5934J-993D01*
G01*
X829928D02*
G03*
X826710Y46417I2694J-5380D01*
G01*
X115291Y290173D02*
G03*
X111231Y286173I-60J-3999D01*
G01*
X115741Y300375D02*
G03*
X115243Y300873I-500J-2D01*
G01*
X113391Y295373D02*
G03*
X108691Y295373I-2350J0D01*
G01*
X115243Y271473D02*
G03*
X115741Y271972I-2J500D01*
G01*
X108691Y295373D02*
G03*
X113391Y295373I2350J0D01*
G01*
X111231Y286173D02*
G03*
X115291Y282174I4000J0D01*
G01*
X75839Y300873D02*
G03*
X75341Y300375I2J-500D01*
G01*
Y271972D02*
G03*
X75839Y271473I500J2D01*
G01*
X786025Y213766D02*
G03*
X782026Y217826I-3999J60D01*
G01*
X796228Y213316D02*
G03*
X796726Y213814I-2J500D01*
G01*
X791226Y215666D02*
G03*
X791226Y220366I0J2350D01*
G01*
X767326Y213814D02*
G03*
X767824Y213316I500J2D01*
G01*
X791226Y220366D02*
G03*
X791226Y215666I0J-2350D01*
G01*
X782026Y217826D02*
G03*
X778026Y213766I0J-4000D01*
G01*
X796726Y253218D02*
G03*
X796228Y253716I-500J-2D01*
G01*
X767824D02*
G03*
X767326Y253218I2J-500D01*
G01*
X786025Y143266D02*
G03*
X782026Y147326I-3999J60D01*
G01*
X796228Y142816D02*
G03*
X796726Y143314I-2J500D01*
G01*
X791226Y145166D02*
G03*
X791226Y149866I0J2350D01*
G01*
X767326Y143314D02*
G03*
X767824Y142816I500J2D01*
G01*
X791226Y149866D02*
G03*
X791226Y145166I0J-2350D01*
G01*
X782026Y147326D02*
G03*
X778026Y143266I0J-4000D01*
G01*
X796726Y182718D02*
G03*
X796228Y183216I-500J-2D01*
G01*
X767824D02*
G03*
X767326Y182718I2J-500D01*
G01*
X795209Y293776D02*
Y295394D01*
X793759Y299326D02*
X795209D01*
X793759Y296138D02*
Y297838D01*
X795209Y295394D02*
Y296138D01*
X793759D02*
X795209D01*
Y297838D02*
Y299326D01*
X793759Y295394D02*
Y296138D01*
Y293776D02*
Y295394D01*
Y293776D02*
X795209D01*
X793759Y297838D02*
Y299326D01*
X795209Y296138D02*
Y297838D01*
X790209Y293776D02*
Y295394D01*
X788759Y299326D02*
X790209D01*
X788759Y296138D02*
Y297838D01*
X790209Y295394D02*
Y296138D01*
X788759D02*
X790209D01*
Y297838D02*
Y299326D01*
X788759Y295394D02*
Y296138D01*
Y293776D02*
Y295394D01*
Y293776D02*
X790209D01*
X788759Y297838D02*
Y299326D01*
X790209Y296138D02*
Y297838D01*
X785209Y293776D02*
Y295394D01*
X783759Y299326D02*
X785209D01*
X783759Y296138D02*
Y297838D01*
X785209Y295394D02*
Y296138D01*
X783759D02*
X785209D01*
Y297838D02*
Y299326D01*
X783759Y295394D02*
Y296138D01*
Y293776D02*
Y295394D01*
Y293776D02*
X785209D01*
X783759Y297838D02*
Y299326D01*
X785209Y296138D02*
Y297838D01*
X780209Y293776D02*
Y295394D01*
X778759Y299326D02*
X780209D01*
X778759Y296138D02*
Y297838D01*
X780209Y295394D02*
Y296138D01*
X778759D02*
X780209D01*
Y297838D02*
Y299326D01*
X778759Y295394D02*
Y296138D01*
Y293776D02*
Y295394D01*
Y293776D02*
X780209D01*
X778759Y297838D02*
Y299326D01*
X780209Y296138D02*
Y297838D01*
X775209Y293776D02*
Y295394D01*
X773759Y299326D02*
X775209D01*
X773759Y296138D02*
Y297838D01*
X775209Y295394D02*
Y296138D01*
X773759D02*
X775209D01*
Y297838D02*
Y299326D01*
X773759Y295394D02*
Y296138D01*
Y293776D02*
Y295394D01*
Y293776D02*
X775209D01*
X773759Y297838D02*
Y299326D01*
X775209Y296138D02*
Y297838D01*
X770209Y293776D02*
Y295394D01*
X768759Y299326D02*
X770209D01*
X768759Y296138D02*
Y297838D01*
X770209Y295394D02*
Y296138D01*
X768759D02*
X770209D01*
Y297838D02*
Y299326D01*
X768759Y295394D02*
Y296138D01*
Y293776D02*
Y295394D01*
Y293776D02*
X770209D01*
X768759Y297838D02*
Y299326D01*
X770209Y296138D02*
Y297838D01*
X765209Y293776D02*
Y295394D01*
X763759Y299326D02*
X765209D01*
X763759Y296138D02*
Y297838D01*
X765209Y295394D02*
Y296138D01*
X763759D02*
X765209D01*
Y297838D02*
Y299326D01*
X763759Y295394D02*
Y296138D01*
Y293776D02*
Y295394D01*
Y293776D02*
X765209D01*
X763759Y297838D02*
Y299326D01*
X765209Y296138D02*
Y297838D01*
X760209Y293776D02*
Y295394D01*
X758759Y299326D02*
X760209D01*
X758759Y296138D02*
Y297838D01*
X760209Y295394D02*
Y296138D01*
X758759D02*
X760209D01*
Y297838D02*
Y299326D01*
X758759Y295394D02*
Y296138D01*
Y293776D02*
Y295394D01*
Y293776D02*
X760209D01*
X758759Y297838D02*
Y299326D01*
X760209Y296138D02*
Y297838D01*
X793759Y332657D02*
Y334276D01*
Y328726D02*
X795209D01*
Y330213D02*
Y331913D01*
X793759D02*
Y332657D01*
Y331913D02*
X795209D01*
X793759Y328726D02*
Y330213D01*
X795209Y331913D02*
Y332657D01*
Y334276D01*
X793759D02*
X795209D01*
Y328726D02*
Y330213D01*
X793759D02*
Y331913D01*
X788759Y332657D02*
Y334276D01*
Y328726D02*
X790209D01*
Y330213D02*
Y331913D01*
X788759D02*
Y332657D01*
Y331913D02*
X790209D01*
X788759Y328726D02*
Y330213D01*
X790209Y331913D02*
Y332657D01*
Y334276D01*
X788759D02*
X790209D01*
Y328726D02*
Y330213D01*
X788759D02*
Y331913D01*
X783759Y332657D02*
Y334276D01*
Y328726D02*
X785209D01*
Y330213D02*
Y331913D01*
X783759D02*
Y332657D01*
Y331913D02*
X785209D01*
X783759Y328726D02*
Y330213D01*
X785209Y331913D02*
Y332657D01*
Y334276D01*
X783759D02*
X785209D01*
Y328726D02*
Y330213D01*
X783759D02*
Y331913D01*
X778759Y332657D02*
Y334276D01*
Y328726D02*
X780209D01*
Y330213D02*
Y331913D01*
X778759D02*
Y332657D01*
Y331913D02*
X780209D01*
X778759Y328726D02*
Y330213D01*
X780209Y331913D02*
Y332657D01*
Y334276D01*
X778759D02*
X780209D01*
Y328726D02*
Y330213D01*
X778759D02*
Y331913D01*
X773759Y332657D02*
Y334276D01*
Y328726D02*
X775209D01*
Y330213D02*
Y331913D01*
X773759D02*
Y332657D01*
Y331913D02*
X775209D01*
X773759Y328726D02*
Y330213D01*
X775209Y331913D02*
Y332657D01*
Y334276D01*
X773759D02*
X775209D01*
Y328726D02*
Y330213D01*
X773759D02*
Y331913D01*
X768759Y332657D02*
Y334276D01*
Y328726D02*
X770209D01*
Y330213D02*
Y331913D01*
X768759D02*
Y332657D01*
Y331913D02*
X770209D01*
X768759Y328726D02*
Y330213D01*
X770209Y331913D02*
Y332657D01*
Y334276D01*
X768759D02*
X770209D01*
Y328726D02*
Y330213D01*
X768759D02*
Y331913D01*
X763759Y332657D02*
Y334276D01*
Y328726D02*
X765209D01*
Y330213D02*
Y331913D01*
X763759D02*
Y332657D01*
Y331913D02*
X765209D01*
X763759Y328726D02*
Y330213D01*
X765209Y331913D02*
Y332657D01*
Y334276D01*
X763759D02*
X765209D01*
Y328726D02*
Y330213D01*
X763759D02*
Y331913D01*
X758759Y332657D02*
Y334276D01*
Y328726D02*
X760209D01*
Y330213D02*
Y331913D01*
X758759D02*
Y332657D01*
Y331913D02*
X760209D01*
X758759Y328726D02*
Y330213D01*
X760209Y331913D02*
Y332657D01*
Y334276D01*
X758759D02*
X760209D01*
Y328726D02*
Y330213D01*
X758759D02*
Y331913D01*
X796728Y318029D02*
X796735Y318025D01*
X796797Y318024D01*
X797184Y299824D02*
Y328227D01*
X756784Y299824D02*
Y328227D01*
X796735Y310026D02*
X796797Y310027D01*
X757282Y328726D02*
X796686D01*
X757282Y299326D02*
X796686D01*
X796728Y310022D02*
X796735Y310026D01*
X796797Y310027D02*
Y318024D01*
X648517Y325941D02*
Y358944D01*
X633117Y325941D02*
Y358944D01*
X633615Y359442D02*
X648019D01*
X633615Y325443D02*
X648019D01*
X633117Y326717D02*
Y328168D01*
X630673Y326717D02*
Y328168D01*
X628917Y326717D02*
Y328168D01*
Y326717D02*
X629835D01*
Y328168D02*
X630673D01*
Y326717D02*
X632172D01*
X630673Y328168D02*
X632172D01*
Y326717D02*
X633117D01*
X628917Y328168D02*
X629835D01*
Y326717D02*
X630673D01*
X632172Y328168D02*
X633117D01*
Y331717D02*
Y333168D01*
X630673Y331717D02*
Y333168D01*
X628917Y331717D02*
Y333168D01*
Y331717D02*
X629835D01*
Y333168D02*
X630673D01*
Y331717D02*
X632172D01*
X630673Y333168D02*
X632172D01*
Y331717D02*
X633117D01*
X628917Y333168D02*
X629835D01*
Y331717D02*
X630673D01*
X632172Y333168D02*
X633117D01*
Y336718D02*
Y338168D01*
X630673Y336718D02*
Y338168D01*
X628917Y336718D02*
Y338168D01*
Y336718D02*
X629835D01*
Y338168D02*
X630673D01*
Y336718D02*
X632172D01*
X630673Y338168D02*
X632172D01*
Y336718D02*
X633117D01*
X628917Y338168D02*
X629835D01*
Y336718D02*
X630673D01*
X632172Y338168D02*
X633117D01*
Y341718D02*
Y343167D01*
X630673Y341718D02*
Y343167D01*
X628917Y341718D02*
Y343167D01*
Y341718D02*
X629835D01*
Y343167D02*
X630673D01*
Y341718D02*
X632172D01*
X630673Y343167D02*
X632172D01*
Y341718D02*
X633117D01*
X628917Y343167D02*
X629835D01*
Y341718D02*
X630673D01*
X632172Y343167D02*
X633117D01*
Y346718D02*
Y348167D01*
X630673Y346718D02*
Y348167D01*
X628917Y346718D02*
Y348167D01*
Y346718D02*
X629835D01*
Y348167D02*
X630673D01*
Y346718D02*
X632172D01*
X630673Y348167D02*
X632172D01*
Y346718D02*
X633117D01*
X628917Y348167D02*
X629835D01*
Y346718D02*
X630673D01*
X632172Y348167D02*
X633117D01*
Y351717D02*
Y353168D01*
X630673Y351717D02*
Y353168D01*
X628917Y351717D02*
Y353168D01*
Y351717D02*
X629835D01*
Y353168D02*
X630673D01*
Y351717D02*
X632172D01*
X630673Y353168D02*
X632172D01*
Y351717D02*
X633117D01*
X628917Y353168D02*
X629835D01*
Y351717D02*
X630673D01*
X632172Y353168D02*
X633117D01*
Y356717D02*
Y358168D01*
X630673Y356717D02*
Y358168D01*
X628917Y356717D02*
Y358168D01*
Y356717D02*
X629835D01*
Y358168D02*
X630673D01*
Y356717D02*
X632172D01*
X630673Y358168D02*
X632172D01*
Y356717D02*
X633117D01*
X628917Y358168D02*
X629835D01*
Y356717D02*
X630673D01*
X632172Y358168D02*
X633117D01*
X648517Y326717D02*
Y328168D01*
X650961Y326717D02*
Y328168D01*
X652717Y326717D02*
Y328168D01*
X651798D02*
X652717D01*
X650961Y326717D02*
X651798D01*
X649461Y328168D02*
X650961D01*
X649461Y326717D02*
X650961D01*
X648517Y328168D02*
X649461D01*
X651798Y326717D02*
X652717D01*
X650961Y328168D02*
X651798D01*
X648517Y326717D02*
X649461D01*
X648517Y331717D02*
Y333168D01*
X650961Y331717D02*
Y333168D01*
X652717Y331717D02*
Y333168D01*
X651798D02*
X652717D01*
X650961Y331717D02*
X651798D01*
X649461Y333168D02*
X650961D01*
X649461Y331717D02*
X650961D01*
X648517Y333168D02*
X649461D01*
X651798Y331717D02*
X652717D01*
X650961Y333168D02*
X651798D01*
X648517Y331717D02*
X649461D01*
X648517Y336718D02*
Y338168D01*
X650961Y336718D02*
Y338168D01*
X652717Y336718D02*
Y338168D01*
X651798D02*
X652717D01*
X650961Y336718D02*
X651798D01*
X649461Y338168D02*
X650961D01*
X649461Y336718D02*
X650961D01*
X648517Y338168D02*
X649461D01*
X651798Y336718D02*
X652717D01*
X650961Y338168D02*
X651798D01*
X648517Y336718D02*
X649461D01*
X648517Y341718D02*
Y343167D01*
X650961Y341718D02*
Y343167D01*
X652717Y341718D02*
Y343167D01*
X651798D02*
X652717D01*
X650961Y341718D02*
X651798D01*
X649461Y343167D02*
X650961D01*
X649461Y341718D02*
X650961D01*
X648517Y343167D02*
X649461D01*
X651798Y341718D02*
X652717D01*
X650961Y343167D02*
X651798D01*
X648517Y341718D02*
X649461D01*
X648517Y346718D02*
Y348167D01*
X650961Y346718D02*
Y348167D01*
X652717Y346718D02*
Y348167D01*
X651798D02*
X652717D01*
X650961Y346718D02*
X651798D01*
X649461Y348167D02*
X650961D01*
X649461Y346718D02*
X650961D01*
X648517Y348167D02*
X649461D01*
X651798Y346718D02*
X652717D01*
X650961Y348167D02*
X651798D01*
X648517Y346718D02*
X649461D01*
X648517Y351717D02*
Y353168D01*
X650961Y351717D02*
Y353168D01*
X652717Y351717D02*
Y353168D01*
X651798D02*
X652717D01*
X650961Y351717D02*
X651798D01*
X649461Y353168D02*
X650961D01*
X649461Y351717D02*
X650961D01*
X648517Y353168D02*
X649461D01*
X651798Y351717D02*
X652717D01*
X650961Y353168D02*
X651798D01*
X648517Y351717D02*
X649461D01*
X648517Y356717D02*
Y358168D01*
X650961Y356717D02*
Y358168D01*
X652717Y356717D02*
Y358168D01*
X651798D02*
X652717D01*
X650961Y356717D02*
X651798D01*
X649461Y358168D02*
X650961D01*
X649461Y356717D02*
X650961D01*
X648517Y358168D02*
X649461D01*
X651798Y356717D02*
X652717D01*
X650961Y358168D02*
X651798D01*
X648517Y356717D02*
X649461D01*
X1038831Y249071D02*
Y257929D01*
Y249071D02*
X1055169D01*
Y257929D01*
X1038831D02*
X1055169D01*
X865222Y64500D02*
X984722D01*
X985122D02*
X1020522Y50700D01*
X985222Y-14500D02*
Y64500D01*
X865222Y-14500D02*
X985222D01*
X865222D02*
Y64500D01*
X829922Y50700D02*
X865222Y64500D01*
X826722Y-2500D02*
Y46500D01*
Y-2500D02*
X1023722D01*
Y46500D01*
X316878Y603500D02*
X317878Y605000D01*
X308878Y604000D02*
X316878Y603500D01*
X307878Y603000D02*
X308878Y604000D01*
X307878Y601500D02*
Y603000D01*
Y601500D02*
X319378Y596500D01*
X316378Y590000D02*
X319378Y596500D01*
X433378Y583500D02*
X436378Y590000D01*
X433378Y583500D02*
X444878Y578500D01*
Y577000D02*
Y578500D01*
X443878Y576000D02*
X444878Y577000D01*
X435878Y576500D02*
X443878Y576000D01*
X434878Y575000D02*
X435878Y576500D01*
X316378Y590000D02*
X319378Y583500D01*
X307878Y578500D02*
X319378Y583500D01*
X307878Y577000D02*
Y578500D01*
Y577000D02*
X308878Y576000D01*
X316878Y576500D01*
X317878Y575000D01*
X433378Y596500D02*
X436378Y590000D01*
X433378Y596500D02*
X444878Y601500D01*
Y603000D01*
X443878Y604000D02*
X444878Y603000D01*
X435878Y603500D02*
X443878Y604000D01*
X434878Y605000D02*
X435878Y603500D01*
X308878Y614000D02*
X317878Y605000D01*
X308878Y614000D02*
X310878Y615000D01*
X324378Y606500D01*
X325878D01*
X326378Y607500D01*
X324878Y615000D02*
X326378Y607500D01*
X324878Y615000D02*
X326378D01*
X336378Y605000D01*
X337878D01*
X337941Y615000D01*
X341378D01*
Y593100D02*
Y615000D01*
Y593100D02*
X411378D01*
X341378Y586900D02*
X411378D01*
Y565000D02*
Y586900D01*
Y565000D02*
X414815D01*
X414878Y575000D01*
X416378D01*
X426378Y565000D01*
X427878D01*
X426378Y572500D02*
X427878Y565000D01*
X426378Y572500D02*
X426878Y573500D01*
X428378D01*
X441878Y565000D01*
X443878Y566000D01*
X434878Y575000D02*
X443878Y566000D01*
X341378Y565000D02*
Y586900D01*
X337941Y565000D02*
X341378D01*
X337878Y575000D02*
X337941Y565000D01*
X336378Y575000D02*
X337878D01*
X326378Y565000D02*
X336378Y575000D01*
X324878Y565000D02*
X326378D01*
X324878D02*
X326378Y572500D01*
X325878Y573500D02*
X326378Y572500D01*
X324378Y573500D02*
X325878D01*
X310878Y565000D02*
X324378Y573500D01*
X308878Y566000D02*
X310878Y565000D01*
X308878Y566000D02*
X317878Y575000D01*
X411378Y593100D02*
Y615000D01*
X414815D01*
X414878Y605000D01*
X416378D01*
X426378Y615000D01*
X427878D01*
X426378Y607500D02*
X427878Y615000D01*
X426378Y607500D02*
X426878Y606500D01*
X428378D01*
X441878Y615000D01*
X443878Y614000D01*
X434878Y605000D02*
X443878Y614000D01*
X397066Y594159D02*
Y599671D01*
X356583Y612466D02*
X396172D01*
X355689Y594159D02*
X397066D01*
X355689Y599671D02*
X397066D01*
X396172Y612466D02*
X397066Y599671D01*
X355689Y594159D02*
Y599671D01*
X356583Y612466D01*
X267049Y351781D02*
X283781D01*
Y318316D02*
Y351781D01*
X250316Y324911D02*
Y345186D01*
X256911Y351781D01*
X267049D01*
X256911Y318316D02*
X267049D01*
X250316Y324911D02*
X256911Y318316D01*
X267049D02*
X283781D01*
X125219Y177719D02*
X141952D01*
X125219D02*
Y211184D01*
X158684Y184314D02*
Y204589D01*
X152089Y177719D02*
X158684Y184314D01*
X141952Y177719D02*
X152089D01*
X141952Y211184D02*
X152089D01*
X158684Y204589D01*
X125219Y211184D02*
X141952D01*
X87219Y107548D02*
Y124281D01*
X120684D01*
X93814Y90816D02*
X114089D01*
X87219Y97411D02*
X93814Y90816D01*
X87219Y97411D02*
Y107548D01*
X120684Y97411D02*
Y107548D01*
X114089Y90816D02*
X120684Y97411D01*
Y107548D02*
Y124281D01*
X78219Y230048D02*
Y246781D01*
X111684D01*
X84814Y213316D02*
X105089D01*
X78219Y219911D02*
X84814Y213316D01*
X78219Y219911D02*
Y230048D01*
X111684Y219911D02*
Y230048D01*
X105089Y213316D02*
X111684Y219911D01*
Y230048D02*
Y246781D01*
X561512Y466229D02*
Y471741D01*
X562406Y453434D02*
X601995D01*
X561512Y471741D02*
X602889D01*
X561512Y466229D02*
X602889D01*
X561512D02*
X562406Y453434D01*
X602889Y466229D02*
Y471741D01*
X601995Y453434D02*
X602889Y466229D01*
X599266Y594159D02*
Y599671D01*
X558783Y612466D02*
X598372D01*
X557889Y594159D02*
X599266D01*
X557889Y599671D02*
X599266D01*
X598372Y612466D02*
X599266Y599671D01*
X557889Y594159D02*
Y599671D01*
X558783Y612466D01*
X359312Y466229D02*
Y471741D01*
X360206Y453434D02*
X399795D01*
X359312Y471741D02*
X400689D01*
X359312Y466229D02*
X400689D01*
X359312D02*
X360206Y453434D01*
X400689Y466229D02*
Y471741D01*
X399795Y453434D02*
X400689Y466229D01*
X640700Y460900D02*
X641700Y462400D01*
X649700Y461900D01*
X650700Y462900D01*
Y464400D01*
X639200Y469400D02*
X650700Y464400D01*
X639200Y469400D02*
X642200Y475900D01*
X522200D02*
X525200Y482400D01*
X513700Y487400D02*
X525200Y482400D01*
X513700Y487400D02*
Y488900D01*
X514700Y489900D01*
X522700Y489400D01*
X523700Y490900D01*
X639200Y482400D02*
X642200Y475900D01*
X639200Y482400D02*
X650700Y487400D01*
Y488900D01*
X649700Y489900D02*
X650700Y488900D01*
X641700Y489400D02*
X649700Y489900D01*
X640700Y490900D02*
X641700Y489400D01*
X522200Y475900D02*
X525200Y469400D01*
X513700Y464400D02*
X525200Y469400D01*
X513700Y462900D02*
Y464400D01*
Y462900D02*
X514700Y461900D01*
X522700Y462400D01*
X523700Y460900D01*
X640700D02*
X649700Y451900D01*
X647700Y450900D02*
X649700Y451900D01*
X634200Y459400D02*
X647700Y450900D01*
X632700Y459400D02*
X634200D01*
X632200Y458400D02*
X632700Y459400D01*
X632200Y458400D02*
X633700Y450900D01*
X632200D02*
X633700D01*
X622200Y460900D02*
X632200Y450900D01*
X620700Y460900D02*
X622200D01*
X620637Y450900D02*
X620700Y460900D01*
X617200Y450900D02*
X620637D01*
X617200D02*
Y472800D01*
X547200D02*
X617200D01*
X547200Y479000D02*
X617200D01*
X547200D02*
Y500900D01*
X543763D02*
X547200D01*
X543700Y490900D02*
X543763Y500900D01*
X542200Y490900D02*
X543700D01*
X532200Y500900D02*
X542200Y490900D01*
X530700Y500900D02*
X532200D01*
X530700D02*
X532200Y493400D01*
X531700Y492400D02*
X532200Y493400D01*
X530200Y492400D02*
X531700D01*
X516700Y500900D02*
X530200Y492400D01*
X514700Y499900D02*
X516700Y500900D01*
X514700Y499900D02*
X523700Y490900D01*
X617200Y479000D02*
Y500900D01*
X620637D01*
X620700Y490900D01*
X622200D01*
X632200Y500900D01*
X633700D01*
X632200Y493400D02*
X633700Y500900D01*
X632200Y493400D02*
X632700Y492400D01*
X634200D01*
X647700Y500900D01*
X649700Y499900D01*
X640700Y490900D02*
X649700Y499900D01*
X547200Y450900D02*
Y472800D01*
X543763Y450900D02*
X547200D01*
X543700Y460900D02*
X543763Y450900D01*
X542200Y460900D02*
X543700D01*
X532200Y450900D02*
X542200Y460900D01*
X530700Y450900D02*
X532200D01*
X530700D02*
X532200Y458400D01*
X531700Y459400D02*
X532200Y458400D01*
X530200Y459400D02*
X531700D01*
X516700Y450900D02*
X530200Y459400D01*
X514700Y451900D02*
X516700Y450900D01*
X514700Y451900D02*
X523700Y460900D01*
X638278Y575000D02*
X639278Y576500D01*
X647278Y576000D01*
X648278Y577000D01*
Y578500D01*
X636778Y583500D02*
X648278Y578500D01*
X636778Y583500D02*
X639778Y590000D01*
X519778D02*
X522778Y596500D01*
X511278Y601500D02*
X522778Y596500D01*
X511278Y601500D02*
Y603000D01*
X512278Y604000D01*
X520278Y603500D01*
X521278Y605000D01*
X636778Y596500D02*
X639778Y590000D01*
X636778Y596500D02*
X648278Y601500D01*
Y603000D01*
X647278Y604000D02*
X648278Y603000D01*
X639278Y603500D02*
X647278Y604000D01*
X638278Y605000D02*
X639278Y603500D01*
X519778Y590000D02*
X522778Y583500D01*
X511278Y578500D02*
X522778Y583500D01*
X511278Y577000D02*
Y578500D01*
Y577000D02*
X512278Y576000D01*
X520278Y576500D01*
X521278Y575000D01*
X638278D02*
X647278Y566000D01*
X645278Y565000D02*
X647278Y566000D01*
X631778Y573500D02*
X645278Y565000D01*
X630278Y573500D02*
X631778D01*
X629778Y572500D02*
X630278Y573500D01*
X629778Y572500D02*
X631278Y565000D01*
X629778D02*
X631278D01*
X619778Y575000D02*
X629778Y565000D01*
X618278Y575000D02*
X619778D01*
X618215Y565000D02*
X618278Y575000D01*
X614778Y565000D02*
X618215D01*
X614778D02*
Y586900D01*
X544778D02*
X614778D01*
X544778Y593100D02*
X614778D01*
X544778D02*
Y615000D01*
X541341D02*
X544778D01*
X541278Y605000D02*
X541341Y615000D01*
X539778Y605000D02*
X541278D01*
X529778Y615000D02*
X539778Y605000D01*
X528278Y615000D02*
X529778D01*
X528278D02*
X529778Y607500D01*
X529278Y606500D02*
X529778Y607500D01*
X527778Y606500D02*
X529278D01*
X514278Y615000D02*
X527778Y606500D01*
X512278Y614000D02*
X514278Y615000D01*
X512278Y614000D02*
X521278Y605000D01*
X614778Y593100D02*
Y615000D01*
X618215D01*
X618278Y605000D01*
X619778D01*
X629778Y615000D01*
X631278D01*
X629778Y607500D02*
X631278Y615000D01*
X629778Y607500D02*
X630278Y606500D01*
X631778D01*
X645278Y615000D01*
X647278Y614000D01*
X638278Y605000D02*
X647278Y614000D01*
X544778Y565000D02*
Y586900D01*
X541341Y565000D02*
X544778D01*
X541278Y575000D02*
X541341Y565000D01*
X539778Y575000D02*
X541278D01*
X529778Y565000D02*
X539778Y575000D01*
X528278Y565000D02*
X529778D01*
X528278D02*
X529778Y572500D01*
X529278Y573500D02*
X529778Y572500D01*
X527778Y573500D02*
X529278D01*
X514278Y565000D02*
X527778Y573500D01*
X512278Y566000D02*
X514278Y565000D01*
X512278Y566000D02*
X521278Y575000D01*
X320500Y489400D02*
X321500Y490900D01*
X312500Y489900D02*
X320500Y489400D01*
X311500Y488900D02*
X312500Y489900D01*
X311500Y487400D02*
Y488900D01*
Y487400D02*
X323000Y482400D01*
X320000Y475900D02*
X323000Y482400D01*
X437000Y469400D02*
X440000Y475900D01*
X437000Y469400D02*
X448500Y464400D01*
Y462900D02*
Y464400D01*
X447500Y461900D02*
X448500Y462900D01*
X439500Y462400D02*
X447500Y461900D01*
X438500Y460900D02*
X439500Y462400D01*
X320000Y475900D02*
X323000Y469400D01*
X311500Y464400D02*
X323000Y469400D01*
X311500Y462900D02*
Y464400D01*
Y462900D02*
X312500Y461900D01*
X320500Y462400D01*
X321500Y460900D01*
X437000Y482400D02*
X440000Y475900D01*
X437000Y482400D02*
X448500Y487400D01*
Y488900D01*
X447500Y489900D02*
X448500Y488900D01*
X439500Y489400D02*
X447500Y489900D01*
X438500Y490900D02*
X439500Y489400D01*
X312500Y499900D02*
X321500Y490900D01*
X312500Y499900D02*
X314500Y500900D01*
X328000Y492400D01*
X329500D01*
X330000Y493400D01*
X328500Y500900D02*
X330000Y493400D01*
X328500Y500900D02*
X330000D01*
X340000Y490900D01*
X341500D01*
X341563Y500900D01*
X345000D01*
Y479000D02*
Y500900D01*
Y479000D02*
X415000D01*
X345000Y472800D02*
X415000D01*
Y450900D02*
Y472800D01*
Y450900D02*
X418437D01*
X418500Y460900D01*
X420000D01*
X430000Y450900D01*
X431500D01*
X430000Y458400D02*
X431500Y450900D01*
X430000Y458400D02*
X430500Y459400D01*
X432000D01*
X445500Y450900D01*
X447500Y451900D01*
X438500Y460900D02*
X447500Y451900D01*
X345000Y450900D02*
Y472800D01*
X341563Y450900D02*
X345000D01*
X341500Y460900D02*
X341563Y450900D01*
X340000Y460900D02*
X341500D01*
X330000Y450900D02*
X340000Y460900D01*
X328500Y450900D02*
X330000D01*
X328500D02*
X330000Y458400D01*
X329500Y459400D02*
X330000Y458400D01*
X328000Y459400D02*
X329500D01*
X314500Y450900D02*
X328000Y459400D01*
X312500Y451900D02*
X314500Y450900D01*
X312500Y451900D02*
X321500Y460900D01*
X415000Y479000D02*
Y500900D01*
X418437D01*
X418500Y490900D01*
X420000D01*
X430000Y500900D01*
X431500D01*
X430000Y493400D02*
X431500Y500900D01*
X430000Y493400D02*
X430500Y492400D01*
X432000D01*
X445500Y500900D01*
X447500Y499900D01*
X438500Y490900D02*
X447500Y499900D01*
X55169Y493071D02*
Y501929D01*
X38831D02*
X55169D01*
X38831Y493071D02*
Y501929D01*
Y493071D02*
X55169D01*
X14331D02*
Y501929D01*
Y493071D02*
X30669D01*
Y501929D01*
X14331D02*
X30669D01*
X1075169Y249071D02*
Y257929D01*
X1058831D02*
X1075169D01*
X1058831Y249071D02*
Y257929D01*
Y249071D02*
X1075169D01*
X113766Y265923D02*
Y267542D01*
X112316Y271473D02*
X113766D01*
X112316Y268286D02*
Y269986D01*
X113766Y267542D02*
Y268286D01*
X112316D02*
X113766D01*
Y269986D02*
Y271473D01*
X112316Y267542D02*
Y268286D01*
Y265923D02*
Y267542D01*
Y265923D02*
X113766D01*
X112316Y269986D02*
Y271473D01*
X113766Y268286D02*
Y269986D01*
X108766Y265923D02*
Y267542D01*
X107316Y271473D02*
X108766D01*
X107316Y268286D02*
Y269986D01*
X108766Y267542D02*
Y268286D01*
X107316D02*
X108766D01*
Y269986D02*
Y271473D01*
X107316Y267542D02*
Y268286D01*
Y265923D02*
Y267542D01*
Y265923D02*
X108766D01*
X107316Y269986D02*
Y271473D01*
X108766Y268286D02*
Y269986D01*
X103766Y265923D02*
Y267542D01*
X102316Y271473D02*
X103766D01*
X102316Y268286D02*
Y269986D01*
X103766Y267542D02*
Y268286D01*
X102316D02*
X103766D01*
Y269986D02*
Y271473D01*
X102316Y267542D02*
Y268286D01*
Y265923D02*
Y267542D01*
Y265923D02*
X103766D01*
X102316Y269986D02*
Y271473D01*
X103766Y268286D02*
Y269986D01*
X98766Y265923D02*
Y267542D01*
X97316Y271473D02*
X98766D01*
X97316Y268286D02*
Y269986D01*
X98766Y267542D02*
Y268286D01*
X97316D02*
X98766D01*
Y269986D02*
Y271473D01*
X97316Y267542D02*
Y268286D01*
Y265923D02*
Y267542D01*
Y265923D02*
X98766D01*
X97316Y269986D02*
Y271473D01*
X98766Y268286D02*
Y269986D01*
X93766Y265923D02*
Y267542D01*
X92316Y271473D02*
X93766D01*
X92316Y268286D02*
Y269986D01*
X93766Y267542D02*
Y268286D01*
X92316D02*
X93766D01*
Y269986D02*
Y271473D01*
X92316Y267542D02*
Y268286D01*
Y265923D02*
Y267542D01*
Y265923D02*
X93766D01*
X92316Y269986D02*
Y271473D01*
X93766Y268286D02*
Y269986D01*
X88766Y265923D02*
Y267542D01*
X87316Y271473D02*
X88766D01*
X87316Y268286D02*
Y269986D01*
X88766Y267542D02*
Y268286D01*
X87316D02*
X88766D01*
Y269986D02*
Y271473D01*
X87316Y267542D02*
Y268286D01*
Y265923D02*
Y267542D01*
Y265923D02*
X88766D01*
X87316Y269986D02*
Y271473D01*
X88766Y268286D02*
Y269986D01*
X83766Y265923D02*
Y267542D01*
X82316Y271473D02*
X83766D01*
X82316Y268286D02*
Y269986D01*
X83766Y267542D02*
Y268286D01*
X82316D02*
X83766D01*
Y269986D02*
Y271473D01*
X82316Y267542D02*
Y268286D01*
Y265923D02*
Y267542D01*
Y265923D02*
X83766D01*
X82316Y269986D02*
Y271473D01*
X83766Y268286D02*
Y269986D01*
X78766Y265923D02*
Y267542D01*
X77316Y271473D02*
X78766D01*
X77316Y268286D02*
Y269986D01*
X78766Y267542D02*
Y268286D01*
X77316D02*
X78766D01*
Y269986D02*
Y271473D01*
X77316Y267542D02*
Y268286D01*
Y265923D02*
Y267542D01*
Y265923D02*
X78766D01*
X77316Y269986D02*
Y271473D01*
X78766Y268286D02*
Y269986D01*
X112316Y304805D02*
Y306423D01*
Y300873D02*
X113766D01*
Y302361D02*
Y304061D01*
X112316D02*
Y304805D01*
Y304061D02*
X113766D01*
X112316Y300873D02*
Y302361D01*
X113766Y304061D02*
Y304805D01*
Y306423D01*
X112316D02*
X113766D01*
Y300873D02*
Y302361D01*
X112316D02*
Y304061D01*
X107316Y304805D02*
Y306423D01*
Y300873D02*
X108766D01*
Y302361D02*
Y304061D01*
X107316D02*
Y304805D01*
Y304061D02*
X108766D01*
X107316Y300873D02*
Y302361D01*
X108766Y304061D02*
Y304805D01*
Y306423D01*
X107316D02*
X108766D01*
Y300873D02*
Y302361D01*
X107316D02*
Y304061D01*
X102316Y304805D02*
Y306423D01*
Y300873D02*
X103766D01*
Y302361D02*
Y304061D01*
X102316D02*
Y304805D01*
Y304061D02*
X103766D01*
X102316Y300873D02*
Y302361D01*
X103766Y304061D02*
Y304805D01*
Y306423D01*
X102316D02*
X103766D01*
Y300873D02*
Y302361D01*
X102316D02*
Y304061D01*
X97316Y304805D02*
Y306423D01*
Y300873D02*
X98766D01*
Y302361D02*
Y304061D01*
X97316D02*
Y304805D01*
Y304061D02*
X98766D01*
X97316Y300873D02*
Y302361D01*
X98766Y304061D02*
Y304805D01*
Y306423D01*
X97316D02*
X98766D01*
Y300873D02*
Y302361D01*
X97316D02*
Y304061D01*
X92316Y304805D02*
Y306423D01*
Y300873D02*
X93766D01*
Y302361D02*
Y304061D01*
X92316D02*
Y304805D01*
Y304061D02*
X93766D01*
X92316Y300873D02*
Y302361D01*
X93766Y304061D02*
Y304805D01*
Y306423D01*
X92316D02*
X93766D01*
Y300873D02*
Y302361D01*
X92316D02*
Y304061D01*
X87316Y304805D02*
Y306423D01*
Y300873D02*
X88766D01*
Y302361D02*
Y304061D01*
X87316D02*
Y304805D01*
Y304061D02*
X88766D01*
X87316Y300873D02*
Y302361D01*
X88766Y304061D02*
Y304805D01*
Y306423D01*
X87316D02*
X88766D01*
Y300873D02*
Y302361D01*
X87316D02*
Y304061D01*
X82316Y304805D02*
Y306423D01*
Y300873D02*
X83766D01*
Y302361D02*
Y304061D01*
X82316D02*
Y304805D01*
Y304061D02*
X83766D01*
X82316Y300873D02*
Y302361D01*
X83766Y304061D02*
Y304805D01*
Y306423D01*
X82316D02*
X83766D01*
Y300873D02*
Y302361D01*
X82316D02*
Y304061D01*
X77316Y304805D02*
Y306423D01*
Y300873D02*
X78766D01*
Y302361D02*
Y304061D01*
X77316D02*
Y304805D01*
Y304061D02*
X78766D01*
X77316Y300873D02*
Y302361D01*
X78766Y304061D02*
Y304805D01*
Y306423D01*
X77316D02*
X78766D01*
Y300873D02*
Y302361D01*
X77316D02*
Y304061D01*
X115285Y290177D02*
X115293Y290173D01*
X115354Y290172D01*
X115741Y271972D02*
Y300375D01*
X75341Y271972D02*
Y300375D01*
X115293Y282174D02*
X115354Y282175D01*
X75839Y300873D02*
X115243D01*
X75839Y271473D02*
X115243D01*
X115285Y282170D02*
X115293Y282174D01*
X115354Y282175D02*
Y290172D01*
X761776Y215291D02*
X763394D01*
X767326D02*
Y216741D01*
X764138D02*
X765838D01*
X763394Y215291D02*
X764138D01*
Y216741D01*
X765838Y215291D02*
X767326D01*
X763394Y216741D02*
X764138D01*
X761776D02*
X763394D01*
X761776Y215291D02*
Y216741D01*
X765838D02*
X767326D01*
X764138Y215291D02*
X765838D01*
X761776Y220291D02*
X763394D01*
X767326D02*
Y221741D01*
X764138D02*
X765838D01*
X763394Y220291D02*
X764138D01*
Y221741D01*
X765838Y220291D02*
X767326D01*
X763394Y221741D02*
X764138D01*
X761776D02*
X763394D01*
X761776Y220291D02*
Y221741D01*
X765838D02*
X767326D01*
X764138Y220291D02*
X765838D01*
X761776Y225291D02*
X763394D01*
X767326D02*
Y226741D01*
X764138D02*
X765838D01*
X763394Y225291D02*
X764138D01*
Y226741D01*
X765838Y225291D02*
X767326D01*
X763394Y226741D02*
X764138D01*
X761776D02*
X763394D01*
X761776Y225291D02*
Y226741D01*
X765838D02*
X767326D01*
X764138Y225291D02*
X765838D01*
X761776Y230291D02*
X763394D01*
X767326D02*
Y231741D01*
X764138D02*
X765838D01*
X763394Y230291D02*
X764138D01*
Y231741D01*
X765838Y230291D02*
X767326D01*
X763394Y231741D02*
X764138D01*
X761776D02*
X763394D01*
X761776Y230291D02*
Y231741D01*
X765838D02*
X767326D01*
X764138Y230291D02*
X765838D01*
X761776Y235291D02*
X763394D01*
X767326D02*
Y236741D01*
X764138D02*
X765838D01*
X763394Y235291D02*
X764138D01*
Y236741D01*
X765838Y235291D02*
X767326D01*
X763394Y236741D02*
X764138D01*
X761776D02*
X763394D01*
X761776Y235291D02*
Y236741D01*
X765838D02*
X767326D01*
X764138Y235291D02*
X765838D01*
X761776Y240291D02*
X763394D01*
X767326D02*
Y241741D01*
X764138D02*
X765838D01*
X763394Y240291D02*
X764138D01*
Y241741D01*
X765838Y240291D02*
X767326D01*
X763394Y241741D02*
X764138D01*
X761776D02*
X763394D01*
X761776Y240291D02*
Y241741D01*
X765838D02*
X767326D01*
X764138Y240291D02*
X765838D01*
X761776Y245291D02*
X763394D01*
X767326D02*
Y246741D01*
X764138D02*
X765838D01*
X763394Y245291D02*
X764138D01*
Y246741D01*
X765838Y245291D02*
X767326D01*
X763394Y246741D02*
X764138D01*
X761776D02*
X763394D01*
X761776Y245291D02*
Y246741D01*
X765838D02*
X767326D01*
X764138Y245291D02*
X765838D01*
X761776Y250291D02*
X763394D01*
X767326D02*
Y251741D01*
X764138D02*
X765838D01*
X763394Y250291D02*
X764138D01*
Y251741D01*
X765838Y250291D02*
X767326D01*
X763394Y251741D02*
X764138D01*
X761776D02*
X763394D01*
X761776Y250291D02*
Y251741D01*
X765838D02*
X767326D01*
X764138Y250291D02*
X765838D01*
X800657Y216741D02*
X802276D01*
X796726Y215291D02*
Y216741D01*
X798213Y215291D02*
X799913D01*
Y216741D02*
X800657D01*
X799913Y215291D02*
Y216741D01*
X796726D02*
X798213D01*
X799913Y215291D02*
X800657D01*
X802276D01*
Y216741D01*
X796726Y215291D02*
X798213D01*
Y216741D02*
X799913D01*
X800657Y221741D02*
X802276D01*
X796726Y220291D02*
Y221741D01*
X798213Y220291D02*
X799913D01*
Y221741D02*
X800657D01*
X799913Y220291D02*
Y221741D01*
X796726D02*
X798213D01*
X799913Y220291D02*
X800657D01*
X802276D01*
Y221741D01*
X796726Y220291D02*
X798213D01*
Y221741D02*
X799913D01*
X800657Y226741D02*
X802276D01*
X796726Y225291D02*
Y226741D01*
X798213Y225291D02*
X799913D01*
Y226741D02*
X800657D01*
X799913Y225291D02*
Y226741D01*
X796726D02*
X798213D01*
X799913Y225291D02*
X800657D01*
X802276D01*
Y226741D01*
X796726Y225291D02*
X798213D01*
Y226741D02*
X799913D01*
X800657Y231741D02*
X802276D01*
X796726Y230291D02*
Y231741D01*
X798213Y230291D02*
X799913D01*
Y231741D02*
X800657D01*
X799913Y230291D02*
Y231741D01*
X796726D02*
X798213D01*
X799913Y230291D02*
X800657D01*
X802276D01*
Y231741D01*
X796726Y230291D02*
X798213D01*
Y231741D02*
X799913D01*
X800657Y236741D02*
X802276D01*
X796726Y235291D02*
Y236741D01*
X798213Y235291D02*
X799913D01*
Y236741D02*
X800657D01*
X799913Y235291D02*
Y236741D01*
X796726D02*
X798213D01*
X799913Y235291D02*
X800657D01*
X802276D01*
Y236741D01*
X796726Y235291D02*
X798213D01*
Y236741D02*
X799913D01*
X800657Y241741D02*
X802276D01*
X796726Y240291D02*
Y241741D01*
X798213Y240291D02*
X799913D01*
Y241741D02*
X800657D01*
X799913Y240291D02*
Y241741D01*
X796726D02*
X798213D01*
X799913Y240291D02*
X800657D01*
X802276D01*
Y241741D01*
X796726Y240291D02*
X798213D01*
Y241741D02*
X799913D01*
X800657Y246741D02*
X802276D01*
X796726Y245291D02*
Y246741D01*
X798213Y245291D02*
X799913D01*
Y246741D02*
X800657D01*
X799913Y245291D02*
Y246741D01*
X796726D02*
X798213D01*
X799913Y245291D02*
X800657D01*
X802276D01*
Y246741D01*
X796726Y245291D02*
X798213D01*
Y246741D02*
X799913D01*
X800657Y251741D02*
X802276D01*
X796726Y250291D02*
Y251741D01*
X798213Y250291D02*
X799913D01*
Y251741D02*
X800657D01*
X799913Y250291D02*
Y251741D01*
X796726D02*
X798213D01*
X799913Y250291D02*
X800657D01*
X802276D01*
Y251741D01*
X796726Y250291D02*
X798213D01*
Y251741D02*
X799913D01*
X786025Y213765D02*
X786029Y213772D01*
X786024Y213703D02*
X786025Y213765D01*
X767824Y213316D02*
X796228D01*
X767824Y253716D02*
X796228D01*
X778026Y213765D02*
X778027Y213703D01*
X796726Y213814D02*
Y253218D01*
X767326Y213814D02*
Y253218D01*
X778022Y213772D02*
X778026Y213765D01*
X778027Y213703D02*
X786024D01*
X761776Y144791D02*
X763394D01*
X767326D02*
Y146241D01*
X764138D02*
X765838D01*
X763394Y144791D02*
X764138D01*
Y146241D01*
X765838Y144791D02*
X767326D01*
X763394Y146241D02*
X764138D01*
X761776D02*
X763394D01*
X761776Y144791D02*
Y146241D01*
X765838D02*
X767326D01*
X764138Y144791D02*
X765838D01*
X761776Y149791D02*
X763394D01*
X767326D02*
Y151241D01*
X764138D02*
X765838D01*
X763394Y149791D02*
X764138D01*
Y151241D01*
X765838Y149791D02*
X767326D01*
X763394Y151241D02*
X764138D01*
X761776D02*
X763394D01*
X761776Y149791D02*
Y151241D01*
X765838D02*
X767326D01*
X764138Y149791D02*
X765838D01*
X761776Y154791D02*
X763394D01*
X767326D02*
Y156241D01*
X764138D02*
X765838D01*
X763394Y154791D02*
X764138D01*
Y156241D01*
X765838Y154791D02*
X767326D01*
X763394Y156241D02*
X764138D01*
X761776D02*
X763394D01*
X761776Y154791D02*
Y156241D01*
X765838D02*
X767326D01*
X764138Y154791D02*
X765838D01*
X761776Y159791D02*
X763394D01*
X767326D02*
Y161241D01*
X764138D02*
X765838D01*
X763394Y159791D02*
X764138D01*
Y161241D01*
X765838Y159791D02*
X767326D01*
X763394Y161241D02*
X764138D01*
X761776D02*
X763394D01*
X761776Y159791D02*
Y161241D01*
X765838D02*
X767326D01*
X764138Y159791D02*
X765838D01*
X761776Y164791D02*
X763394D01*
X767326D02*
Y166241D01*
X764138D02*
X765838D01*
X763394Y164791D02*
X764138D01*
Y166241D01*
X765838Y164791D02*
X767326D01*
X763394Y166241D02*
X764138D01*
X761776D02*
X763394D01*
X761776Y164791D02*
Y166241D01*
X765838D02*
X767326D01*
X764138Y164791D02*
X765838D01*
X761776Y169791D02*
X763394D01*
X767326D02*
Y171241D01*
X764138D02*
X765838D01*
X763394Y169791D02*
X764138D01*
Y171241D01*
X765838Y169791D02*
X767326D01*
X763394Y171241D02*
X764138D01*
X761776D02*
X763394D01*
X761776Y169791D02*
Y171241D01*
X765838D02*
X767326D01*
X764138Y169791D02*
X765838D01*
X761776Y174791D02*
X763394D01*
X767326D02*
Y176241D01*
X764138D02*
X765838D01*
X763394Y174791D02*
X764138D01*
Y176241D01*
X765838Y174791D02*
X767326D01*
X763394Y176241D02*
X764138D01*
X761776D02*
X763394D01*
X761776Y174791D02*
Y176241D01*
X765838D02*
X767326D01*
X764138Y174791D02*
X765838D01*
X761776Y179791D02*
X763394D01*
X767326D02*
Y181241D01*
X764138D02*
X765838D01*
X763394Y179791D02*
X764138D01*
Y181241D01*
X765838Y179791D02*
X767326D01*
X763394Y181241D02*
X764138D01*
X761776D02*
X763394D01*
X761776Y179791D02*
Y181241D01*
X765838D02*
X767326D01*
X764138Y179791D02*
X765838D01*
X800657Y146241D02*
X802276D01*
X796726Y144791D02*
Y146241D01*
X798213Y144791D02*
X799913D01*
Y146241D02*
X800657D01*
X799913Y144791D02*
Y146241D01*
X796726D02*
X798213D01*
X799913Y144791D02*
X800657D01*
X802276D01*
Y146241D01*
X796726Y144791D02*
X798213D01*
Y146241D02*
X799913D01*
X800657Y151241D02*
X802276D01*
X796726Y149791D02*
Y151241D01*
X798213Y149791D02*
X799913D01*
Y151241D02*
X800657D01*
X799913Y149791D02*
Y151241D01*
X796726D02*
X798213D01*
X799913Y149791D02*
X800657D01*
X802276D01*
Y151241D01*
X796726Y149791D02*
X798213D01*
Y151241D02*
X799913D01*
X800657Y156241D02*
X802276D01*
X796726Y154791D02*
Y156241D01*
X798213Y154791D02*
X799913D01*
Y156241D02*
X800657D01*
X799913Y154791D02*
Y156241D01*
X796726D02*
X798213D01*
X799913Y154791D02*
X800657D01*
X802276D01*
Y156241D01*
X796726Y154791D02*
X798213D01*
Y156241D02*
X799913D01*
X800657Y161241D02*
X802276D01*
X796726Y159791D02*
Y161241D01*
X798213Y159791D02*
X799913D01*
Y161241D02*
X800657D01*
X799913Y159791D02*
Y161241D01*
X796726D02*
X798213D01*
X799913Y159791D02*
X800657D01*
X802276D01*
Y161241D01*
X796726Y159791D02*
X798213D01*
Y161241D02*
X799913D01*
X800657Y166241D02*
X802276D01*
X796726Y164791D02*
Y166241D01*
X798213Y164791D02*
X799913D01*
Y166241D02*
X800657D01*
X799913Y164791D02*
Y166241D01*
X796726D02*
X798213D01*
X799913Y164791D02*
X800657D01*
X802276D01*
Y166241D01*
X796726Y164791D02*
X798213D01*
Y166241D02*
X799913D01*
X800657Y171241D02*
X802276D01*
X796726Y169791D02*
Y171241D01*
X798213Y169791D02*
X799913D01*
Y171241D02*
X800657D01*
X799913Y169791D02*
Y171241D01*
X796726D02*
X798213D01*
X799913Y169791D02*
X800657D01*
X802276D01*
Y171241D01*
X796726Y169791D02*
X798213D01*
Y171241D02*
X799913D01*
X800657Y176241D02*
X802276D01*
X796726Y174791D02*
Y176241D01*
X798213Y174791D02*
X799913D01*
Y176241D02*
X800657D01*
X799913Y174791D02*
Y176241D01*
X796726D02*
X798213D01*
X799913Y174791D02*
X800657D01*
X802276D01*
Y176241D01*
X796726Y174791D02*
X798213D01*
Y176241D02*
X799913D01*
X800657Y181241D02*
X802276D01*
X796726Y179791D02*
Y181241D01*
X798213Y179791D02*
X799913D01*
Y181241D02*
X800657D01*
X799913Y179791D02*
Y181241D01*
X796726D02*
X798213D01*
X799913Y179791D02*
X800657D01*
X802276D01*
Y181241D01*
X796726Y179791D02*
X798213D01*
Y181241D02*
X799913D01*
X786025Y143264D02*
X786029Y143272D01*
X786024Y143203D02*
X786025Y143264D01*
X767824Y142816D02*
X796228D01*
X767824Y183216D02*
X796228D01*
X778026Y143264D02*
X778027Y143203D01*
X796726Y143314D02*
Y182718D01*
X767326Y143314D02*
Y182718D01*
X778022Y143272D02*
X778026Y143264D01*
X778027Y143203D02*
X786024D01*
X36719Y170048D02*
Y186781D01*
X70184D01*
X43314Y153316D02*
X63589D01*
X36719Y159911D02*
X43314Y153316D01*
X36719Y159911D02*
Y170048D01*
X70184Y159911D02*
Y170048D01*
X63589Y153316D02*
X70184Y159911D01*
Y170048D02*
Y186781D01*
X760600Y425000D02*
X757401D01*
Y426600D01*
X757934Y427133D01*
X759000D01*
X759534Y426600D01*
Y425000D01*
Y426066D02*
X760600Y427133D01*
X757934Y428199D02*
X757401Y428732D01*
Y429798D01*
X757934Y430332D01*
X758467D01*
X759000Y429798D01*
Y429265D01*
Y429798D01*
X759534Y430332D01*
X760067D01*
X760600Y429798D01*
Y428732D01*
X760067Y428199D01*
X757934Y431398D02*
X757401Y431931D01*
Y432997D01*
X757934Y433531D01*
X758467D01*
X759000Y432997D01*
Y432464D01*
Y432997D01*
X759534Y433531D01*
X760067D01*
X760600Y432997D01*
Y431931D01*
X760067Y431398D01*
X834500Y300000D02*
X831301D01*
Y301600D01*
X831834Y302133D01*
X832901D01*
X833434Y301600D01*
Y300000D01*
Y301066D02*
X834500Y302133D01*
X831834Y303199D02*
X831301Y303732D01*
Y304799D01*
X831834Y305332D01*
X832367D01*
X832901Y304799D01*
Y304265D01*
Y304799D01*
X833434Y305332D01*
X833967D01*
X834500Y304799D01*
Y303732D01*
X833967Y303199D01*
X831834Y306398D02*
X831301Y306931D01*
Y307997D01*
X831834Y308531D01*
X833967D01*
X834500Y307997D01*
Y306931D01*
X833967Y306398D01*
X831834D01*
X790200Y424747D02*
X787001D01*
Y426346D01*
X787534Y426879D01*
X788600D01*
X789134Y426346D01*
Y424747D01*
Y425813D02*
X790200Y426879D01*
Y430078D02*
Y427945D01*
X788067Y430078D01*
X787534D01*
X787001Y429545D01*
Y428479D01*
X787534Y427945D01*
Y431144D02*
X787001Y431678D01*
Y432744D01*
X787534Y433277D01*
X789667D01*
X790200Y432744D01*
Y431678D01*
X789667Y431144D01*
X787534D01*
X780500Y425400D02*
X777301D01*
Y427000D01*
X777834Y427533D01*
X778900D01*
X779434Y427000D01*
Y425400D01*
Y426466D02*
X780500Y427533D01*
Y428599D02*
Y429665D01*
Y429132D01*
X777301D01*
X777834Y428599D01*
X777301Y431265D02*
Y433397D01*
X777834D01*
X779967Y431265D01*
X780500D01*
X770600Y425046D02*
X767401D01*
Y426646D01*
X767934Y427179D01*
X769000D01*
X769534Y426646D01*
Y425046D01*
Y426113D02*
X770600Y427179D01*
Y428245D02*
Y429312D01*
Y428779D01*
X767401D01*
X767934Y428245D01*
X770600Y432511D02*
X767401D01*
X769000Y430911D01*
Y433044D01*
X775801Y275500D02*
X779000D01*
Y277633D01*
Y278699D02*
Y279765D01*
Y279232D01*
X775801D01*
X776334Y278699D01*
Y281365D02*
X775801Y281898D01*
Y282964D01*
X776334Y283497D01*
X778467D01*
X779000Y282964D01*
Y281898D01*
X778467Y281365D01*
X776334D01*
X778133Y268166D02*
X777599Y268699D01*
X776533D01*
X776000Y268166D01*
Y266033D01*
X776533Y265500D01*
X777599D01*
X778133Y266033D01*
X781332Y265500D02*
X779199D01*
X781332Y267633D01*
Y268166D01*
X780798Y268699D01*
X779732D01*
X779199Y268166D01*
X782398Y268699D02*
X784531D01*
Y268166D01*
X782398Y266033D01*
Y265500D01*
X784534Y277633D02*
X784001Y277099D01*
Y276033D01*
X784534Y275500D01*
X786667D01*
X787200Y276033D01*
Y277099D01*
X786667Y277633D01*
X787200Y278699D02*
Y279765D01*
Y279232D01*
X784001D01*
X784534Y278699D01*
X784001Y283497D02*
Y281365D01*
X785601D01*
X785067Y282431D01*
Y282964D01*
X785601Y283497D01*
X786667D01*
X787200Y282964D01*
Y281898D01*
X786667Y281365D01*
X444501Y179000D02*
X447834D01*
X448500Y179666D01*
Y180999D01*
X447834Y181666D01*
X444501D01*
X448500Y182999D02*
Y184332D01*
Y183665D01*
X444501D01*
X445168Y182999D01*
X444501Y188997D02*
Y186331D01*
X446501D01*
X445834Y187664D01*
Y188330D01*
X446501Y188997D01*
X447834D01*
X448500Y188330D01*
Y186997D01*
X447834Y186331D01*
X931913Y119532D02*
Y123530D01*
X933913D01*
X934579Y122864D01*
Y121531D01*
X933913Y120864D01*
X931913D01*
X933246D02*
X934579Y119532D01*
X935912Y123530D02*
Y120864D01*
X937245Y119532D01*
X938578Y120864D01*
Y123530D01*
X939911Y119532D02*
X941244D01*
X940577D01*
Y123530D01*
X939911Y122864D01*
X93801Y189500D02*
X97000D01*
Y191633D01*
Y192699D02*
Y193765D01*
Y193232D01*
X93801D01*
X94334Y192699D01*
X96467Y195365D02*
X97000Y195898D01*
Y196964D01*
X96467Y197497D01*
X94334D01*
X93801Y196964D01*
Y195898D01*
X94334Y195365D01*
X94867D01*
X95401Y195898D01*
Y197497D01*
X716633Y341166D02*
X716100Y341699D01*
X715033D01*
X714500Y341166D01*
Y339033D01*
X715033Y338500D01*
X716100D01*
X716633Y339033D01*
X717699Y338500D02*
X718765D01*
X718232D01*
Y341699D01*
X717699Y341166D01*
X722497Y338500D02*
X720365D01*
X722497Y340633D01*
Y341166D01*
X721964Y341699D01*
X720898D01*
X720365Y341166D01*
X792297Y202900D02*
Y206099D01*
X793896D01*
X794429Y205566D01*
Y204500D01*
X793896Y203966D01*
X792297D01*
X793363D02*
X794429Y202900D01*
X797095D02*
Y206099D01*
X795496Y204500D01*
X797628D01*
X800827Y206099D02*
X798695D01*
Y204500D01*
X799761Y205033D01*
X800294D01*
X800827Y204500D01*
Y203433D01*
X800294Y202900D01*
X799228D01*
X798695Y203433D01*
X779500Y127000D02*
Y130199D01*
X781100D01*
X781633Y129666D01*
Y128600D01*
X781100Y128066D01*
X779500D01*
X780566D02*
X781633Y127000D01*
X782699Y129666D02*
X783232Y130199D01*
X784298D01*
X784832Y129666D01*
Y129133D01*
X784298Y128600D01*
X783765D01*
X784298D01*
X784832Y128066D01*
Y127533D01*
X784298Y127000D01*
X783232D01*
X782699Y127533D01*
X785898Y129666D02*
X786431Y130199D01*
X787497D01*
X788031Y129666D01*
Y129133D01*
X787497Y128600D01*
X788031Y128066D01*
Y127533D01*
X787497Y127000D01*
X786431D01*
X785898Y127533D01*
Y128066D01*
X786431Y128600D01*
X785898Y129133D01*
Y129666D01*
X786431Y128600D02*
X787497D01*
X270500Y613000D02*
X267301D01*
Y614600D01*
X267834Y615133D01*
X268900D01*
X269434Y614600D01*
Y613000D01*
Y614066D02*
X270500Y615133D01*
Y616199D02*
Y617265D01*
Y616732D01*
X267301D01*
X267834Y616199D01*
X270500Y618865D02*
Y619931D01*
Y619398D01*
X267301D01*
X267834Y618865D01*
X608278Y324114D02*
Y320915D01*
X610411D01*
X611477D02*
X612543D01*
X612010D01*
Y324114D01*
X611477Y323581D01*
X614143D02*
X614676Y324114D01*
X615742D01*
X616275Y323581D01*
Y323048D01*
X615742Y322514D01*
X616275Y321981D01*
Y321448D01*
X615742Y320915D01*
X614676D01*
X614143Y321448D01*
Y321981D01*
X614676Y322514D01*
X614143Y323048D01*
Y323581D01*
X614676Y322514D02*
X615742D01*
X8079Y243415D02*
X11278D01*
Y245548D01*
Y246614D02*
Y247680D01*
Y247147D01*
X8079D01*
X8612Y246614D01*
X8079Y251412D02*
X8612Y250346D01*
X9679Y249280D01*
X10745D01*
X11278Y249813D01*
Y250879D01*
X10745Y251412D01*
X10212D01*
X9679Y250879D01*
Y249280D01*
X744301Y22500D02*
X747500D01*
Y24633D01*
Y25699D02*
Y26765D01*
Y26232D01*
X744301D01*
X744834Y25699D01*
X747500Y29964D02*
X744301D01*
X745900Y28365D01*
Y30497D01*
X717379Y187000D02*
X720578D01*
Y189133D01*
Y190199D02*
Y191265D01*
Y190732D01*
X717379D01*
X717912Y190199D01*
X720578Y194997D02*
Y192865D01*
X718445Y194997D01*
X717912D01*
X717379Y194464D01*
Y193398D01*
X717912Y192865D01*
X137333Y143066D02*
X136800Y143599D01*
X135733D01*
X135200Y143066D01*
Y140933D01*
X135733Y140400D01*
X136800D01*
X137333Y140933D01*
X140532Y143599D02*
X139465Y143066D01*
X138399Y141999D01*
Y140933D01*
X138932Y140400D01*
X139998D01*
X140532Y140933D01*
Y141466D01*
X139998Y141999D01*
X138399D01*
X143731Y143599D02*
X142664Y143066D01*
X141598Y141999D01*
Y140933D01*
X142131Y140400D01*
X143197D01*
X143731Y140933D01*
Y141466D01*
X143197Y141999D01*
X141598D01*
X75834Y170633D02*
X75301Y170099D01*
Y169033D01*
X75834Y168500D01*
X77967D01*
X78500Y169033D01*
Y170099D01*
X77967Y170633D01*
X75301Y173832D02*
X75834Y172765D01*
X76901Y171699D01*
X77967D01*
X78500Y172232D01*
Y173299D01*
X77967Y173832D01*
X77434D01*
X76901Y173299D01*
Y171699D01*
X78500Y176497D02*
X75301D01*
X76901Y174898D01*
Y177031D01*
X8334Y290633D02*
X7801Y290100D01*
Y289033D01*
X8334Y288500D01*
X10467D01*
X11000Y289033D01*
Y290100D01*
X10467Y290633D01*
X11000Y293299D02*
X7801D01*
X9401Y291699D01*
Y293832D01*
X11000Y296497D02*
X7801D01*
X9401Y294898D01*
Y297031D01*
X-3888Y245548D02*
X-4421Y245014D01*
Y243948D01*
X-3888Y243415D01*
X-1755D01*
X-1222Y243948D01*
Y245014D01*
X-1755Y245548D01*
X-1222Y248213D02*
X-4421D01*
X-2822Y246614D01*
Y248747D01*
X-3888Y249813D02*
X-4421Y250346D01*
Y251412D01*
X-3888Y251945D01*
X-3355D01*
X-2822Y251412D01*
Y250879D01*
Y251412D01*
X-2288Y251945D01*
X-1755D01*
X-1222Y251412D01*
Y250346D01*
X-1755Y249813D01*
X781633Y105666D02*
X781100Y106199D01*
X780033D01*
X779500Y105666D01*
Y103533D01*
X780033Y103000D01*
X781100D01*
X781633Y103533D01*
X784298Y103000D02*
Y106199D01*
X782699Y104599D01*
X784832D01*
X788031Y103000D02*
X785898D01*
X788031Y105133D01*
Y105666D01*
X787497Y106199D01*
X786431D01*
X785898Y105666D01*
X735334Y25133D02*
X734801Y24600D01*
Y23533D01*
X735334Y23000D01*
X737467D01*
X738000Y23533D01*
Y24600D01*
X737467Y25133D01*
X738000Y27799D02*
X734801D01*
X736401Y26199D01*
Y28332D01*
X738000Y29398D02*
Y30464D01*
Y29931D01*
X734801D01*
X735334Y29398D01*
X72133Y318166D02*
X71600Y318699D01*
X70533D01*
X70000Y318166D01*
Y316033D01*
X70533Y315500D01*
X71600D01*
X72133Y316033D01*
X74799Y315500D02*
Y318699D01*
X73199Y317099D01*
X75332D01*
X76398Y318166D02*
X76931Y318699D01*
X77997D01*
X78531Y318166D01*
Y316033D01*
X77997Y315500D01*
X76931D01*
X76398Y316033D01*
Y318166D01*
X140334Y306133D02*
X139801Y305599D01*
Y304533D01*
X140334Y304000D01*
X142467D01*
X143000Y304533D01*
Y305599D01*
X142467Y306133D01*
X140334Y307199D02*
X139801Y307732D01*
Y308799D01*
X140334Y309332D01*
X140867D01*
X141401Y308799D01*
Y308265D01*
Y308799D01*
X141934Y309332D01*
X142467D01*
X143000Y308799D01*
Y307732D01*
X142467Y307199D01*
X143000Y312531D02*
Y310398D01*
X140867Y312531D01*
X140334D01*
X139801Y311997D01*
Y310931D01*
X140334Y310398D01*
X728334Y189133D02*
X727801Y188600D01*
Y187533D01*
X728334Y187000D01*
X730467D01*
X731000Y187533D01*
Y188600D01*
X730467Y189133D01*
X731000Y192332D02*
Y190199D01*
X728867Y192332D01*
X728334D01*
X727801Y191798D01*
Y190732D01*
X728334Y190199D01*
Y193398D02*
X727801Y193931D01*
Y194997D01*
X728334Y195531D01*
X728867D01*
X729400Y194997D01*
X729934Y195531D01*
X730467D01*
X731000Y194997D01*
Y193931D01*
X730467Y193398D01*
X729934D01*
X729400Y193931D01*
X728867Y193398D01*
X728334D01*
X729400Y193931D02*
Y194997D01*
X757855Y346251D02*
X757322Y346784D01*
X756255D01*
X755722Y346251D01*
Y344118D01*
X756255Y343585D01*
X757322D01*
X757855Y344118D01*
X761054Y343585D02*
X758921D01*
X761054Y345718D01*
Y346251D01*
X760521Y346784D01*
X759454D01*
X758921Y346251D01*
X764253Y346784D02*
X762120D01*
Y345184D01*
X763186Y345718D01*
X763720D01*
X764253Y345184D01*
Y344118D01*
X763720Y343585D01*
X762653D01*
X762120Y344118D01*
X805834Y323133D02*
X805301Y322600D01*
Y321533D01*
X805834Y321000D01*
X807967D01*
X808500Y321533D01*
Y322600D01*
X807967Y323133D01*
X808500Y324199D02*
Y325265D01*
Y324732D01*
X805301D01*
X805834Y324199D01*
X805301Y326865D02*
Y328997D01*
X805834D01*
X807967Y326865D01*
X808500D01*
X750334Y141633D02*
X749801Y141100D01*
Y140033D01*
X750334Y139500D01*
X752467D01*
X753000Y140033D01*
Y141100D01*
X752467Y141633D01*
X753000Y142699D02*
Y143765D01*
Y143232D01*
X749801D01*
X750334Y142699D01*
X749801Y147497D02*
X750334Y146431D01*
X751401Y145365D01*
X752467D01*
X753000Y145898D01*
Y146964D01*
X752467Y147497D01*
X751934D01*
X751401Y146964D01*
Y145365D01*
X762500Y106199D02*
Y103000D01*
X764633D01*
X765699D02*
X766765D01*
X766232D01*
Y106199D01*
X765699Y105666D01*
X770497Y106199D02*
X768365D01*
Y104599D01*
X769431Y105133D01*
X769964D01*
X770497Y104599D01*
Y103533D01*
X769964Y103000D01*
X768898D01*
X768365Y103533D01*
X782133Y118166D02*
X781600Y118699D01*
X780533D01*
X780000Y118166D01*
Y116033D01*
X780533Y115500D01*
X781600D01*
X782133Y116033D01*
X783199Y115500D02*
X784265D01*
X783732D01*
Y118699D01*
X783199Y118166D01*
X785865D02*
X786398Y118699D01*
X787464D01*
X787997Y118166D01*
Y117633D01*
X787464Y117099D01*
X787997Y116566D01*
Y116033D01*
X787464Y115500D01*
X786398D01*
X785865Y116033D01*
Y116566D01*
X786398Y117099D01*
X785865Y117633D01*
Y118166D01*
X786398Y117099D02*
X787464D01*
X819334Y142633D02*
X818801Y142099D01*
Y141033D01*
X819334Y140500D01*
X821467D01*
X822000Y141033D01*
Y142099D01*
X821467Y142633D01*
X822000Y145832D02*
Y143699D01*
X819867Y145832D01*
X819334D01*
X818801Y145299D01*
Y144232D01*
X819334Y143699D01*
X822000Y148497D02*
X818801D01*
X820401Y146898D01*
Y149031D01*
X793633Y193666D02*
X793099Y194199D01*
X792033D01*
X791500Y193666D01*
Y191533D01*
X792033Y191000D01*
X793099D01*
X793633Y191533D01*
X794699Y193666D02*
X795232Y194199D01*
X796298D01*
X796832Y193666D01*
Y193133D01*
X796298Y192599D01*
X795765D01*
X796298D01*
X796832Y192066D01*
Y191533D01*
X796298Y191000D01*
X795232D01*
X794699Y191533D01*
X797898Y193666D02*
X798431Y194199D01*
X799497D01*
X800031Y193666D01*
Y191533D01*
X799497Y191000D01*
X798431D01*
X797898Y191533D01*
Y193666D01*
X809834Y176133D02*
X809301Y175600D01*
Y174533D01*
X809834Y174000D01*
X811967D01*
X812500Y174533D01*
Y175600D01*
X811967Y176133D01*
X812500Y179332D02*
Y177199D01*
X810367Y179332D01*
X809834D01*
X809301Y178798D01*
Y177732D01*
X809834Y177199D01*
X809301Y182531D02*
X809834Y181464D01*
X810900Y180398D01*
X811967D01*
X812500Y180931D01*
Y181997D01*
X811967Y182531D01*
X811434D01*
X810900Y181997D01*
Y180398D01*
X831500Y141000D02*
X828301D01*
Y142599D01*
X828834Y143133D01*
X829900D01*
X830434Y142599D01*
Y141000D01*
Y142066D02*
X831500Y143133D01*
Y145799D02*
X828301D01*
X829900Y144199D01*
Y146332D01*
X828834Y147398D02*
X828301Y147931D01*
Y148997D01*
X828834Y149531D01*
X830967D01*
X831500Y148997D01*
Y147931D01*
X830967Y147398D01*
X828834D01*
X819334Y159133D02*
X818801Y158599D01*
Y157533D01*
X819334Y157000D01*
X821467D01*
X822000Y157533D01*
Y158599D01*
X821467Y159133D01*
X822000Y162332D02*
Y160199D01*
X819867Y162332D01*
X819334D01*
X818801Y161799D01*
Y160732D01*
X819334Y160199D01*
Y163398D02*
X818801Y163931D01*
Y164997D01*
X819334Y165531D01*
X819867D01*
X820401Y164997D01*
Y164464D01*
Y164997D01*
X820934Y165531D01*
X821467D01*
X822000Y164997D01*
Y163931D01*
X821467Y163398D01*
X810834Y151633D02*
X810301Y151100D01*
Y150033D01*
X810834Y149500D01*
X812967D01*
X813500Y150033D01*
Y151100D01*
X812967Y151633D01*
X813500Y154832D02*
Y152699D01*
X811367Y154832D01*
X810834D01*
X810301Y154298D01*
Y153232D01*
X810834Y152699D01*
Y155898D02*
X810301Y156431D01*
Y157497D01*
X810834Y158031D01*
X812967D01*
X813500Y157497D01*
Y156431D01*
X812967Y155898D01*
X810834D01*
X749801Y154500D02*
X753000D01*
Y156633D01*
Y157699D02*
Y158765D01*
Y158232D01*
X749801D01*
X750334Y157699D01*
X753000Y160365D02*
Y161431D01*
Y160898D01*
X749801D01*
X750334Y160365D01*
X831500Y156500D02*
X828301D01*
Y158099D01*
X828834Y158633D01*
X829900D01*
X830434Y158099D01*
Y156500D01*
Y157566D02*
X831500Y158633D01*
Y161299D02*
X828301D01*
X829900Y159699D01*
Y161832D01*
X831500Y164497D02*
X828301D01*
X829900Y162898D01*
Y165031D01*
X841000Y157000D02*
X837801D01*
Y158599D01*
X838334Y159133D01*
X839400D01*
X839934Y158599D01*
Y157000D01*
Y158066D02*
X841000Y159133D01*
Y161799D02*
X837801D01*
X839400Y160199D01*
Y162332D01*
X838334Y163398D02*
X837801Y163931D01*
Y164997D01*
X838334Y165531D01*
X838867D01*
X839400Y164997D01*
Y164464D01*
Y164997D01*
X839934Y165531D01*
X840467D01*
X841000Y164997D01*
Y163931D01*
X840467Y163398D01*
X841000Y141500D02*
X837801D01*
Y143099D01*
X838334Y143633D01*
X839400D01*
X839934Y143099D01*
Y141500D01*
Y142566D02*
X841000Y143633D01*
Y146299D02*
X837801D01*
X839400Y144699D01*
Y146832D01*
X841000Y147898D02*
Y148964D01*
Y148431D01*
X837801D01*
X838334Y147898D01*
X814334Y246133D02*
X813801Y245600D01*
Y244533D01*
X814334Y244000D01*
X816467D01*
X817000Y244533D01*
Y245600D01*
X816467Y246133D01*
X814334Y247199D02*
X813801Y247732D01*
Y248798D01*
X814334Y249332D01*
X814867D01*
X815401Y248798D01*
Y248265D01*
Y248798D01*
X815934Y249332D01*
X816467D01*
X817000Y248798D01*
Y247732D01*
X816467Y247199D01*
X813801Y250398D02*
Y252531D01*
X814334D01*
X816467Y250398D01*
X817000D01*
X847000Y244000D02*
X843801D01*
Y245600D01*
X844334Y246133D01*
X845401D01*
X845934Y245600D01*
Y244000D01*
Y245066D02*
X847000Y246133D01*
Y248798D02*
X843801D01*
X845401Y247199D01*
Y249332D01*
X843801Y252531D02*
X844334Y251464D01*
X845401Y250398D01*
X846467D01*
X847000Y250931D01*
Y251997D01*
X846467Y252531D01*
X845934D01*
X845401Y251997D01*
Y250398D01*
X814334Y224633D02*
X813801Y224099D01*
Y223033D01*
X814334Y222500D01*
X816467D01*
X817000Y223033D01*
Y224099D01*
X816467Y224633D01*
X814334Y225699D02*
X813801Y226232D01*
Y227298D01*
X814334Y227832D01*
X814867D01*
X815401Y227298D01*
Y226765D01*
Y227298D01*
X815934Y227832D01*
X816467D01*
X817000Y227298D01*
Y226232D01*
X816467Y225699D01*
X817000Y228898D02*
Y229964D01*
Y229431D01*
X813801D01*
X814334Y228898D01*
X829334Y223633D02*
X828801Y223099D01*
Y222033D01*
X829334Y221500D01*
X831467D01*
X832000Y222033D01*
Y223099D01*
X831467Y223633D01*
X829334Y224699D02*
X828801Y225232D01*
Y226298D01*
X829334Y226832D01*
X829867D01*
X830400Y226298D01*
Y225765D01*
Y226298D01*
X830934Y226832D01*
X831467D01*
X832000Y226298D01*
Y225232D01*
X831467Y224699D01*
X828801Y230031D02*
Y227898D01*
X830400D01*
X829867Y228964D01*
Y229497D01*
X830400Y230031D01*
X831467D01*
X832000Y229497D01*
Y228431D01*
X831467Y227898D01*
X846334Y223133D02*
X845801Y222600D01*
Y221533D01*
X846334Y221000D01*
X848467D01*
X849000Y221533D01*
Y222600D01*
X848467Y223133D01*
X846334Y224199D02*
X845801Y224732D01*
Y225799D01*
X846334Y226332D01*
X846867D01*
X847400Y225799D01*
Y225265D01*
Y225799D01*
X847934Y226332D01*
X848467D01*
X849000Y225799D01*
Y224732D01*
X848467Y224199D01*
X849000Y228997D02*
X845801D01*
X847400Y227398D01*
Y229531D01*
X858000Y221500D02*
X854801D01*
Y223099D01*
X855334Y223633D01*
X856400D01*
X856934Y223099D01*
Y221500D01*
Y222566D02*
X858000Y223633D01*
Y226298D02*
X854801D01*
X856400Y224699D01*
Y226832D01*
X857467Y227898D02*
X858000Y228431D01*
Y229497D01*
X857467Y230031D01*
X855334D01*
X854801Y229497D01*
Y228431D01*
X855334Y227898D01*
X855867D01*
X856400Y228431D01*
Y230031D01*
X417000Y276500D02*
X413801D01*
Y278099D01*
X414334Y278633D01*
X415401D01*
X415934Y278099D01*
Y276500D01*
Y277566D02*
X417000Y278633D01*
X413801Y279699D02*
Y281832D01*
X414334D01*
X416467Y279699D01*
X417000D01*
Y282898D02*
Y283964D01*
Y283431D01*
X413801D01*
X414334Y282898D01*
X425500Y276000D02*
X422301D01*
Y277600D01*
X422834Y278133D01*
X423901D01*
X424434Y277600D01*
Y276000D01*
Y277066D02*
X425500Y278133D01*
X422301Y279199D02*
Y281332D01*
X422834D01*
X424967Y279199D01*
X425500D01*
X422834Y282398D02*
X422301Y282931D01*
Y283997D01*
X422834Y284531D01*
X424967D01*
X425500Y283997D01*
Y282931D01*
X424967Y282398D01*
X422834D01*
X434000Y274500D02*
Y277699D01*
X435600D01*
X436133Y277166D01*
Y276099D01*
X435600Y275566D01*
X434000D01*
X435066D02*
X436133Y274500D01*
X439332Y277699D02*
X438265Y277166D01*
X437199Y276099D01*
Y275033D01*
X437732Y274500D01*
X438798D01*
X439332Y275033D01*
Y275566D01*
X438798Y276099D01*
X437199D01*
X440398Y275033D02*
X440931Y274500D01*
X441997D01*
X442531Y275033D01*
Y277166D01*
X441997Y277699D01*
X440931D01*
X440398Y277166D01*
Y276633D01*
X440931Y276099D01*
X442531D01*
X7801Y304500D02*
X11000D01*
Y306633D01*
Y307699D02*
Y308765D01*
Y308232D01*
X7801D01*
X8334Y307699D01*
X7801Y310365D02*
Y312497D01*
X8334D01*
X10467Y310365D01*
X11000D01*
X71500Y339600D02*
X68301D01*
Y341199D01*
X68834Y341733D01*
X69901D01*
X70434Y341199D01*
Y339600D01*
Y340666D02*
X71500Y341733D01*
X68301Y344932D02*
Y342799D01*
X69901D01*
X69367Y343865D01*
Y344398D01*
X69901Y344932D01*
X70967D01*
X71500Y344398D01*
Y343332D01*
X70967Y342799D01*
X71500Y348131D02*
Y345998D01*
X69367Y348131D01*
X68834D01*
X68301Y347597D01*
Y346531D01*
X68834Y345998D01*
X86000Y339000D02*
X82801D01*
Y340599D01*
X83334Y341133D01*
X84400D01*
X84934Y340599D01*
Y339000D01*
Y340066D02*
X86000Y341133D01*
X82801Y344332D02*
Y342199D01*
X84400D01*
X83867Y343265D01*
Y343798D01*
X84400Y344332D01*
X85467D01*
X86000Y343798D01*
Y342732D01*
X85467Y342199D01*
X83334Y345398D02*
X82801Y345931D01*
Y346997D01*
X83334Y347531D01*
X83867D01*
X84400Y346997D01*
Y346464D01*
Y346997D01*
X84934Y347531D01*
X85467D01*
X86000Y346997D01*
Y345931D01*
X85467Y345398D01*
X100500Y339000D02*
X97301D01*
Y340599D01*
X97834Y341133D01*
X98901D01*
X99434Y340599D01*
Y339000D01*
Y340066D02*
X100500Y341133D01*
X97301Y344332D02*
Y342199D01*
X98901D01*
X98367Y343265D01*
Y343798D01*
X98901Y344332D01*
X99967D01*
X100500Y343798D01*
Y342732D01*
X99967Y342199D01*
X100500Y346997D02*
X97301D01*
X98901Y345398D01*
Y347531D01*
X114500Y340000D02*
X111301D01*
Y341599D01*
X111834Y342133D01*
X112900D01*
X113434Y341599D01*
Y340000D01*
Y341066D02*
X114500Y342133D01*
X111301Y345332D02*
Y343199D01*
X112900D01*
X112367Y344265D01*
Y344798D01*
X112900Y345332D01*
X113967D01*
X114500Y344798D01*
Y343732D01*
X113967Y343199D01*
X114500Y346398D02*
Y347464D01*
Y346931D01*
X111301D01*
X111834Y346398D01*
X94133Y329166D02*
X93599Y329699D01*
X92533D01*
X92000Y329166D01*
Y327033D01*
X92533Y326500D01*
X93599D01*
X94133Y327033D01*
X95199Y329166D02*
X95732Y329699D01*
X96798D01*
X97332Y329166D01*
Y328633D01*
X96798Y328099D01*
X96265D01*
X96798D01*
X97332Y327566D01*
Y327033D01*
X96798Y326500D01*
X95732D01*
X95199Y327033D01*
X98398Y329166D02*
X98931Y329699D01*
X99997D01*
X100531Y329166D01*
Y328633D01*
X99997Y328099D01*
X100531Y327566D01*
Y327033D01*
X99997Y326500D01*
X98931D01*
X98398Y327033D01*
Y327566D01*
X98931Y328099D01*
X98398Y328633D01*
Y329166D01*
X98931Y328099D02*
X99997D01*
X113133Y329166D02*
X112600Y329699D01*
X111533D01*
X111000Y329166D01*
Y327033D01*
X111533Y326500D01*
X112600D01*
X113133Y327033D01*
X114199Y329166D02*
X114732Y329699D01*
X115798D01*
X116332Y329166D01*
Y328633D01*
X115798Y328099D01*
X115265D01*
X115798D01*
X116332Y327566D01*
Y327033D01*
X115798Y326500D01*
X114732D01*
X114199Y327033D01*
X117398D02*
X117931Y326500D01*
X118997D01*
X119531Y327033D01*
Y329166D01*
X118997Y329699D01*
X117931D01*
X117398Y329166D01*
Y328633D01*
X117931Y328099D01*
X119531D01*
X102633Y318166D02*
X102100Y318699D01*
X101033D01*
X100500Y318166D01*
Y316033D01*
X101033Y315500D01*
X102100D01*
X102633Y316033D01*
X103699Y318166D02*
X104232Y318699D01*
X105298D01*
X105832Y318166D01*
Y317633D01*
X105298Y317099D01*
X104765D01*
X105298D01*
X105832Y316566D01*
Y316033D01*
X105298Y315500D01*
X104232D01*
X103699Y316033D01*
X109031Y318699D02*
X107964Y318166D01*
X106898Y317099D01*
Y316033D01*
X107431Y315500D01*
X108497D01*
X109031Y316033D01*
Y316566D01*
X108497Y317099D01*
X106898D01*
X133000Y304000D02*
X129801D01*
Y305599D01*
X130334Y306133D01*
X131401D01*
X131934Y305599D01*
Y304000D01*
Y305066D02*
X133000Y306133D01*
X129801Y309332D02*
Y307199D01*
X131401D01*
X130867Y308265D01*
Y308799D01*
X131401Y309332D01*
X132467D01*
X133000Y308799D01*
Y307732D01*
X132467Y307199D01*
X130334Y310398D02*
X129801Y310931D01*
Y311997D01*
X130334Y312531D01*
X132467D01*
X133000Y311997D01*
Y310931D01*
X132467Y310398D01*
X130334D01*
X270500Y629000D02*
X267301D01*
Y630599D01*
X267834Y631133D01*
X268900D01*
X269434Y630599D01*
Y629000D01*
Y630066D02*
X270500Y631133D01*
X267834Y632199D02*
X267301Y632732D01*
Y633798D01*
X267834Y634332D01*
X268367D01*
X268900Y633798D01*
X269434Y634332D01*
X269967D01*
X270500Y633798D01*
Y632732D01*
X269967Y632199D01*
X269434D01*
X268900Y632732D01*
X268367Y632199D01*
X267834D01*
X268900Y632732D02*
Y633798D01*
X270500Y597000D02*
X267301D01*
Y598599D01*
X267834Y599133D01*
X268900D01*
X269434Y598599D01*
Y597000D01*
Y598066D02*
X270500Y599133D01*
Y600199D02*
Y601265D01*
Y600732D01*
X267301D01*
X267834Y600199D01*
X267301Y604997D02*
Y602865D01*
X268900D01*
X268367Y603931D01*
Y604464D01*
X268900Y604997D01*
X269967D01*
X270500Y604464D01*
Y603398D01*
X269967Y602865D01*
X278334Y584133D02*
X277801Y583600D01*
Y582533D01*
X278334Y582000D01*
X280467D01*
X281000Y582533D01*
Y583600D01*
X280467Y584133D01*
Y585199D02*
X281000Y585732D01*
Y586798D01*
X280467Y587332D01*
X278334D01*
X277801Y586798D01*
Y585732D01*
X278334Y585199D01*
X278867D01*
X279400Y585732D01*
Y587332D01*
X270500Y580500D02*
X267301D01*
Y582099D01*
X267834Y582633D01*
X268900D01*
X269434Y582099D01*
Y580500D01*
Y581566D02*
X270500Y582633D01*
Y583699D02*
Y584765D01*
Y584232D01*
X267301D01*
X267834Y583699D01*
X267301Y588497D02*
X267834Y587431D01*
X268900Y586365D01*
X269967D01*
X270500Y586898D01*
Y587964D01*
X269967Y588497D01*
X269434D01*
X268900Y587964D01*
Y586365D01*
X113633Y258666D02*
X113100Y259199D01*
X112033D01*
X111500Y258666D01*
Y256533D01*
X112033Y256000D01*
X113100D01*
X113633Y256533D01*
X114699Y258666D02*
X115232Y259199D01*
X116298D01*
X116832Y258666D01*
Y258133D01*
X116298Y257599D01*
X115765D01*
X116298D01*
X116832Y257066D01*
Y256533D01*
X116298Y256000D01*
X115232D01*
X114699Y256533D01*
X117898Y258666D02*
X118431Y259199D01*
X119497D01*
X120031Y258666D01*
Y258133D01*
X119497Y257599D01*
X118964D01*
X119497D01*
X120031Y257066D01*
Y256533D01*
X119497Y256000D01*
X118431D01*
X117898Y256533D01*
X800133Y362166D02*
X799600Y362699D01*
X798533D01*
X798000Y362166D01*
Y360033D01*
X798533Y359500D01*
X799600D01*
X800133Y360033D01*
X803332Y359500D02*
X801199D01*
X803332Y361633D01*
Y362166D01*
X802798Y362699D01*
X801732D01*
X801199Y362166D01*
X806531Y359500D02*
X804398D01*
X806531Y361633D01*
Y362166D01*
X805997Y362699D01*
X804931D01*
X804398Y362166D01*
X755722Y363585D02*
Y366784D01*
X757322D01*
X757855Y366251D01*
Y365184D01*
X757322Y364651D01*
X755722D01*
X756788D02*
X757855Y363585D01*
X760521D02*
Y366784D01*
X758921Y365184D01*
X761054D01*
X764253Y363585D02*
X762120D01*
X764253Y365718D01*
Y366251D01*
X763720Y366784D01*
X762653D01*
X762120Y366251D01*
X790500Y360500D02*
X787301D01*
Y362100D01*
X787834Y362633D01*
X788901D01*
X789434Y362100D01*
Y360500D01*
Y361566D02*
X790500Y362633D01*
X787834Y363699D02*
X787301Y364232D01*
Y365299D01*
X787834Y365832D01*
X788367D01*
X788901Y365299D01*
Y364765D01*
Y365299D01*
X789434Y365832D01*
X789967D01*
X790500Y365299D01*
Y364232D01*
X789967Y363699D01*
Y366898D02*
X790500Y367431D01*
Y368497D01*
X789967Y369031D01*
X787834D01*
X787301Y368497D01*
Y367431D01*
X787834Y366898D01*
X788367D01*
X788901Y367431D01*
Y369031D01*
X758633Y356166D02*
X758100Y356699D01*
X757033D01*
X756500Y356166D01*
Y354033D01*
X757033Y353500D01*
X758100D01*
X758633Y354033D01*
X761832Y353500D02*
X759699D01*
X761832Y355633D01*
Y356166D01*
X761298Y356699D01*
X760232D01*
X759699Y356166D01*
X762898Y353500D02*
X763964D01*
X763431D01*
Y356699D01*
X762898Y356166D01*
X717879Y294500D02*
X721078D01*
Y296633D01*
Y297699D02*
Y298765D01*
Y298232D01*
X717879D01*
X718412Y297699D01*
Y300365D02*
X717879Y300898D01*
Y301964D01*
X718412Y302497D01*
X718945D01*
X719479Y301964D01*
Y301431D01*
Y301964D01*
X720012Y302497D01*
X720545D01*
X721078Y301964D01*
Y300898D01*
X720545Y300365D01*
X800500Y343500D02*
Y346699D01*
X802100D01*
X802633Y346166D01*
Y345099D01*
X802100Y344566D01*
X800500D01*
X801566D02*
X802633Y343500D01*
X803699Y346166D02*
X804232Y346699D01*
X805298D01*
X805832Y346166D01*
Y345633D01*
X805298Y345099D01*
X804765D01*
X805298D01*
X805832Y344566D01*
Y344033D01*
X805298Y343500D01*
X804232D01*
X803699Y344033D01*
X808497Y343500D02*
Y346699D01*
X806898Y345099D01*
X809031D01*
X782855Y346251D02*
X782322Y346784D01*
X781255D01*
X780722Y346251D01*
Y344118D01*
X781255Y343585D01*
X782322D01*
X782855Y344118D01*
X783921Y343585D02*
X784987D01*
X784454D01*
Y346784D01*
X783921Y346251D01*
X786587Y344118D02*
X787120Y343585D01*
X788186D01*
X788720Y344118D01*
Y346251D01*
X788186Y346784D01*
X787120D01*
X786587Y346251D01*
Y345718D01*
X787120Y345184D01*
X788720D01*
X816334Y322633D02*
X815801Y322099D01*
Y321033D01*
X816334Y320500D01*
X818467D01*
X819000Y321033D01*
Y322099D01*
X818467Y322633D01*
X819000Y325832D02*
Y323699D01*
X816867Y325832D01*
X816334D01*
X815801Y325299D01*
Y324232D01*
X816334Y323699D01*
X818467Y326898D02*
X819000Y327431D01*
Y328497D01*
X818467Y329031D01*
X816334D01*
X815801Y328497D01*
Y327431D01*
X816334Y326898D01*
X816867D01*
X817400Y327431D01*
Y329031D01*
X140301Y285000D02*
X143500D01*
Y287133D01*
X142967Y288199D02*
X143500Y288732D01*
Y289798D01*
X142967Y290332D01*
X140834D01*
X140301Y289798D01*
Y288732D01*
X140834Y288199D01*
X141367D01*
X141901Y288732D01*
Y290332D01*
X184500Y307699D02*
Y304500D01*
X186633D01*
X187699Y307166D02*
X188232Y307699D01*
X189298D01*
X189832Y307166D01*
Y306633D01*
X189298Y306100D01*
X189832Y305566D01*
Y305033D01*
X189298Y304500D01*
X188232D01*
X187699Y305033D01*
Y305566D01*
X188232Y306100D01*
X187699Y306633D01*
Y307166D01*
X188232Y306100D02*
X189298D01*
X184500Y321699D02*
Y318500D01*
X186633D01*
X187699Y321699D02*
X189832D01*
Y321166D01*
X187699Y319033D01*
Y318500D01*
X184500Y335199D02*
Y332000D01*
X186633D01*
X189832Y335199D02*
X188765Y334666D01*
X187699Y333599D01*
Y332533D01*
X188232Y332000D01*
X189298D01*
X189832Y332533D01*
Y333066D01*
X189298Y333599D01*
X187699D01*
X184500Y349199D02*
Y346000D01*
X186633D01*
X189832Y349199D02*
X187699D01*
Y347600D01*
X188765Y348133D01*
X189298D01*
X189832Y347600D01*
Y346533D01*
X189298Y346000D01*
X188232D01*
X187699Y346533D01*
X692500Y330199D02*
Y327000D01*
X694633D01*
X695699Y329666D02*
X696232Y330199D01*
X697298D01*
X697832Y329666D01*
Y329133D01*
X697298Y328600D01*
X696765D01*
X697298D01*
X697832Y328066D01*
Y327533D01*
X697298Y327000D01*
X696232D01*
X695699Y327533D01*
X834500Y322000D02*
X831301D01*
Y323600D01*
X831834Y324133D01*
X832901D01*
X833434Y323600D01*
Y322000D01*
Y323066D02*
X834500Y324133D01*
X831834Y325199D02*
X831301Y325732D01*
Y326799D01*
X831834Y327332D01*
X832367D01*
X832901Y326799D01*
Y326265D01*
Y326799D01*
X833434Y327332D01*
X833967D01*
X834500Y326799D01*
Y325732D01*
X833967Y325199D01*
X834500Y328398D02*
Y329464D01*
Y328931D01*
X831301D01*
X831834Y328398D01*
X858000Y191500D02*
X854801D01*
Y193099D01*
X855334Y193633D01*
X856400D01*
X856934Y193099D01*
Y191500D01*
Y192566D02*
X858000Y193633D01*
Y196832D02*
Y194699D01*
X855867Y196832D01*
X855334D01*
X854801Y196299D01*
Y195232D01*
X855334Y194699D01*
X854801Y200031D02*
Y197898D01*
X856400D01*
X855867Y198964D01*
Y199497D01*
X856400Y200031D01*
X857467D01*
X858000Y199497D01*
Y198431D01*
X857467Y197898D01*
X848500Y191000D02*
X845301D01*
Y192599D01*
X845834Y193133D01*
X846900D01*
X847434Y192599D01*
Y191000D01*
Y192066D02*
X848500Y193133D01*
Y196332D02*
Y194199D01*
X846367Y196332D01*
X845834D01*
X845301Y195799D01*
Y194732D01*
X845834Y194199D01*
X845301Y199531D02*
X845834Y198464D01*
X846900Y197398D01*
X847967D01*
X848500Y197931D01*
Y198997D01*
X847967Y199531D01*
X847434D01*
X846900Y198997D01*
Y197398D01*
X838000Y191000D02*
X834801D01*
Y192599D01*
X835334Y193133D01*
X836401D01*
X836934Y192599D01*
Y191000D01*
Y192066D02*
X838000Y193133D01*
Y196332D02*
Y194199D01*
X835867Y196332D01*
X835334D01*
X834801Y195799D01*
Y194732D01*
X835334Y194199D01*
X834801Y197398D02*
Y199531D01*
X835334D01*
X837467Y197398D01*
X838000D01*
X982000Y271500D02*
Y274699D01*
X983599D01*
X984133Y274166D01*
Y273099D01*
X983599Y272566D01*
X982000D01*
X983066D02*
X984133Y271500D01*
X987332D02*
X985199D01*
X987332Y273633D01*
Y274166D01*
X986798Y274699D01*
X985732D01*
X985199Y274166D01*
X1002500Y271500D02*
Y274699D01*
X1004099D01*
X1004633Y274166D01*
Y273099D01*
X1004099Y272566D01*
X1002500D01*
X1003566D02*
X1004633Y271500D01*
X1005699Y274166D02*
X1006232Y274699D01*
X1007298D01*
X1007832Y274166D01*
Y273633D01*
X1007298Y273099D01*
X1006765D01*
X1007298D01*
X1007832Y272566D01*
Y272033D01*
X1007298Y271500D01*
X1006232D01*
X1005699Y272033D01*
X1023000Y271500D02*
Y274699D01*
X1024599D01*
X1025133Y274166D01*
Y273099D01*
X1024599Y272566D01*
X1023000D01*
X1024066D02*
X1025133Y271500D01*
X1028332Y274699D02*
X1026199D01*
Y273099D01*
X1027265Y273633D01*
X1027798D01*
X1028332Y273099D01*
Y272033D01*
X1027798Y271500D01*
X1026732D01*
X1026199Y272033D01*
D197*
X708147Y350668D02*
D03*
X708147Y350668D02*
D03*
X708147Y350668D02*
D03*
X708147Y350668D02*
D03*
X708147Y350668D02*
D03*
X708147Y437498D02*
D03*
X708147Y437498D02*
D03*
D198*
X471078Y314000D02*
X476078D01*
Y304000D02*
Y314000D01*
Y304000D02*
Y304500D01*
D199*
X638301Y333915D02*
X641217D01*
X641800Y334498D01*
Y335664D01*
X641217Y336247D01*
X638301D01*
X641800Y337414D02*
Y338580D01*
Y337997D01*
X638301D01*
X638884Y337414D01*
Y340330D02*
X638301Y340913D01*
Y342079D01*
X638884Y342662D01*
X641217D01*
X641800Y342079D01*
Y340913D01*
X641217Y340330D01*
X638884D01*
D200*
X481500Y-62359D02*
X487927D01*
X490070Y-61645D01*
X490784Y-60930D01*
X491498Y-59502D01*
Y-57360D01*
X490784Y-55932D01*
X490070Y-55217D01*
X487927Y-54503D01*
X481500D01*
Y-69500D01*
X494854Y-59502D02*
Y-69500D01*
Y-63787D02*
X495568Y-61645D01*
X496997Y-60216D01*
X498425Y-59502D01*
X500567D01*
X503352Y-54503D02*
X504067Y-55217D01*
X504781Y-54503D01*
X504067Y-53789D01*
X503352Y-54503D01*
X504067Y-59502D02*
Y-69500D01*
X507423Y-59502D02*
Y-69500D01*
Y-62359D02*
X509565Y-60216D01*
X510994Y-59502D01*
X513136D01*
X514564Y-60216D01*
X515278Y-62359D01*
Y-69500D01*
Y-62359D02*
X517421Y-60216D01*
X518849Y-59502D01*
X520992D01*
X522420Y-60216D01*
X523134Y-62359D01*
Y-69500D01*
X536417Y-59502D02*
Y-69500D01*
Y-61645D02*
X534988Y-60216D01*
X533560Y-59502D01*
X531418D01*
X529990Y-60216D01*
X528561Y-61645D01*
X527847Y-63787D01*
Y-65215D01*
X528561Y-67358D01*
X529990Y-68786D01*
X531418Y-69500D01*
X533560D01*
X534988Y-68786D01*
X536417Y-67358D01*
X540416Y-59502D02*
Y-69500D01*
Y-63787D02*
X541130Y-61645D01*
X542558Y-60216D01*
X543987Y-59502D01*
X546129D01*
X548200D02*
X552485Y-69500D01*
X556770Y-59502D02*
X552485Y-69500D01*
X551056Y-72356D01*
X549628Y-73785D01*
X548200Y-74499D01*
X547486D01*
X581050Y-56646D02*
X579622Y-55217D01*
X577479Y-54503D01*
X574623D01*
X572480Y-55217D01*
X571052Y-56646D01*
Y-58074D01*
X571766Y-59502D01*
X572480Y-60216D01*
X573909Y-60930D01*
X578194Y-62359D01*
X579622Y-63073D01*
X580336Y-63787D01*
X581050Y-65215D01*
Y-67358D01*
X579622Y-68786D01*
X577479Y-69500D01*
X574623D01*
X572480Y-68786D01*
X571052Y-67358D01*
X585835Y-54503D02*
X586549Y-55217D01*
X587263Y-54503D01*
X586549Y-53789D01*
X585835Y-54503D01*
X586549Y-59502D02*
Y-69500D01*
X598475Y-54503D02*
Y-69500D01*
Y-61645D02*
X597047Y-60216D01*
X595618Y-59502D01*
X593476D01*
X592048Y-60216D01*
X590619Y-61645D01*
X589905Y-63787D01*
Y-65215D01*
X590619Y-67358D01*
X592048Y-68786D01*
X593476Y-69500D01*
X595618D01*
X597047Y-68786D01*
X598475Y-67358D01*
X602474Y-63787D02*
X611044D01*
Y-62359D01*
X610329Y-60930D01*
X609615Y-60216D01*
X608187Y-59502D01*
X606045D01*
X604616Y-60216D01*
X603188Y-61645D01*
X602474Y-63787D01*
Y-65215D01*
X603188Y-67358D01*
X604616Y-68786D01*
X606045Y-69500D01*
X608187D01*
X609615Y-68786D01*
X611044Y-67358D01*
M02*
