M48
;Layer_Color=9474304
;FILE_FORMAT=2:5
INCH,LZ
;TYPE=PLATED
T1F00S00C0.01400
T2F00S00C0.02800
T3F00S00C0.03150
T4F00S00C0.03307
T5F00S00C0.03543
T6F00S00C0.03937
T8F00S00C0.04300
T9F00S00C0.04331
T10F00S00C0.04724
T11F00S00C0.05118
T12F00S00C0.05512
T13F00S00C0.05906
T14F00S00C0.06299
T15F00S00C0.07000
T16F00S00C0.07874
T17F00S00C0.08000
T18F00S00C0.09055
T19F00S00C0.09843
T20F00S00C0.11024
T21F00S00C0.13780
;TYPE=NON_PLATED
T22F00S00C0.05000
T23F00S00C0.18000
%
T01
X0Y00415
X0016Y00465
X0027Y00685
X-0006Y00715
X02Y0085
X025Y0075
X02425Y00575
X02375Y00235
X02485Y00025
X0224Y-00005
X0206Y0001
X0198
X0239Y0107
X0251Y01
X02635Y00555
X0263Y00235
X0265Y-0003
X029Y-0004
Y00415
X02985Y00525
X03155Y0034
X03305Y00475
X03465Y00235
X0376Y0004
X0396Y00265
X03872Y00584
X03692Y00719
X03662Y00804
X03632Y00774
X03602Y00969
X03732Y00915
X03817Y00859
X03395Y0088
X03155
X0318Y01085
X04269Y01075
X047Y00915
X04757Y00859
X04932Y00969
X0515Y01025
X04905Y00475
X04491Y0043
X0446Y0049
X04428Y0052
X044Y0046
X05235Y001
X05305Y0
X0553Y00295
X05605Y00685
X05785Y0074
X05997Y01069
X0616Y01045
X0625Y0091
X0641Y0107
X06595Y0105
X07105Y0107
X07195Y0076
X07165Y00305
X07287Y00234
X05765Y-00015
X07365Y0038
X07745Y00535
X079Y00545
X07855Y00805
X0779Y00745
X078Y0088
X0802Y0106
X0829Y01085
X10795Y02535
X0885Y02325
X0884Y02235
X08755Y0222
X0866Y02115
X08805Y0205
X08825Y01775
X0868Y0173
X08685Y01635
X08595Y01605
X08525Y01525
X08462Y01409
X0864Y01405
X0852Y01725
X0836Y01845
X082Y0183
X08205Y0197
X08077Y01924
X0811Y02065
X08285Y021
X08205Y023
X08405Y02295
X08082Y02514
X07652Y02589
X0757Y0251
X07565Y0241
X07505Y0226
X0757Y0216
X07315Y02145
X0733Y0224
X0734Y0203
X07557Y01804
X07497Y01744
X0744Y0162
X07387Y01544
X07455Y014
X07637Y01274
X07705Y01339
X0775Y01385
X07705Y01605
Y0231
X08065Y01245
X08075Y01175
X08275Y0125
X07307Y01374
X06947
X06852Y0133
X06792Y01544
X0653Y0145
X0637Y0147
X06167Y01324
X05997Y01274
X06072Y01109
X06122Y01149
Y01744
X06072Y01709
X05975Y0162
X05897Y01874
X06055Y01885
X06295Y01905
X06405Y0191
X0667Y019
X06792Y02164
X0668Y02355
X0669Y02535
X0698Y0245
X07095Y02295
X07297Y02014
X0642Y0227
X0631Y0249
X06175Y0237
X06167Y02189
X05775Y0237
X0577Y0253
X05406Y02643
X05373Y02617
X05343Y02643
X0528Y02627
X05216Y02624
X05152Y02622
X0509Y0262
X04966Y02621
X04775Y02622
X0474Y0265
X04711Y02622
X0468Y0265
X04649Y0262
X04491Y02623
X04428Y02622
X04366Y02619
X04335Y02651
X04271
X04301Y02618
X0424Y02619
X04269Y02246
X04305Y02215
X04335Y02242
X04597Y0223
X0468Y02225
X04712Y02193
X04745Y02248
X04808Y0225
X04876Y02224
X04933Y02246
X0509Y02229
X05184Y02409
X05375Y02245
X04847Y02149
X04627Y02144
X0452Y02145
Y02024
X04597Y01994
X04557Y01935
X0457Y01725
X04562Y01644
X04615Y0143
X04845Y0155
X05075Y0122
X0459Y01095
X04335Y01325
X04305Y01475
X04225Y01775
X0557Y01735
X0555Y01515
X05725Y0141
X0414Y0162
X041Y01675
X0418Y0172
X04105Y01805
X03732Y01905
X0376Y02155
X0383Y02215
X03863Y02619
X04083
X0364
X0334Y0218
X03355Y01965
X03325Y0181
X03125Y01805
X03105Y0162
X03035Y0159
X0285
X02685Y01585
X027Y01825
X0308Y02
X0301Y0246
X0302Y0139
X0297Y0134
X0283Y0129
X02915Y0113
X0327378Y0134
X03405Y0124
X0332Y0156
X02465Y01575
X02385Y01845
X0205Y0185
X0212Y01625
X0196Y0153
X0203Y01335
X01905Y01255
X01632Y01364
X01492Y01419
X01295Y01765
X01275Y01835
X0115Y01735
X0112Y0122
X0171Y01805
X01565Y0203
X0155Y02445
X0138Y0249
X01773Y02624
X02119Y02623
X02467Y02621
X0235Y0221
X0247Y0121
X0258Y01295
X0261Y0112
X00772Y01834
X00637Y01844
X00782Y02594
X-00025Y02585
X0016Y0305
X0088Y02945
X007Y0356
X0113
X0131Y0318
X01487Y02819
X01995Y03055
Y03195
Y0333
Y0347
X0182Y0383
X01905Y04045
X0243Y04085
X0247Y03875
X0237Y0269
X0285Y02984
X0295Y0335
X02695Y03649
X0291Y0412
X03915Y038
X03815Y0365
X0365Y03369
X03677Y02699
X03737
X038
X03832Y02659
X03767
X03707
X0344Y02665
X03912Y02764
X03942Y02809
X0415Y029
X0424
X04522Y02934
X0451Y0276
X0446Y02655
X044Y0268
X0474Y0303
X04695Y03145
X04652Y03185
X0461Y0323
X04735Y0336
X04835Y0343
X0458Y0365
X0434
X0445Y038
X0468
Y0416
X0458Y0412
X0522Y03309
X0533Y0319
X05375Y0313
X05135Y0316
X0513Y0305
X05085Y03025
X0535Y02865
X05495Y02805
X05695Y0306
X05572Y03434
X05185Y02656
X05975Y02735
X06085Y02695
X0604Y0292
Y03
X05897Y02934
X05865Y03065
X0576Y03155
X06025Y03225
X0604Y033
X06048Y03375
X0589Y0345
X0583Y03448
X0584Y03805
X0616Y0369
Y0355
X0643Y03575
X06495Y037
X0633Y03705
X06345Y0382
X0683Y03685
X06796Y03632
X06855Y0336
X0662Y0329
X06575Y03425
X06595Y0303
X06755Y0306
X0681Y0292
X06985Y0302
X07005Y02815
X0698Y02685
X06515Y02655
X06535Y0278
X0643Y0286
X0631Y0279
X0727Y034
X07475Y0346
X075Y0333
X07515Y0325
X07595Y03225
X07597Y03039
X0765Y03075
X07775
X07947Y03034
X08025Y0305
X082Y03075
X08175Y02975
X08225Y0295
X0833Y029
Y03395
X08415Y03345
X0845Y03525
X0835
X0816Y0352
X0817Y0341
Y0336
X082Y0362
X0815Y0368
X084Y03675
X0855
X08575Y03525
X07815Y0353
X0775Y03575
X07785Y0363
X07725Y03675
X0749Y0362
X07365Y03725
X0798Y0378
X0792Y0276
X079Y0267
X09715Y0273
X02922Y04859
X0279Y05719
X02405Y0495
X01895Y0496
X02495Y04465
X02865Y05875
X02922Y0688
X0458Y0675
X04735Y0658
X0499Y0682
X0486Y06975
T02
X0719Y018
X0219Y0374403
X03067Y04005
X03315Y03509
X0452Y0374
X05335Y03509
X07506Y04258
X03067Y07125
X04215Y07045
X0452Y0692
X05875Y07125
T03
X0156878Y0018315
X0166878
X0167278Y0044915
X0196806
X0894972Y0096
X0954028Y00965
T04
X0565157Y0243307
X0336417
T05
X0216Y0037
Y0047
X03Y001
X031
X032
X033
X034
Y0
X033
X032
X031
X03
X0389778Y0107415
X0399778
X0425Y0
X0435
X0445
X0609384Y0048045
Y0058045
X0619384
Y0048045
X0629384
Y0058045
X0639384
Y0048045
X0817Y0088
X1058Y00455
X0399778Y0117415
Y0127415
Y0137415
Y0147415
Y0157415
Y0167415
Y0177415
Y0187415
X0389778
Y0177415
Y0167415
Y0157415
Y0147415
Y0137415
Y0127415
Y0117415
X0327Y0126
X0317
X0307
X0229Y0335
X0219
X0331378Y04009
X0341378
X0351378
X0361378
X0371378
X0381378
X0391378
X0401378
X0411378
X0365Y03845
X0421378Y04009
X0533578
X0543578
X0553578
X0563578
X0573578
X0567278Y0379915
X05185Y02805
X0631Y0301
X0669Y0278
X0712718Y0357626
X0720219
X0727718
X0595Y0355
X0593578Y04009
X0583578
X0603578
X0613578
X0623578
X0735218Y0357626
X0219Y0459
Y0469
X0331378Y0665
X0341378
X0351378
X0361378
X0371378
X0381378
X0391378
X0401378
X0411378
X0391378Y0685
X0421378Y0665
X0533578
X0543578
X0553578
X0563578
X0573578
X0583578
X0593578
X0603578
X0613578
X0623578
X05935Y0678
T06
X0763Y0024
Y0034
Y0064
Y0084
X07195Y0214
Y0224
Y0254
X00257Y02517
Y02617
Y02917
Y03117
X07195Y0274
X08767Y0291661
Y0331031
X08505Y0331
Y0321158
Y0340843
X0910978Y0346716
X0958222
X09802Y0328031
Y0288661
X1022478Y0345816
X1069722
X0592023Y0490936
X0582181
X0578597Y0574964
X058844
X0568755
X0572338Y0490936
X0389823
X0379981
X0370138
X0366555Y0574964
X0376397
X038624
X0252278Y059773
X0229778
X0208Y0597815
Y0637185
X0229778Y06371
X0252278
T08
X00655Y0206157
Y0216
Y0226
T09
X0924236Y0125831
X0953764Y0117169
T10
X0269827Y0079874
Y0097591
X0295417
Y0079874
X-0005Y037
X0195
Y0435
Y0469213
X-0005Y047
T11
X-0008618Y0099721
X0029374
X0196878Y0018315
X0216878
X0842Y0088
X0862
X102Y00965
X104
Y01265
X102
X0862Y0118
X0842
X0024394Y0147713
X0010378Y0147909
X-0003638Y0147713
X-00023Y06387
X00177
Y06687
X-00023
T12
X0698969Y0387626
Y0397626
Y0407626
X0748969
Y0397626
Y0387626
X0910978Y0298684
X0958222
X1022478Y0297784
X1069722
X05922Y04599
X05722
X039
X037
X0366378Y0606
X0386378
X0568578
X0588578
T13
X09346Y035459
X10461Y035369
T14
X0026878Y0540315
Y0570315
Y0600315
T15
X0889722Y00645
X0925222
X0960722
T16
X101Y04025
Y05175
Y05625
X0898861Y0469587
X0818939
X08589Y05188
X075687Y0501945
X067813
Y0620055
X075687
X08589Y0627068
X0818939Y067628
X0898861
X101Y06775
T17
X092Y01565
Y02265
X104
Y01565
T18
X01225Y0597815
Y0637185
T19
X07005Y06945
X077924
T20
X06322Y04759
X05322
X043
X033
X0326378Y059
X0426378
X0529778
X0629778
T21
X0Y0
X064
X108
X0Y07
X06459Y0695
X108Y07
T22
X0555905Y0243307
X0345669Y0237402
X0274535Y0243307
X0171386Y0237402
T23
X0846722Y00355
X1003722
M30
